<svg width="18" height="19" viewBox="0 0 18 19" fill="none" xmlns="http://www.w3.org/2000/svg">
    <path d="M15.6665 13.1665H17.3332V14.8332H0.666504V13.1665H2.33317V7.33317C2.33317 5.56506 3.03555 3.86937 4.28579 2.61913C5.53603 1.36888 7.23173 0.666504 8.99984 0.666504C10.7679 0.666504 12.4636 1.36888 13.7139 2.61913C14.9641 3.86937 15.6665 5.56506 15.6665 7.33317V13.1665ZM13.9998 13.1665V7.33317C13.9998 6.00709 13.4731 4.73532 12.5354 3.79764C11.5977 2.85995 10.3259 2.33317 8.99984 2.33317C7.67375 2.33317 6.40199 2.85995 5.4643 3.79764C4.52662 4.73532 3.99984 6.00709 3.99984 7.33317V13.1665H13.9998ZM6.49984 16.4998H11.4998V18.1665H6.49984V16.4998Z" fill="#90E040"/>
</svg>
