<svg width="182" height="48" viewBox="0 0 182 48" fill="none" xmlns="http://www.w3.org/2000/svg">
<path fill-rule="evenodd" clip-rule="evenodd" d="M1.63396 0.322432C0.101215 7.4909 2.43698 14.3884 7.95171 18.9783C8.48514 19.4223 8.51704 19.4606 8.16871 19.2391C3.93569 16.5462 1.30911 12.5094 0.456831 7.38658L0.315131 6.53484L0.281151 6.926C-0.23743 12.8939 2.92444 18.7552 8.32209 21.8317C8.84692 22.1309 8.80434 22.149 8.17197 21.8959C4.57185 20.4548 1.79462 17.6622 0.253157 13.9333C0.114626 13.5982 0.000701961 13.3458 7.56868e-06 13.3724C-0.000686824 13.3991 0.0464881 13.656 0.104904 13.9434C1.14879 19.0834 4.34934 22.8275 9.17775 24.5572C9.46419 24.6598 9.68518 24.7447 9.66886 24.746C9.5841 24.7522 8.48089 24.5079 8.01191 24.379C5.24493 23.6186 2.94063 21.9768 1.32226 19.6127C0.998673 19.14 0.980576 19.1208 1.05587 19.3303C2.49418 23.3303 5.76772 25.9996 10.1557 26.7503C10.4523 26.8011 10.7051 26.8537 10.7176 26.8673C10.754 26.907 9.0821 26.8472 8.67866 26.7943C6.42318 26.4986 4.54398 25.6219 3.04331 24.1655L2.72441 23.856L2.84337 24.0953C4.19262 26.8103 6.83426 28.207 11.1674 28.4965C12.0761 28.5572 12.0832 28.5731 11.2648 28.7144C9.36836 29.0419 7.25602 28.7639 5.86854 28.0042C5.49291 27.7986 5.47846 27.8226 5.7859 28.1415C5.99036 28.3534 6.03753 28.4391 6.18262 28.8608C7.6766 33.2042 11.2776 36.7226 15.6693 38.1299L16.1717 38.2909L16.2848 38.7548C16.7833 40.7984 16.6185 41.4039 15.6529 41.0775C14.8117 40.7931 14.355 40.8887 13.9012 41.4441C13.6971 41.6938 13.7288 41.7123 14.1174 41.5702L14.4391 41.4526L14.6638 41.5668L14.8885 41.6809L15.9174 41.654C17.3003 41.6179 17.2182 41.6668 17.3374 40.8072C17.6745 38.3757 17.5972 38.5714 18.1881 38.6537C18.8906 38.7516 20.498 38.786 21.2821 38.72C22.0415 38.6561 21.9315 38.5739 22.0686 39.3074C22.3843 40.9969 22.1705 41.447 21.2387 41.054C20.5838 40.7779 19.9093 40.9404 19.5495 41.4611C19.3914 41.6898 19.4113 41.6982 19.7925 41.564L20.1144 41.4505L20.3314 41.5674L20.5484 41.6842L21.6397 41.6482C22.8863 41.6072 22.8887 41.6064 22.9372 41.2482C23.1916 39.3684 23.5827 37.3719 23.8376 36.651L23.8992 36.4769L23.9745 36.738C24.2395 37.6569 24.9131 38.2384 25.9734 38.4634C27.347 38.7548 27.3801 38.7848 27.6857 40.0093C27.7987 40.4618 27.8025 40.4368 27.6117 40.4941C27.2179 40.6124 26.8828 40.9213 26.7554 41.2834C26.6394 41.6133 26.5509 41.5905 27.9489 41.5905H29.2083L29.1865 41.4926C29.1569 41.3593 28.9578 39.9342 28.9235 39.6103C28.9083 39.4667 28.8692 39.1828 28.8365 38.9793C28.6625 37.895 28.7543 36.5862 29.119 34.9504C29.1907 34.6287 29.2544 34.2492 29.2606 34.1071L29.2717 33.8486L29.4004 33.924C29.7204 34.1113 29.7032 33.919 29.7274 37.5866L29.7491 40.8724L29.8455 41.0532C29.9723 41.291 30.2191 41.4908 30.484 41.57C30.8681 41.6849 36.6417 41.6638 36.7582 41.547C36.959 41.3456 36.8647 41.2915 35.3579 40.7431C33.6974 40.1388 33.5107 40.1228 33.2993 40.5675L33.2267 40.7201H31.9632C30.3889 40.7201 30.5954 41.2129 30.5954 37.4563V34.2969L30.9052 33.9507C32.8344 31.7947 34.0507 29.2876 34.5181 26.5037L34.6216 25.8875L34.8991 25.5681C35.3206 25.0827 36.0204 24.0474 36.0204 23.909C36.0204 23.8859 35.829 24.0512 35.5952 24.2763C33.8839 25.9234 31.6051 26.8027 28.9028 26.8587C27.9355 26.8787 27.9339 26.8808 29.0491 26.6625C33.0405 25.8814 35.9939 23.4766 37.5464 19.7433C37.7899 19.1578 37.7828 19.1302 37.4963 19.5474C35.6651 22.214 33.1075 23.9101 29.8888 24.5923C29.1035 24.7587 29.0169 24.7608 29.467 24.6022C34.3825 22.8707 37.5999 19.1373 38.6697 13.9238C38.7925 13.3252 38.7738 13.3107 38.5595 13.8388C37.0236 17.6253 34.1862 20.4755 30.4993 21.9355C29.8555 22.1905 29.8329 22.1878 30.3133 21.9132C35.627 18.8762 38.4984 13.9612 38.5013 7.89785C38.5018 6.74147 38.4528 6.29221 38.3889 6.86686C37.8289 11.8979 34.971 16.4346 30.5954 19.2386C30.2252 19.4758 30.2426 19.4547 30.8092 18.9795C36.1997 14.4581 38.5227 7.95652 37.2525 0.94547C37.0517 -0.16269 37.0433 -0.166172 36.9818 0.833666C36.6149 6.79239 34.8811 11.574 31.8831 14.8946L31.6995 15.098L31.3051 14.6245C25.1497 7.23182 13.5046 7.70885 8.06924 15.5763L7.83619 15.9137L7.66788 15.7504C4.19414 12.3802 2.16825 7.21271 1.77895 0.729174C1.75539 0.336576 1.72931 0.00860587 1.72106 0.000336997C1.71281 -0.00793188 1.67362 0.136991 1.63396 0.322432ZM21.5466 10.2121C25.2089 10.6303 28.5053 12.4414 30.8571 15.3275C31.1744 15.7169 31.179 15.6583 30.8016 16.0279C29.8021 17.0065 28.6115 17.8592 27.2971 18.5375C26.4586 18.9701 26.497 18.9117 26.5891 19.6157C26.9798 22.6017 26.1083 25.3939 24.2245 27.1915L23.8316 27.5664L23.9437 27.7349C25.601 30.2271 30.6468 30.5139 32.8858 28.2432C33.3325 27.7902 33.3292 27.7861 32.7525 28.076C31.3262 28.7929 29.3065 29.0355 27.4756 28.7099C26.706 28.573 26.685 28.5525 27.278 28.5181C30.2558 28.3453 31.6487 27.9851 33.2428 26.9755C33.7411 26.6599 33.7109 26.6305 33.5534 27.2794C33.0152 29.4975 31.8774 31.6897 30.4496 33.2602L30.2552 33.474L29.9588 33.1773C29.7957 33.0141 29.4377 32.7273 29.1632 32.5399C28.8887 32.3525 28.5563 32.1042 28.4245 31.988C27.8807 31.5085 27.4396 31.3171 26.6349 31.2114C25.5214 31.065 24.53 30.6486 24.0489 30.1253L23.8738 29.9348L23.8522 30.1594C23.8403 30.2829 23.8099 30.6107 23.7846 30.8878C23.7355 31.4262 23.6212 31.9422 23.4844 32.2438L23.4001 32.4295L23.4236 30.8192C23.4564 28.5737 23.3681 27.6969 23.0176 26.7861C22.9317 26.5628 22.5908 25.658 22.2601 24.7754C21.5576 22.9005 21.6721 23.1041 21.4111 23.2656C21.1194 23.4461 20.7021 23.5467 20.3831 23.5132C20.036 23.4769 19.9431 23.4204 20.163 23.3795C21.2202 23.1828 22.0521 22.4045 22.6326 21.0691C23.0999 19.994 23.4348 19.4742 24.0421 18.8817L24.3676 18.5641L24.0421 18.6803C23.5986 18.8388 23.3847 18.9519 22.987 19.2381C22.5769 19.5334 22.5665 19.5353 22.7481 19.2817C23.2708 18.5518 24.4836 17.8719 25.2628 17.8719C25.4486 17.8719 25.416 17.8112 25.1265 17.6173C24.3099 17.0705 23.3581 17.1054 22.3897 17.7176C22.1058 17.8971 22.0928 17.8901 22.2406 17.6372L22.3563 17.4391L22.1468 17.3056C21.1874 16.6943 20.4537 16.9113 18.8446 18.2821C17.5858 19.3545 17.0845 19.6411 16.2963 19.7387L16.0783 19.7657L16.285 19.9881C16.6225 20.3512 17.1338 20.5702 17.6443 20.5702H17.8389L17.4439 21.0163C16.4794 22.1054 15.5358 24.0016 15.5358 24.8506C15.5358 24.8863 15.7538 24.6917 16.0203 24.4182C16.4903 23.936 16.6425 23.8202 16.4496 24.092C15.2219 25.8209 15.0727 29.5154 16.0939 32.9003C16.1864 33.2071 16.2477 33.4421 16.23 33.4225C16.2123 33.4029 15.9959 33.0834 15.749 32.7124C15.4187 32.2158 15.2955 32.0608 15.2823 32.1248C15.1168 32.9298 15.4409 36.0046 15.8025 37.0607C15.9062 37.3635 15.9293 37.3588 15.3646 37.1504C11.8111 35.8392 8.83281 33.06 7.35515 29.6766C7.10994 29.1151 7.10729 29.1295 7.43092 29.2571C10.1918 30.3451 13.5066 29.6819 14.7917 27.7846L14.9311 27.5788L14.4197 27.0663C12.6244 25.2668 11.8356 22.672 12.1767 19.6875C12.2662 18.9045 12.2914 18.9507 11.5787 18.5893C10.4232 18.0033 9.3533 17.2842 8.47016 16.5C8.4249 16.4598 8.48904 16.346 8.79067 15.9314C11.2809 12.5082 14.9814 10.4586 19.2247 10.1521C19.6081 10.1244 21.1211 10.1635 21.5466 10.2121ZM20.7794 18.4098C20.9316 18.7155 20.8866 18.7577 20.171 18.9813C19.6517 19.1436 19.6519 19.1264 20.1749 18.645C20.7125 18.1501 20.6602 18.1705 20.7794 18.4098ZM21.3696 36.8033C21.4087 36.9828 21.4928 37.2907 21.5564 37.4874C21.6201 37.6842 21.6635 37.8537 21.6528 37.8641C21.5234 37.9905 19.2529 37.9944 18.3351 37.8698C18.0725 37.8341 17.855 37.8048 17.8518 37.8046C17.8485 37.8044 17.902 37.5945 17.9705 37.3382C18.1301 36.7417 18.1985 36.0802 18.1603 35.5012L18.1304 35.0478L18.4746 35.3924C18.9516 35.87 19.4812 36.2349 20.2446 36.612C21.1115 37.0401 21.0333 37.0792 21.0586 36.2049C21.0745 35.6536 21.0993 35.4175 21.1601 35.2365L21.2407 34.9972L21.2696 35.737C21.2855 36.145 21.3304 36.6233 21.3696 36.8033ZM23.8328 38.0327C23.7568 38.2062 23.6947 38.3619 23.6948 38.3785C23.6949 38.3952 23.9787 38.5984 24.3256 38.8302C25.0438 39.3099 25.0175 39.2775 25.1026 39.7911C25.2141 40.4643 25.2275 40.4054 24.9358 40.5244C24.4968 40.7034 24.1916 41.0443 24.1078 41.4491L24.0786 41.5905H25.1437H26.2087L26.2501 41.4273C26.4305 40.7171 26.4456 40.5529 26.3911 39.8985C26.3085 38.908 26.3186 38.944 26.1089 38.8906C25.2753 38.6785 24.6684 38.3815 24.2667 37.9892C24.1135 37.8396 23.9843 37.7172 23.9796 37.7172C23.9749 37.7172 23.9088 37.8592 23.8328 38.0327Z" fill="white"/>
<path fill-rule="evenodd" clip-rule="evenodd" d="M48.7983 15.3362C48.7983 15.4892 48.8583 15.5161 49.1997 15.5161C50.6378 15.5161 50.9929 15.9085 53.8768 20.6841L56.2642 24.6374L56.2622 27.7921C56.2598 31.7339 56.2045 31.9088 54.8761 32.1757C53.5035 32.4513 54.233 32.5242 58.1232 32.4998C61.8175 32.4767 62.8699 32.3821 61.4827 32.1981C60.9769 32.131 60.5652 31.8939 60.2753 31.5026C60.0935 31.2574 60.0862 31.1356 60.0614 27.9251L60.0358 24.6013L62.5144 20.6534C65.4825 15.9257 65.7321 15.6485 67.1231 15.5368C67.5978 15.4988 67.6879 15.4648 67.6879 15.3239C67.6879 15.1637 67.5552 15.1562 64.7195 15.1562C61.8111 15.1562 61.7512 15.1598 61.7512 15.3362C61.7512 15.4768 61.8111 15.5161 62.0255 15.5161C62.6442 15.5161 63.184 16.156 63.028 16.7045C62.8115 17.4658 59.2871 23.3526 59.1754 23.1394C59.112 23.0183 58.3096 21.5474 57.3923 19.8709C56.2067 17.7041 55.7245 16.7391 55.7245 16.5336C55.7245 15.9203 56.1158 15.5161 56.7095 15.5161C56.9238 15.5161 56.9838 15.4768 56.9838 15.3362C56.9838 15.1589 56.9238 15.1562 52.8911 15.1562C48.8583 15.1562 48.7983 15.1589 48.7983 15.3362ZM126.875 15.3352C126.875 15.4875 126.934 15.5161 127.249 15.5161C128.781 15.5161 128.764 15.4269 128.762 23.8447C128.76 32.3076 128.83 31.8835 127.376 32.1757C125.862 32.4799 126.655 32.5233 133.28 32.4995L139.685 32.4764L140.247 30.0021C140.556 28.6412 140.811 27.4973 140.813 27.4603C140.823 27.2997 140.526 27.411 140.48 27.5848C139.795 30.2082 138.06 31.3269 134.543 31.4148L132.542 31.4649V24.0664C132.542 17.3945 132.556 16.6375 132.689 16.357C132.906 15.9008 133.354 15.597 133.912 15.529C135.574 15.326 134.409 15.2014 130.63 15.1778C126.92 15.1545 126.875 15.1564 126.875 15.3352ZM75.6267 17.4119C66.0094 18.3422 65.4657 31.0704 74.9753 32.6609C80.4372 33.5745 84.9342 30.889 85.5938 26.3198C86.4081 20.6787 82.0569 16.7898 75.6267 17.4119ZM164.879 17.4764C164.436 17.5891 163.436 17.6203 159.325 17.6502C154.452 17.6854 153.064 17.7816 154.725 17.9689C155.17 18.0191 155.492 18.2131 155.788 18.6099C156.06 18.9736 156.082 31.0187 155.812 31.5131C155.611 31.8822 155.22 32.126 154.705 32.2031C153.294 32.4149 154.32 32.5213 157.773 32.5213C161.235 32.5213 162.179 32.424 160.854 32.2037C159.647 32.0032 159.618 31.9142 159.617 28.495L159.617 25.6833H161.194C163.45 25.6833 164.195 26.112 164.202 27.4153C164.204 27.692 164.237 27.7527 164.384 27.7527C164.56 27.7527 164.564 27.6927 164.564 25.1434C164.564 22.5942 164.56 22.5342 164.384 22.5342C164.234 22.5342 164.204 22.5942 164.204 22.8977C164.204 24.1707 163.44 24.6036 161.194 24.6036H159.617V21.6259V18.6482L161.663 18.6811C164.559 18.7277 165.138 19.0575 165.339 20.773C165.492 22.0701 165.644 21.3331 165.644 19.2951C165.644 17.7652 165.618 17.3183 165.531 17.3273C165.469 17.3338 165.176 17.4008 164.879 17.4764ZM179.991 17.4722C179.548 17.5856 178.56 17.6172 174.481 17.649C170.246 17.682 169.511 17.7068 169.511 17.8166C169.511 17.8967 169.605 17.9462 169.759 17.9474C170.261 17.9515 170.765 18.2692 170.957 18.7036C171.22 19.2992 171.189 31.1564 170.923 31.5625C170.695 31.9101 170.246 32.1607 169.849 32.1611C169.571 32.1613 169.511 32.1935 169.511 32.3414C169.511 32.5194 169.571 32.5213 175.307 32.5213H181.102L181.209 32.004C181.268 31.7195 181.486 30.6869 181.694 29.7096C182.044 28.068 182.06 27.9326 181.909 27.9326C181.818 27.9326 181.745 27.9854 181.745 28.0499C181.745 28.8468 180.324 30.6075 179.291 31.0921L178.641 31.3967L176.685 31.4268L174.728 31.4568V28.5701V25.6833H176.305C178.562 25.6833 179.306 26.112 179.314 27.4153C179.316 27.692 179.348 27.7527 179.496 27.7527C179.672 27.7527 179.676 27.6927 179.676 25.1434C179.676 22.5942 179.672 22.5342 179.496 22.5342C179.35 22.5342 179.316 22.5942 179.316 22.852C179.316 24.1687 178.581 24.5988 176.325 24.6016L174.728 24.6036V21.6259V18.6482L176.775 18.684C179.71 18.7353 180.181 19.0133 180.444 20.8471C180.613 22.0211 180.755 21.31 180.755 19.2951C180.755 17.7666 180.729 17.3177 180.643 17.3248C180.581 17.3299 180.287 17.3963 179.991 17.4722ZM89.006 17.7988C89.006 17.8786 89.1524 17.9385 89.4211 17.9689C90.5289 18.0937 90.5238 18.068 90.5314 23.5689C90.5385 28.6136 90.5541 28.7901 91.0861 29.8444C92.8737 33.3864 100.274 33.9332 102.701 30.7025C103.754 29.3008 103.784 29.1075 103.825 23.3889C103.863 18.1272 103.841 18.3219 104.437 18.0729C104.604 18.0028 104.864 17.9455 105.014 17.9455C105.197 17.9455 105.287 17.9008 105.287 17.8105C105.287 17.6941 104.972 17.6755 102.993 17.6755C100.73 17.6755 99.8009 17.8208 101.115 17.9689C101.423 18.0037 101.604 18.0887 101.812 18.2972L102.094 18.5786L102.119 23.2051C102.139 27.0259 102.12 27.9434 102.01 28.474C101.093 32.8726 95.297 32.9943 94.2699 28.6366C94.0653 27.7682 94.0685 18.7077 94.2736 18.4149C94.4664 18.1394 94.8712 17.9455 95.2531 17.9455C95.477 17.9455 95.5724 17.9052 95.5724 17.8105C95.5724 17.693 95.1476 17.6755 92.2892 17.6755C89.5693 17.6755 89.006 17.6967 89.006 17.7988ZM108.705 17.8053C108.705 17.9036 108.793 17.9455 108.999 17.9455C109.461 17.9455 109.894 18.2247 110.122 18.6685L110.324 19.0633L110.324 25.005C110.323 32.0743 110.332 32.0184 109.12 32.2002C107.694 32.4141 108.697 32.5213 112.123 32.5213C115.536 32.5213 116.489 32.422 115.159 32.2048C113.869 31.9943 113.922 32.3048 113.922 24.9724V18.7552H114.811C118.706 18.7552 119.181 24.6491 115.316 25.0114C114.578 25.0806 114.485 25.1655 114.94 25.3554C115.346 25.5252 115.876 26.1688 116.061 26.7158C117.516 31.0302 119.162 32.3759 123.129 32.4923C125.056 32.5488 125.889 32.3444 124.527 32.1493C123.529 32.0066 122.405 30.7758 120.84 28.1127C120.36 27.2963 119.378 26.2369 118.831 25.9469L118.431 25.7347L118.963 25.5713C122.876 24.3699 122.532 19.0648 118.465 17.8859C117.678 17.6578 108.705 17.5837 108.705 17.8053ZM143.876 17.7988C143.876 17.8786 144.022 17.9385 144.291 17.9689C144.736 18.0191 145.058 18.2131 145.354 18.6098C145.537 18.8542 145.54 18.9572 145.564 24.9476L145.589 31.0368L145.384 31.4416C145.163 31.8796 144.8 32.1172 144.213 32.2076C142.862 32.4158 143.929 32.5213 147.384 32.5213C150.891 32.5213 151.84 32.4249 150.509 32.2037C150.032 32.1244 149.741 31.9767 149.452 31.6679L149.228 31.4272L149.204 25.1587C149.182 18.998 149.184 18.8851 149.364 18.5926C149.57 18.256 150.155 17.9504 150.599 17.9474C150.798 17.9461 150.892 17.9024 150.892 17.8105C150.892 17.6928 150.442 17.6755 147.384 17.6755C144.473 17.6755 143.876 17.6965 143.876 17.7988ZM78.8718 18.8275C82.8209 20.7849 82.8561 29.4761 78.9226 31.3312C75.7202 32.8416 72.7669 30.8064 72.1289 26.6497C71.2675 21.0375 74.8787 16.8483 78.8718 18.8275Z" fill="white"/>
</svg>
