<svg width="1209" height="1209" viewBox="0 0 1209 1209" fill="none" xmlns="http://www.w3.org/2000/svg">
<g opacity="0.6" filter="url(#filter0_d_124_4252)">
<path fill-rule="evenodd" clip-rule="evenodd" d="M4.5 0H4V0.5V200V200.5V201V400V400.5V401V600V600.5V601V800V800.5V801V1000V1000.5V1001V1200.5V1201H4.5H204H204.5H205H404H404.5H405H604H604.5H605H804H804.5H805H1004H1004.5H1005H1204.5H1205V1200.5V1001V1000.5V1000V801V800.5V800V601V600.5V600V401V400.5V400V201V200.5V200V0.5V0H1204.5H1005H1004.5H1004H805H804.5H804H605H604.5H604H405H404.5H404H205H204.5H204H4.5ZM1204 1000V801H1005V1000H1204ZM1004 1000V801H805V1000H1004ZM1204 1001H1005V1200H1204V1001ZM1004 1200V1001H805V1200H1004ZM1204 800H1005V601H1204V800ZM1004 601V800H805V601H1004ZM1204 600V401H1005V600H1204ZM1004 600V401H805V600H1004ZM1204 400H1005V201H1204V400ZM1004 201V400H805V201H1004ZM1204 200V1H1005V200H1204ZM1004 200V1H805V200H1004ZM804 1000V801H605V1000H804ZM804 1200V1001H605V1200H804ZM804 601V800H605V601H804ZM804 600V401H605V600H804ZM804 201V400H605V201H804ZM804 200V1H605V200H804ZM604 1000V801H405V1000H604ZM604 1200V1001H405V1200H604ZM604 601V800H405V601H604ZM604 600V401H405V600H604ZM604 201V400H405V201H604ZM604 200V1H405V200H604ZM404 1000V801H205V1000H404ZM404 1200V1001H205V1200H404ZM404 601V800H205V601H404ZM404 600V401H205V600H404ZM404 201V400H205V201H404ZM404 200V1H205V200H404ZM204 1000V801H5V1000H204ZM204 1200V1001H5V1200H204ZM204 601V800H5V601H204ZM204 600V401H5V600H204ZM204 201V400H5V201H204ZM204 200V1H5V200H204Z" fill="url(#paint0_radial_124_4252)" shape-rendering="crispEdges"/>
</g>
<defs>
<filter id="filter0_d_124_4252" x="0" y="0" width="1209" height="1209" filterUnits="userSpaceOnUse" color-interpolation-filters="sRGB">
<feFlood flood-opacity="0" result="BackgroundImageFix"/>
<feColorMatrix in="SourceAlpha" type="matrix" values="0 0 0 0 0 0 0 0 0 0 0 0 0 0 0 0 0 0 127 0" result="hardAlpha"/>
<feOffset dy="4"/>
<feGaussianBlur stdDeviation="2"/>
<feComposite in2="hardAlpha" operator="out"/>
<feColorMatrix type="matrix" values="0 0 0 0 0 0 0 0 0 0 0 0 0 0 0 0 0 0 0.25 0"/>
<feBlend mode="normal" in2="BackgroundImageFix" result="effect1_dropShadow_124_4252"/>
<feBlend mode="normal" in="SourceGraphic" in2="effect1_dropShadow_124_4252" result="shape"/>
</filter>
<radialGradient id="paint0_radial_124_4252" cx="0" cy="0" r="1" gradientUnits="userSpaceOnUse" gradientTransform="translate(604.5 600.5) rotate(90) scale(600.5)">
<stop/>
<stop offset="1" stop-opacity="0"/>
</radialGradient>
</defs>
</svg>
