<svg width="1839" height="599" viewBox="0 0 1839 599" fill="none" xmlns="http://www.w3.org/2000/svg">
<mask id="mask0_15_2146" style="mask-type:alpha" maskUnits="userSpaceOnUse" x="0" y="0" width="1839" height="599">
<rect width="1839" height="599" rx="8" transform="matrix(-1 0 0 1 1839 0)" fill="#0D51FF"/>
</mask>
<g mask="url(#mask0_15_2146)">
<g opacity="0.6">
<g filter="url(#filter0_f_15_2146)">
<ellipse rx="348.254" ry="195.592" transform="matrix(-0.980886 0.194585 0.171941 0.985107 1028.7 67.5525)" fill="#90E040"/>
</g>
<g filter="url(#filter1_f_15_2146)">
<path d="M978.877 5.90637C1276.99 -10.8651 1368.81 -310.346 1472.49 -301.821C1602.82 -291.106 1578.53 -10.1983 1472.49 96.8324C1347.48 222.992 776.849 17.2721 978.877 5.90637Z" fill="#90E040"/>
</g>
<g filter="url(#filter2_f_15_2146)">
<path d="M1047.47 -117.698C1139.03 -117.698 1182.07 -65.7929 1182.07 4.2003C1182.07 150.25 373.867 202.18 251.479 80.3822C161.534 -9.12807 173.067 -135.17 267.877 -179.925C375.021 -230.503 440.598 -219.906 545.865 -179.925C633.698 -146.566 662.304 -115.142 758.821 -87.01C849.16 -60.6784 966.144 -117.698 1047.47 -117.698Z" fill="#3985F5" fill-opacity="0.5"/>
</g>
<g filter="url(#filter3_f_15_2146)">
<ellipse rx="295.339" ry="282.362" transform="matrix(-1 0 0 1 815.246 -399.569)" fill="#39D4F5"/>
</g>
</g>
</g>
<defs>
<filter id="filter0_f_15_2146" x="32.0862" y="-790.091" width="1993.23" height="1715.29" filterUnits="userSpaceOnUse" color-interpolation-filters="sRGB">
<feFlood flood-opacity="0" result="BackgroundImageFix"/>
<feBlend mode="normal" in="SourceGraphic" in2="BackgroundImageFix" result="shape"/>
<feGaussianBlur stdDeviation="326.67" result="effect1_foregroundBlur_15_2146"/>
</filter>
<filter id="filter1_f_15_2146" x="489.33" y="-748.67" width="1518.7" height="1332.96" filterUnits="userSpaceOnUse" color-interpolation-filters="sRGB">
<feFlood flood-opacity="0" result="BackgroundImageFix"/>
<feBlend mode="normal" in="SourceGraphic" in2="BackgroundImageFix" result="shape"/>
<feGaussianBlur stdDeviation="223.335" result="effect1_foregroundBlur_15_2146"/>
</filter>
<filter id="filter2_f_15_2146" x="-176.67" y="-580.67" width="1725.41" height="1095.69" filterUnits="userSpaceOnUse" color-interpolation-filters="sRGB">
<feFlood flood-opacity="0" result="BackgroundImageFix"/>
<feBlend mode="normal" in="SourceGraphic" in2="BackgroundImageFix" result="shape"/>
<feGaussianBlur stdDeviation="183.335" result="effect1_foregroundBlur_15_2146"/>
</filter>
<filter id="filter3_f_15_2146" x="219.906" y="-981.931" width="1190.68" height="1164.72" filterUnits="userSpaceOnUse" color-interpolation-filters="sRGB">
<feFlood flood-opacity="0" result="BackgroundImageFix"/>
<feBlend mode="normal" in="SourceGraphic" in2="BackgroundImageFix" result="shape"/>
<feGaussianBlur stdDeviation="150" result="effect1_foregroundBlur_15_2146"/>
</filter>
</defs>
</svg>
