<svg width="32" height="32" viewBox="0 0 32 32" fill="none" xmlns="http://www.w3.org/2000/svg">
<circle cx="16" cy="16" r="16" fill="#90E040"/>
<g clip-path="url(#clip0_1168_18707)">
<path d="M9.33398 24.3334C9.33398 22.5653 10.0364 20.8696 11.2866 19.6193C12.5368 18.3691 14.2325 17.6667 16.0007 17.6667C17.7688 17.6667 19.4645 18.3691 20.7147 19.6193C21.9649 20.8696 22.6673 22.5653 22.6673 24.3334H21.0007C21.0007 23.0073 20.4739 21.7355 19.5362 20.7978C18.5985 19.8602 17.3267 19.3334 16.0007 19.3334C14.6746 19.3334 13.4028 19.8602 12.4651 20.7978C11.5274 21.7355 11.0007 23.0073 11.0007 24.3334H9.33398ZM16.0007 16.8334C13.2382 16.8334 11.0007 14.5959 11.0007 11.8334C11.0007 9.07087 13.2382 6.83337 16.0007 6.83337C18.7632 6.83337 21.0007 9.07087 21.0007 11.8334C21.0007 14.5959 18.7632 16.8334 16.0007 16.8334ZM16.0007 15.1667C17.8423 15.1667 19.334 13.675 19.334 11.8334C19.334 9.99171 17.8423 8.50004 16.0007 8.50004C14.159 8.50004 12.6673 9.99171 12.6673 11.8334C12.6673 13.675 14.159 15.1667 16.0007 15.1667Z" fill="#242424"/>
</g>
<defs>
<clipPath id="clip0_1168_18707">
<rect width="20" height="20" fill="white" transform="translate(6 6)"/>
</clipPath>
</defs>
</svg>
