<svg width="13" height="12" viewBox="0 0 13 12" fill="none" xmlns="http://www.w3.org/2000/svg">
<path d="M5.08333 0V1.33333H1.54167V10.6667H11.4583V7.33333H12.875V11.3333C12.875 11.5101 12.8004 11.6797 12.6675 11.8047C12.5347 11.9298 12.3545 12 12.1667 12H0.833333C0.645472 12 0.465304 11.9298 0.332466 11.8047C0.199628 11.6797 0.125 11.5101 0.125 11.3333V0.666667C0.125 0.489856 0.199628 0.320286 0.332466 0.195262C0.465304 0.0702379 0.645472 0 0.833333 0H5.08333ZM10.4567 1.33333H7.20833V0H12.875V5.33333H11.4583V2.276L6.5 6.94267L5.49842 6L10.4567 1.33333Z" fill="#B9FD02"/>
</svg>
