<svg width="18" height="18" viewBox="0 0 18 18" fill="none" xmlns="http://www.w3.org/2000/svg">
<path d="M4.14167 14.0004C4.31384 13.5125 4.63312 13.0899 5.0555 12.7911C5.47789 12.4922 5.98258 12.3317 6.50001 12.3317C7.01743 12.3317 7.52212 12.4922 7.94451 12.7911C8.36689 13.0899 8.68617 13.5125 8.85834 14.0004H17.3333V15.6671H8.85834C8.68617 16.155 8.36689 16.5776 7.94451 16.8764C7.52212 17.1753 7.01743 17.3358 6.50001 17.3358C5.98258 17.3358 5.47789 17.1753 5.0555 16.8764C4.63312 16.5776 4.31384 16.155 4.14167 15.6671H0.666672V14.0004H4.14167ZM9.14167 8.16708C9.31384 7.67914 9.63312 7.25661 10.0555 6.95774C10.4779 6.65887 10.9826 6.49837 11.5 6.49837C12.0174 6.49837 12.5221 6.65887 12.9445 6.95774C13.3669 7.25661 13.6862 7.67914 13.8583 8.16708H17.3333V9.83375H13.8583C13.6862 10.3217 13.3669 10.7442 12.9445 11.0431C12.5221 11.342 12.0174 11.5025 11.5 11.5025C10.9826 11.5025 10.4779 11.342 10.0555 11.0431C9.63312 10.7442 9.31384 10.3217 9.14167 9.83375H0.666672V8.16708H9.14167ZM4.14167 2.33375C4.31384 1.8458 4.63312 1.42328 5.0555 1.12441C5.47789 0.825536 5.98258 0.665039 6.50001 0.665039C7.01743 0.665039 7.52212 0.825536 7.94451 1.12441C8.36689 1.42328 8.68617 1.8458 8.85834 2.33375H17.3333V4.00041H8.85834C8.68617 4.48836 8.36689 4.91089 7.94451 5.20976C7.52212 5.50863 7.01743 5.66912 6.50001 5.66912C5.98258 5.66912 5.47789 5.50863 5.0555 5.20976C4.63312 4.91089 4.31384 4.48836 4.14167 4.00041H0.666672V2.33375H4.14167ZM6.50001 4.00041C6.72102 4.00041 6.93298 3.91262 7.08926 3.75634C7.24554 3.60006 7.33334 3.38809 7.33334 3.16708C7.33334 2.94607 7.24554 2.73411 7.08926 2.57783C6.93298 2.42155 6.72102 2.33375 6.50001 2.33375C6.27899 2.33375 6.06703 2.42155 5.91075 2.57783C5.75447 2.73411 5.66667 2.94607 5.66667 3.16708C5.66667 3.38809 5.75447 3.60006 5.91075 3.75634C6.06703 3.91262 6.27899 4.00041 6.50001 4.00041ZM11.5 9.83375C11.721 9.83375 11.933 9.74595 12.0893 9.58967C12.2455 9.43339 12.3333 9.22143 12.3333 9.00041C12.3333 8.7794 12.2455 8.56744 12.0893 8.41116C11.933 8.25488 11.721 8.16708 11.5 8.16708C11.279 8.16708 11.067 8.25488 10.9108 8.41116C10.7545 8.56744 10.6667 8.7794 10.6667 9.00041C10.6667 9.22143 10.7545 9.43339 10.9108 9.58967C11.067 9.74595 11.279 9.83375 11.5 9.83375ZM6.50001 15.6671C6.72102 15.6671 6.93298 15.5793 7.08926 15.423C7.24554 15.2667 7.33334 15.0548 7.33334 14.8337C7.33334 14.6127 7.24554 14.4008 7.08926 14.2445C6.93298 14.0882 6.72102 14.0004 6.50001 14.0004C6.27899 14.0004 6.06703 14.0882 5.91075 14.2445C5.75447 14.4008 5.66667 14.6127 5.66667 14.8337C5.66667 15.0548 5.75447 15.2667 5.91075 15.423C6.06703 15.5793 6.27899 15.6671 6.50001 15.6671Z" fill="#B9FD02"/>
</svg>
