<svg width="20" height="20" viewBox="0 0 20 20" fill="none" xmlns="http://www.w3.org/2000/svg">
<path fill-rule="evenodd" clip-rule="evenodd" d="M3.13257 1.78898C2.53918 4.51184 3.44345 7.13178 5.57843 8.87523C5.78494 9.04388 5.79729 9.05842 5.66244 8.97426C4.02366 7.95142 3.00681 6.41806 2.67686 4.47222L2.622 4.1487L2.60884 4.29727C2.40808 6.56412 3.63217 8.79046 5.72181 9.95905C5.925 10.0727 5.90851 10.0796 5.6637 9.98344C4.26994 9.43605 3.19477 8.37532 2.59801 6.95893C2.54438 6.83164 2.50027 6.73578 2.5 6.74588C2.49973 6.756 2.518 6.8536 2.54061 6.96277C2.94474 8.91515 4.1838 10.3373 6.05307 10.9943C6.16397 11.0333 6.24952 11.0655 6.2432 11.066C6.21039 11.0684 5.78329 10.9756 5.60173 10.9266C4.53052 10.6378 3.63844 10.0141 3.0119 9.1162C2.88663 8.93666 2.87962 8.92935 2.90877 9.00891C3.4656 10.5283 4.73292 11.5422 6.43167 11.8273C6.54649 11.8466 6.64438 11.8666 6.6492 11.8718C6.66329 11.8869 6.01604 11.8641 5.85985 11.8441C4.98667 11.7317 4.25916 11.3987 3.67819 10.8455L3.55473 10.7279L3.60078 10.8189C4.12313 11.8501 5.14582 12.3806 6.82337 12.4906C7.17516 12.5137 7.1779 12.5197 6.86105 12.5734C6.12687 12.6978 5.3091 12.5922 4.77195 12.3036C4.62653 12.2255 4.62093 12.2346 4.73995 12.3558C4.81911 12.4363 4.83737 12.4688 4.89354 12.629C5.47192 14.2788 6.86599 15.6152 8.56621 16.1498L8.7607 16.2109L8.8045 16.3871C8.99749 17.1634 8.93369 17.3933 8.55985 17.2694C8.23419 17.1614 8.0574 17.1977 7.8817 17.4086C7.8027 17.5035 7.81498 17.5105 7.96541 17.4565L8.08996 17.4118L8.17696 17.4552L8.26394 17.4986L8.66226 17.4884C9.19765 17.4746 9.16586 17.4932 9.21201 17.1667C9.34251 16.2431 9.31259 16.3175 9.54136 16.3487C9.81329 16.3859 10.4356 16.399 10.7392 16.3739C11.0331 16.3496 10.9906 16.3184 11.0436 16.597C11.1659 17.2388 11.0831 17.4097 10.7224 17.2605C10.4688 17.1556 10.2077 17.2173 10.0684 17.4151C10.0072 17.502 10.0149 17.5052 10.1625 17.4542L10.2871 17.4111L10.3711 17.4555L10.4551 17.4998L10.8776 17.4862C11.3602 17.4706 11.3611 17.4703 11.3799 17.3342C11.4784 16.6202 11.6298 15.8618 11.7285 15.588L11.7523 15.5219L11.7815 15.6211C11.8841 15.9701 12.1449 16.191 12.5553 16.2764C13.0871 16.3871 13.0999 16.3985 13.2183 16.8636C13.262 17.0355 13.2635 17.026 13.1896 17.0478C13.0371 17.0927 12.9074 17.2101 12.8581 17.3476C12.8132 17.4729 12.7789 17.4642 13.3201 17.4642H13.8077L13.7993 17.4271C13.7878 17.3764 13.7107 16.8351 13.6974 16.7121C13.6916 16.6575 13.6764 16.5497 13.6638 16.4724C13.5964 16.0605 13.6319 15.5634 13.7731 14.942C13.8009 14.8199 13.8256 14.6757 13.8279 14.6217L13.8323 14.5236L13.8821 14.5522C14.006 14.6233 13.9993 14.5503 14.0087 15.9434L14.0171 17.1915L14.0544 17.2601C14.1035 17.3505 14.199 17.4264 14.3016 17.4565C14.4503 17.5001 16.6855 17.4921 16.7306 17.4477C16.8083 17.3712 16.7718 17.3507 16.1885 17.1424C15.5456 16.9128 15.4733 16.9068 15.3915 17.0757L15.3634 17.1336H14.8742C14.2648 17.1336 14.3447 17.3208 14.3447 15.8939V14.6939L14.4646 14.5623C15.2115 13.7434 15.6824 12.7911 15.8633 11.7337L15.9034 11.4996L16.0108 11.3783C16.174 11.1939 16.4449 10.8007 16.4449 10.7481C16.4449 10.7393 16.3708 10.8021 16.2803 10.8876C15.6178 11.5132 14.7356 11.8472 13.6894 11.8685C13.3149 11.8761 13.3143 11.8769 13.7461 11.794C15.2913 11.4973 16.4347 10.5838 17.0357 9.16579C17.13 8.94342 17.1272 8.93292 17.0163 9.0914C16.3074 10.1043 15.3172 10.7485 14.0711 11.0077C13.7671 11.0709 13.7336 11.0716 13.9079 11.0114C15.8108 10.3537 17.0564 8.93563 17.4706 6.95531C17.5181 6.72796 17.5109 6.72246 17.4279 6.92304C16.8333 8.36129 15.7349 9.44392 14.3075 9.9985C14.0582 10.0953 14.0495 10.0943 14.2355 9.99C16.2926 8.83643 17.4043 6.96951 17.4054 4.66642C17.4056 4.22718 17.3866 4.05654 17.3619 4.27481C17.1451 6.1858 16.0387 7.90904 14.3447 8.97408C14.2014 9.06418 14.2081 9.05619 14.4275 8.87568C16.5144 7.15828 17.4137 4.68871 16.9219 2.02563C16.8442 1.60471 16.8409 1.60339 16.8171 1.98316C16.6751 4.24653 16.0039 6.06278 14.8432 7.32408L14.7721 7.40134L14.6195 7.22146C12.2365 4.41344 7.72817 4.59463 5.62393 7.583L5.5337 7.71115L5.46854 7.64912C4.12372 6.36901 3.33942 4.40618 3.1887 1.94347C3.17958 1.79435 3.16948 1.66977 3.16629 1.66663C3.1631 1.66349 3.14793 1.71854 3.13257 1.78898ZM10.8416 5.54546C12.2594 5.70431 13.5355 6.39225 14.446 7.48849C14.5688 7.63641 14.5706 7.61416 14.4245 7.75454C14.0376 8.12627 13.5766 8.45012 13.0678 8.70777C12.7432 8.87212 12.758 8.84992 12.7937 9.11732C12.9449 10.2515 12.6076 11.3121 11.8783 11.9949L11.7262 12.1373L11.7696 12.2013C12.4112 13.148 14.3646 13.2569 15.2314 12.3944C15.4043 12.2223 15.4031 12.2208 15.1798 12.3309C14.6276 12.6032 13.8457 12.6954 13.1369 12.5717C12.839 12.5197 12.8308 12.5119 13.0604 12.4988C14.2132 12.4332 14.7525 12.2964 15.3696 11.9129C15.5625 11.793 15.5509 11.7818 15.4899 12.0283C15.2815 12.8708 14.841 13.7035 14.2883 14.3L14.213 14.3813L14.0982 14.2686C14.0351 14.2066 13.8965 14.0976 13.7903 14.0265C13.684 13.9553 13.5553 13.8609 13.5042 13.8168C13.2937 13.6347 13.123 13.562 12.8114 13.5218C12.3804 13.4662 11.9965 13.3081 11.8103 13.1093L11.7425 13.0369L11.7341 13.1222C11.7295 13.1692 11.7178 13.2937 11.708 13.3989C11.689 13.6034 11.6447 13.7994 11.5917 13.914L11.5591 13.9845L11.5682 13.3729C11.5809 12.52 11.5467 12.1869 11.411 11.8409C11.3778 11.7561 11.2458 11.4124 11.1178 11.0772C10.8458 10.365 10.8901 10.4423 10.7891 10.5037C10.6762 10.5723 10.5146 10.6105 10.3911 10.5978C10.2567 10.584 10.2208 10.5625 10.3059 10.547C10.7152 10.4723 11.0372 10.1766 11.262 9.66938C11.4429 9.26101 11.5725 9.0636 11.8077 8.83853L11.9337 8.71789L11.8077 8.76204C11.636 8.82221 11.5531 8.86518 11.3992 8.97392C11.2404 9.08606 11.2364 9.08677 11.3067 8.99045C11.5091 8.71321 11.9786 8.45497 12.2803 8.45497C12.3522 8.45497 12.3396 8.43191 12.2275 8.35824C11.9113 8.15055 11.5429 8.16381 11.168 8.39637C11.058 8.46455 11.053 8.46189 11.1102 8.3658L11.155 8.29058L11.0739 8.23987C10.7025 8.00768 10.4184 8.09008 9.79548 8.61079C9.30817 9.01812 9.11409 9.12696 8.80894 9.16404L8.72454 9.1743L8.80457 9.25878C8.93524 9.39671 9.13318 9.47988 9.3308 9.47988H9.40614L9.25323 9.64932C8.87983 10.063 8.51452 10.7833 8.51452 11.1057C8.51452 11.1193 8.59894 11.0454 8.7021 10.9415C8.88404 10.7583 8.94298 10.7144 8.86828 10.8176C8.393 11.4743 8.33523 12.8776 8.73058 14.1633C8.7664 14.2799 8.79012 14.3692 8.78327 14.3617C8.77643 14.3543 8.69264 14.2329 8.59707 14.092C8.46918 13.9033 8.42149 13.8445 8.41638 13.8688C8.35234 14.1746 8.47779 15.3425 8.61779 15.7436C8.65793 15.8587 8.66686 15.8569 8.44824 15.7777C7.07257 15.2797 5.91954 14.224 5.34747 12.9389C5.25254 12.7256 5.25152 12.7311 5.37681 12.7795C6.44566 13.1928 7.72896 12.9409 8.22646 12.2202L8.28041 12.142L8.08243 11.9474C7.3874 11.2639 7.08203 10.2782 7.21411 9.1446C7.24875 8.84719 7.2585 8.86475 6.98258 8.72746C6.53525 8.50487 6.12104 8.23172 5.77914 7.93385C5.76162 7.91858 5.78645 7.87536 5.90322 7.71788C6.86728 6.41761 8.2999 5.63908 9.94267 5.52267C10.0911 5.51216 10.6768 5.527 10.8416 5.54546ZM10.5446 8.65929C10.6035 8.77538 10.5861 8.79143 10.309 8.87637C10.108 8.93801 10.108 8.93147 10.3105 8.74862C10.5186 8.56065 10.4984 8.56837 10.5446 8.65929ZM10.773 15.6459C10.7882 15.714 10.8207 15.831 10.8454 15.9057C10.87 15.9805 10.8868 16.0448 10.8827 16.0488C10.8326 16.0968 9.95357 16.0983 9.59823 16.051C9.49658 16.0374 9.41239 16.0263 9.41113 16.0262C9.40989 16.0261 9.43057 15.9464 9.45712 15.849C9.5189 15.6225 9.54536 15.3712 9.53057 15.1513L9.51901 14.9791L9.65225 15.11C9.83692 15.2914 10.0419 15.43 10.3375 15.5732C10.6731 15.7358 10.6428 15.7507 10.6526 15.4186C10.6588 15.2092 10.6684 15.1195 10.6919 15.0507L10.7231 14.9598L10.7343 15.2409C10.7405 15.3958 10.7578 15.5775 10.773 15.6459ZM11.7266 16.1129C11.6972 16.1788 11.6732 16.2379 11.6732 16.2442C11.6732 16.2505 11.7831 16.3277 11.9174 16.4157C12.1954 16.598 12.1853 16.5857 12.2182 16.7807C12.2614 17.0365 12.2666 17.0141 12.1537 17.0593C11.9837 17.1273 11.8655 17.2568 11.8331 17.4105L11.8218 17.4642H12.2341H12.6464L12.6625 17.4023C12.7323 17.1325 12.7381 17.0701 12.717 16.8215C12.6851 16.4453 12.689 16.459 12.6078 16.4387C12.2851 16.3581 12.0501 16.2453 11.8946 16.0963C11.8353 16.0395 11.7853 15.993 11.7835 15.993C11.7816 15.993 11.7561 16.0469 11.7266 16.1129Z" fill="#242424"/>
</svg>
