<svg width="56" height="56" viewBox="0 0 56 56" fill="none" xmlns="http://www.w3.org/2000/svg">
<g opacity="0.2" filter="url(#filter0_b_1476_14574)">
<circle cx="28" cy="28" r="28" fill="white"/>
</g>
<path fill-rule="evenodd" clip-rule="evenodd" d="M11.5182 8.30167C10.094 15.0085 12.2643 21.4618 17.3882 25.7562C17.8838 26.1716 17.9135 26.2075 17.5898 26.0002C13.6568 23.4807 11.2163 19.7038 10.4245 14.9109L10.2928 14.114L10.2612 14.48C9.7794 20.0636 12.7172 25.5474 17.7323 28.4259C18.22 28.7058 18.1804 28.7228 17.5929 28.4859C14.2479 27.1376 11.6674 24.5249 10.2352 21.0361C10.1065 20.7226 10.0007 20.4864 10 20.5113C9.99936 20.5362 10.0432 20.7766 10.0975 21.0455C11.0674 25.8546 14.0411 29.3575 18.5274 30.9758C18.7935 31.0718 18.9988 31.1513 18.9837 31.1525C18.9049 31.1583 17.8799 30.9297 17.4442 30.8091C14.8733 30.0977 12.7322 28.5616 11.2286 26.3498C10.9279 25.9075 10.9111 25.8895 10.9811 26.0855C12.3174 29.828 15.359 32.3253 19.436 33.0278C19.7116 33.0752 19.9465 33.1245 19.9581 33.1372C19.9919 33.1743 18.4385 33.1184 18.0637 33.0689C15.968 32.7922 14.222 31.972 12.8277 30.6094L12.5314 30.3198L12.6419 30.5437C13.8955 33.0838 16.35 34.3906 20.3761 34.6615C21.2204 34.7183 21.227 34.7332 20.4665 34.8654C18.7045 35.1718 16.7418 34.9117 15.4527 34.2009C15.1037 34.0085 15.0902 34.031 15.3759 34.3293C15.5659 34.5276 15.6097 34.6077 15.7445 35.0023C17.1326 39.0661 20.4784 42.3579 24.5589 43.6745L25.0257 43.8251L25.1308 44.2592C25.594 46.1712 25.4409 46.7377 24.5436 46.4323C23.762 46.1663 23.3378 46.2557 22.9161 46.7753C22.7265 47.009 22.756 47.0263 23.117 46.8934L23.4159 46.7833L23.6247 46.8901L23.8335 46.9969L24.7894 46.9717C26.0744 46.9379 25.9981 46.9837 26.1088 46.1794C26.422 43.9045 26.3502 44.0876 26.8993 44.1646C27.5519 44.2562 29.0455 44.2884 29.774 44.2267C30.4796 44.1668 30.3774 44.09 30.5047 44.7762C30.7981 46.3569 30.5994 46.778 29.7336 46.4104C29.1252 46.152 28.4984 46.3041 28.1641 46.7912C28.0172 47.0053 28.0357 47.0131 28.3899 46.8875L28.689 46.7813L28.8907 46.8907L29.0923 47L30.1062 46.9663C31.2645 46.9279 31.2667 46.9272 31.3118 46.5921C31.5482 44.8333 31.9115 42.9654 32.1484 42.2908L32.2056 42.128L32.2755 42.3723C32.5218 43.232 33.1477 43.776 34.1328 43.9865C35.4091 44.2592 35.4399 44.2872 35.7238 45.4329C35.8287 45.8563 35.8323 45.8329 35.655 45.8865C35.2891 45.9972 34.9778 46.2862 34.8594 46.625C34.7516 46.9336 34.6694 46.9123 35.9683 46.9123H37.1385L37.1183 46.8207C37.0907 46.696 36.9057 45.3627 36.8739 45.0597C36.8597 44.9253 36.8234 44.6596 36.7931 44.4693C36.6314 43.4548 36.7166 42.2303 37.0555 40.6998C37.1221 40.3988 37.1813 40.0438 37.1871 39.9108L37.1974 39.669L37.317 39.7395C37.6143 39.9148 37.5983 39.7348 37.6208 43.1663L37.641 46.2405L37.7305 46.4096C37.8484 46.6321 38.0777 46.819 38.3238 46.8932C38.6806 47.0007 44.0451 46.9809 44.1533 46.8716C44.3399 46.6832 44.2524 46.6326 42.8523 46.1195C41.3094 45.5541 41.136 45.5392 40.9396 45.9552L40.8722 46.098H39.6981C38.2354 46.098 38.4273 46.559 38.4273 43.0443V40.0884L38.7151 39.7645C40.5076 37.7473 41.6377 35.4017 42.072 32.7971L42.1682 32.2205L42.426 31.9216C42.8177 31.4675 43.4678 30.4989 43.4678 30.3694C43.4678 30.3478 43.29 30.5024 43.0728 30.713C41.4827 32.2541 39.3654 33.0767 36.8547 33.1291C35.9558 33.1479 35.9544 33.1498 36.9905 32.9456C40.6991 32.2148 43.4432 29.9648 44.8857 26.4719C45.1119 25.9242 45.1053 25.8983 44.8391 26.2887C43.1377 28.7836 40.7613 30.3704 37.7708 31.0087C37.0411 31.1644 36.9607 31.1663 37.3789 31.018C41.946 29.398 44.9355 25.905 45.9294 21.0272C46.0435 20.4672 46.0261 20.4536 45.8271 20.9477C44.3999 24.4903 41.7636 27.157 38.338 28.523C37.7398 28.7616 37.7188 28.759 38.1652 28.5021C43.1023 25.6607 45.7702 21.0621 45.7729 15.3893C45.7734 14.3074 45.7279 13.887 45.6685 14.4247C45.1482 19.1317 42.4928 23.3763 38.4273 25.9997C38.0833 26.2216 38.0995 26.202 38.6259 25.7573C43.6345 21.5271 45.7928 15.4442 44.6126 8.88459C44.4261 7.84779 44.4183 7.84453 44.3611 8.77998C44.0203 14.355 42.4093 18.8287 39.6237 21.9355L39.4531 22.1258L39.0867 21.6827C33.3675 14.7661 22.5476 15.2124 17.4974 22.5733L17.2809 22.8889L17.1245 22.7361C13.8969 19.583 12.0146 14.7483 11.6529 8.68222C11.631 8.3149 11.6068 8.00805 11.5991 8.00032C11.5914 7.99258 11.555 8.12817 11.5182 8.30167ZM30.0197 17.5545C33.4225 17.9458 36.4853 19.6403 38.6704 22.3405C38.9652 22.7048 38.9695 22.65 38.6188 22.9958C37.6902 23.9114 36.5839 24.7091 35.3627 25.3438C34.5837 25.7486 34.6193 25.6939 34.7049 26.3525C35.0679 29.1462 34.2581 31.7587 32.5079 33.4405L32.1428 33.7913L32.2469 33.9489C33.7868 36.2807 38.475 36.549 40.5554 34.4245C40.9704 34.0007 40.9674 33.9968 40.4315 34.2681C39.1063 34.9388 37.2297 35.1658 35.5286 34.8611C34.8135 34.7331 34.7939 34.7139 35.345 34.6817C38.1117 34.52 39.406 34.183 40.8871 33.2384C41.35 32.9432 41.322 32.9156 41.1757 33.5228C40.6756 35.598 39.6185 37.6491 38.2919 39.1184L38.1112 39.3184L37.8358 39.0409C37.6843 38.8882 37.3517 38.6198 37.0966 38.4445C36.8416 38.2692 36.5327 38.0368 36.4102 37.9281C35.9049 37.4796 35.4951 37.3005 34.7475 37.2016C33.7129 37.0646 32.7917 36.675 32.3447 36.1854L32.182 36.0071L32.1619 36.2173C32.1509 36.3329 32.1226 36.6396 32.0991 36.8988C32.0535 37.4025 31.9473 37.8853 31.8202 38.1675L31.7419 38.3412L31.7637 36.8346C31.7942 34.7338 31.7122 33.9134 31.3865 33.0612C31.3066 32.8523 30.9899 32.0058 30.6827 31.18C30.03 29.4259 30.1363 29.6163 29.8938 29.7674C29.6228 29.9363 29.235 30.0304 28.9386 29.9991C28.6161 29.9651 28.5298 29.9123 28.7341 29.874C29.7164 29.6899 30.4894 28.9618 31.0287 27.7124C31.4629 26.7065 31.7741 26.2202 32.3384 25.6658L32.6408 25.3687L32.3384 25.4774C31.9263 25.6256 31.7275 25.7315 31.3581 25.9993C30.977 26.2755 30.9673 26.2773 31.1361 26.04C31.6217 25.3572 32.7486 24.7211 33.4726 24.7211C33.6452 24.7211 33.615 24.6643 33.3459 24.4828C32.5872 23.9712 31.7029 24.0039 30.8031 24.5767C30.5393 24.7447 30.5272 24.7381 30.6646 24.5014L30.7721 24.3162L30.5774 24.1912C29.6859 23.6193 29.0043 23.8223 27.5092 25.1049C26.3396 26.1082 25.8738 26.3763 25.1415 26.4676L24.9389 26.4929L25.131 26.701C25.4446 27.0407 25.9196 27.2456 26.3939 27.2456H26.5747L26.2077 27.6629C25.3116 28.6819 24.4349 30.4561 24.4349 31.2503C24.4349 31.2837 24.6374 31.1017 24.885 30.8458C25.3217 30.3946 25.4632 30.2863 25.2839 30.5406C24.1432 32.1581 24.0046 35.6148 24.9534 38.7817C25.0394 39.0688 25.0963 39.2886 25.0798 39.2703C25.0634 39.252 24.8623 38.953 24.633 38.6059C24.326 38.1413 24.2116 37.9962 24.1993 38.0562C24.0456 38.8093 24.3467 41.6861 24.6827 42.6742C24.779 42.9575 24.8005 42.9531 24.2758 42.7581C20.9742 41.5314 18.2069 38.9311 16.8339 35.7656C16.6061 35.2402 16.6036 35.2537 16.9043 35.3731C19.4696 36.391 22.5495 35.7706 23.7435 33.9955L23.873 33.8029L23.3978 33.3234C21.7298 31.6398 20.9969 29.212 21.3139 26.4197C21.397 25.6872 21.4204 25.7304 20.7582 25.3923C19.6846 24.844 18.6905 24.1712 17.8699 23.4375C17.8279 23.3998 17.8875 23.2934 18.1677 22.9055C20.4815 19.7027 23.9198 17.7851 27.8624 17.4983C28.2186 17.4724 29.6244 17.509 30.0197 17.5545ZM29.3069 25.2243C29.4483 25.5103 29.4065 25.5498 28.7416 25.759C28.2591 25.9109 28.2593 25.8948 28.7452 25.4444C29.2447 24.9814 29.1962 25.0004 29.3069 25.2243ZM29.8553 42.4334C29.8916 42.6013 29.9697 42.8894 30.0289 43.0734C30.088 43.2575 30.1283 43.4161 30.1184 43.4259C29.9982 43.5441 27.8886 43.5478 27.0358 43.4312C26.7918 43.3978 26.5897 43.3704 26.5867 43.3702C26.5837 43.37 26.6334 43.1737 26.6971 42.9338C26.8453 42.3757 26.9089 41.7568 26.8734 41.2152L26.8456 40.7909L27.1654 41.1134C27.6086 41.5602 28.1007 41.9016 28.81 42.2544C29.6155 42.6549 29.5428 42.6916 29.5663 41.8735C29.5811 41.3577 29.6041 41.1369 29.6607 40.9675L29.7355 40.7436L29.7623 41.4358C29.7771 41.8175 29.8188 42.265 29.8553 42.4334ZM32.1439 43.5836C32.0733 43.746 32.0156 43.8916 32.0157 43.9071C32.0157 43.9227 32.2795 44.1129 32.6018 44.3297C33.2691 44.7786 33.2447 44.7483 33.3237 45.2288C33.4273 45.8586 33.4398 45.8035 33.1688 45.9148C32.7608 46.0824 32.4773 46.4013 32.3995 46.78L32.3723 46.9123H33.3619H34.3515L34.3899 46.7596C34.5575 46.0951 34.5715 45.9415 34.5209 45.3292C34.4442 44.4025 34.4535 44.4362 34.2587 44.3863C33.4841 44.1878 32.9203 43.91 32.5471 43.5429C32.4047 43.403 32.2847 43.2884 32.2803 43.2884C32.2759 43.2884 32.2145 43.4213 32.1439 43.5836Z" fill="white"/>
<defs>
<filter id="filter0_b_1476_14574" x="-100" y="-100" width="256" height="256" filterUnits="userSpaceOnUse" color-interpolation-filters="sRGB">
<feFlood flood-opacity="0" result="BackgroundImageFix"/>
<feGaussianBlur in="BackgroundImageFix" stdDeviation="50"/>
<feComposite in2="SourceAlpha" operator="in" result="effect1_backgroundBlur_1476_14574"/>
<feBlend mode="normal" in="SourceGraphic" in2="effect1_backgroundBlur_1476_14574" result="shape"/>
</filter>
</defs>
</svg>
