<svg width="80" height="80" viewBox="0 0 80 80" fill="none" xmlns="http://www.w3.org/2000/svg">
<path fill-rule="evenodd" clip-rule="evenodd" d="M12.5303 7.15688C10.1567 18.0484 13.7738 28.5281 22.3137 35.5019C23.1397 36.1765 23.1891 36.2347 22.6497 35.898C16.0947 31.8067 12.0272 25.6732 10.7074 17.8899L10.488 16.5958L10.4354 17.1901C9.63233 26.2575 14.5287 35.1628 22.8872 39.8372C23.7 40.2917 23.6341 40.3194 22.6548 39.9347C17.0798 37.7452 12.7791 33.5023 10.392 27.8367C10.1775 27.3276 10.0011 26.9441 10 26.9845C9.99894 27.025 10.072 27.4154 10.1624 27.852C11.779 35.6616 16.7352 41.3502 24.2123 43.9782C24.6559 44.1341 24.9981 44.2631 24.9728 44.265C24.8416 44.2745 23.1332 43.9033 22.4069 43.7074C18.1221 42.5521 14.5537 40.0576 12.0476 36.4658C11.5465 35.7476 11.5185 35.7184 11.6351 36.0366C13.8624 42.1141 18.9317 46.1697 25.7267 47.3104C26.186 47.3875 26.5775 47.4674 26.5968 47.488C26.6532 47.5484 24.0642 47.4576 23.4394 47.3772C19.9467 46.9278 17.0366 45.5959 14.7128 43.383L14.2189 42.9128L14.4031 43.2765C16.4925 47.4014 20.5833 49.5235 27.2935 49.9634C28.7006 50.0557 28.7116 50.0798 27.4442 50.2945C24.5075 50.7921 21.2364 50.3698 19.0878 49.2155C18.5061 48.9031 18.4837 48.9396 18.9598 49.424C19.2764 49.7461 19.3495 49.8761 19.5742 50.5169C21.8877 57.1162 27.464 62.4618 34.2648 64.6L35.0428 64.8446L35.218 65.5494C35.99 68.6544 35.7348 69.5744 34.2394 69.0784C32.9367 68.6464 32.2296 68.7916 31.5268 69.6355C31.2108 70.0149 31.2599 70.043 31.8616 69.8272L32.3598 69.6483L32.7078 69.8219L33.0558 69.9953L34.649 69.9544C36.7906 69.8995 36.6634 69.9739 36.848 68.6677C37.37 64.9735 37.2503 65.2708 38.1654 65.3959C39.2532 65.5446 41.7425 65.5969 42.9566 65.4966C44.1326 65.3995 43.9623 65.2746 44.1745 66.3891C44.6635 68.956 44.3323 69.6399 42.8894 69.0429C41.8753 68.6232 40.8307 68.8702 40.2735 69.6613C40.0287 70.0089 40.0595 70.0216 40.6498 69.8176L41.1484 69.6452L41.4844 69.8228L41.8205 70.0003L43.5104 69.9456C45.4408 69.8832 45.4445 69.882 45.5196 69.3379C45.9136 66.4818 46.5192 63.4484 46.914 62.353L47.0093 62.0885L47.1259 62.4852C47.5363 63.8814 48.5795 64.7648 50.2213 65.1067C52.3484 65.5495 52.3998 65.595 52.873 67.4555C53.0479 68.143 53.0538 68.105 52.7584 68.1921C52.1485 68.3719 51.6296 68.8412 51.4324 69.3914C51.2527 69.8925 51.1157 69.858 53.2805 69.858H55.2308L55.1971 69.7092C55.1512 69.5066 54.8429 67.3414 54.7898 66.8494C54.7662 66.6312 54.7056 66.1997 54.6551 65.8906C54.3856 64.2432 54.5277 62.2546 55.0925 59.7692C55.2036 59.2804 55.3022 58.7039 55.3118 58.488L55.329 58.0952L55.5283 58.2097C56.0238 58.4944 55.9972 58.2022 56.0347 63.7746L56.0683 68.7669L56.2176 69.0415C56.414 69.4029 56.7961 69.7064 57.2063 69.8268C57.801 70.0014 66.7419 69.9692 66.9222 69.7918C67.2332 69.4858 67.0873 69.4036 64.7538 68.5704C62.1824 67.6522 61.8934 67.628 61.566 68.3036L61.4536 68.5355H59.4969C57.0591 68.5355 57.3788 69.2841 57.3788 63.5766V58.7764L57.8586 58.2504C60.846 54.9746 62.7296 51.1654 63.4534 46.9357L63.6136 45.9994L64.0433 45.5141C64.6961 44.7767 65.7797 43.2036 65.7797 42.9933C65.7797 42.9583 65.4834 43.2094 65.1213 43.5514C62.4712 46.054 58.9424 47.3899 54.7578 47.475C53.2597 47.5054 53.2574 47.5086 54.9842 47.177C61.1652 45.9902 65.7387 42.3363 68.1428 36.6641C68.5198 35.7747 68.5089 35.7327 68.0652 36.3666C65.2295 40.4181 61.2689 42.995 56.2846 44.0316C55.0685 44.2844 54.9345 44.2875 55.6315 44.0467C63.2434 41.4159 68.2258 35.7435 69.8823 27.8222C70.0725 26.9128 70.0435 26.8908 69.7118 27.6931C67.3332 33.4461 62.9394 37.7767 57.2299 39.995C56.233 40.3824 56.198 40.3782 56.942 39.961C65.1705 35.3467 69.6171 27.879 69.6215 18.6667C69.6224 16.9097 69.5465 16.2271 69.4474 17.1002C68.5803 24.7442 64.1546 31.6371 57.3788 35.8973C56.8056 36.2577 56.8325 36.2257 57.7099 35.5037C66.0575 28.6341 69.6546 18.7558 67.6877 8.1035C67.3768 6.41981 67.3638 6.41452 67.2685 7.93363C66.7004 16.9871 64.0155 24.2521 59.3729 29.2973L59.0885 29.6064L58.4779 28.8868C48.9459 17.6547 30.9127 18.3795 22.4957 30.333L22.1348 30.8456L21.8742 30.5975C16.4949 25.477 13.3577 17.6257 12.7548 7.77487C12.7183 7.17837 12.6779 6.68007 12.6652 6.6675C12.6524 6.65494 12.5917 6.87513 12.5303 7.15688ZM43.3662 22.1828C49.0375 22.8182 54.1422 25.57 57.784 29.955C58.2754 30.5466 58.2826 30.4576 57.6981 31.0191C56.1503 32.5061 54.3066 33.8015 52.2711 34.8321C50.9728 35.4895 51.0322 35.4007 51.1749 36.4703C51.7798 41.007 50.4302 45.2494 47.5132 47.9807L46.9047 48.5503L47.0782 48.8063C49.6446 52.5929 57.4584 53.0286 60.9257 49.5785C61.6174 48.8903 61.6123 48.8841 60.7192 49.3245C58.5105 50.4138 55.3829 50.7824 52.5476 50.2876C51.3559 50.0797 51.3232 50.0485 52.2416 49.9962C56.8529 49.7337 59.01 49.1864 61.4785 47.6525C62.2501 47.173 62.2034 47.1283 61.9595 48.1142C61.126 51.4843 59.3641 54.8151 57.1531 57.2011L56.852 57.526L56.393 57.0752C56.1405 56.8273 55.5861 56.3915 55.161 56.1069C54.7359 55.8221 54.2211 55.4448 54.017 55.2682C53.1749 54.5398 52.4918 54.249 51.2458 54.0883C49.5214 53.8659 47.9862 53.2333 47.2412 52.4382L46.97 52.1487L46.9365 52.4899C46.9182 52.6776 46.8711 53.1757 46.8319 53.5966C46.7558 54.4146 46.5789 55.1987 46.367 55.6569L46.2364 55.939L46.2729 53.4925C46.3237 50.0808 46.187 48.7485 45.6441 47.3647C45.5111 47.0254 44.9832 45.6507 44.4711 44.3097C43.3833 41.4611 43.5605 41.7704 43.1564 42.0158C42.7047 42.2901 42.0584 42.4429 41.5644 42.3921C41.0269 42.3368 40.883 42.251 41.2235 42.1889C42.8607 41.89 44.1489 40.7075 45.0479 38.6785C45.7716 37.045 46.2902 36.2554 47.2306 35.3551L47.7347 34.8725L47.2306 35.0491C46.5439 35.2898 46.2126 35.4617 45.5968 35.8966C44.9617 36.3452 44.9455 36.3481 45.2268 35.9628C46.0362 34.8538 47.9143 33.8208 49.121 33.8208C49.4087 33.8208 49.3583 33.7286 48.9098 33.434C47.6453 32.6032 46.1714 32.6562 44.6719 33.5864C44.2322 33.8592 44.212 33.8486 44.4409 33.4642L44.6201 33.1633L44.2956 32.9604C42.8099 32.0317 41.6738 32.3613 39.1819 34.4441C37.2327 36.0735 36.4564 36.5088 35.2358 36.6571L34.8982 36.6982L35.2183 37.0361C35.741 37.5878 36.5327 37.9205 37.3232 37.9205H37.6246L37.0129 38.5982C35.5193 40.253 34.0581 43.1341 34.0581 44.424C34.0581 44.4782 34.3957 44.1826 34.8084 43.7671C35.5362 43.0343 35.7719 42.8585 35.4731 43.2714C33.572 45.8982 33.3409 51.5116 34.9223 56.6544C35.0656 57.1205 35.1605 57.4776 35.1331 57.4478C35.1057 57.4181 34.7706 56.9325 34.3883 56.3688C33.8767 55.6144 33.686 55.3788 33.6655 55.4762C33.4093 56.6992 33.9112 61.3709 34.4711 62.9755C34.6317 63.4356 34.6675 63.4284 33.793 63.1118C28.2903 61.1197 23.6781 56.897 21.3899 51.7564C21.0102 50.9032 21.0061 50.9252 21.5072 51.119C25.7827 52.7721 30.9158 51.7645 32.9058 48.8818L33.1216 48.5691L32.3297 47.7904C29.5496 45.0564 28.3281 41.1139 28.8564 36.5794C28.995 35.3897 29.034 35.46 27.9303 34.9108C26.141 34.0205 24.4841 32.9279 23.1166 31.7364C23.0465 31.6753 23.1458 31.5024 23.6129 30.8725C27.4691 25.6714 33.1996 22.5573 39.7707 22.0917C40.3644 22.0496 42.7073 22.109 43.3662 22.1828ZM42.1782 34.6381C42.4139 35.1025 42.3442 35.1667 41.236 35.5065C40.4318 35.753 40.4321 35.7268 41.242 34.9955C42.0745 34.2436 41.9936 34.2744 42.1782 34.6381ZM43.0921 62.5844C43.1527 62.8572 43.2828 63.3249 43.3814 63.6239C43.48 63.9228 43.5472 64.1804 43.5306 64.1962C43.3303 64.3882 39.8143 64.3941 38.3929 64.2048C37.9863 64.1507 37.6496 64.1061 37.6445 64.1058C37.6395 64.1055 37.7223 63.7866 37.8285 63.3971C38.0756 62.4909 38.1814 61.4858 38.1223 60.6061L38.076 59.9172L38.609 60.4408C39.3477 61.1665 40.1678 61.7208 41.35 62.2937C42.6925 62.9443 42.5713 63.0037 42.6104 61.6752C42.6351 60.8376 42.6735 60.479 42.7678 60.204L42.8924 59.8403L42.9372 60.9644C42.9619 61.5842 43.0313 62.3109 43.0921 62.5844ZM46.9066 64.4524C46.7889 64.716 46.6927 64.9525 46.6928 64.9777C46.6929 65.0031 47.1325 65.3119 47.6697 65.664C48.7818 66.3929 48.7412 66.3436 48.8729 67.124C49.0455 68.1468 49.0663 68.0573 48.6146 68.2381C47.9347 68.5102 47.4622 69.028 47.3324 69.6431L47.2871 69.858H48.9365H50.5858L50.6499 69.61C50.9291 68.5309 50.9525 68.2814 50.8681 67.2871C50.7403 65.7822 50.7559 65.8369 50.4312 65.7558C49.1402 65.4335 48.2006 64.9824 47.5785 64.3863C47.3412 64.159 47.1412 63.973 47.1339 63.973C47.1265 63.973 47.0242 64.1888 46.9066 64.4524Z" fill="white"/>
</svg>
