<svg width="122" height="32" viewBox="0 0 122 32" fill="none" xmlns="http://www.w3.org/2000/svg">
<path fill-rule="evenodd" clip-rule="evenodd" d="M1.0893 0.214954C0.0674765 4.99393 1.62465 9.59224 5.30114 12.6522C5.65676 12.9482 5.67802 12.9737 5.44581 12.826C2.6238 11.0308 0.872741 8.33958 0.304554 4.92438L0.210087 4.35656L0.187434 4.61733C-0.158287 8.59594 1.94963 12.5034 5.54806 14.5545C5.89794 14.7539 5.86956 14.766 5.44798 14.5973C3.0479 13.6365 1.19641 11.7748 0.168772 9.28887C0.0764174 9.06547 0.000467974 8.89722 5.04579e-06 8.91495C-0.000457883 8.9327 0.0309921 9.104 0.0699359 9.2956C0.765862 12.7223 2.89956 15.2183 6.1185 16.3714C6.30946 16.4399 6.45679 16.4965 6.44591 16.4973C6.3894 16.5015 5.65392 16.3386 5.34127 16.2527C3.49662 15.7457 1.96042 14.6512 0.881507 13.0751C0.665782 12.76 0.653717 12.7472 0.703916 12.8869C1.66279 15.5535 3.84515 17.333 6.77045 17.8336C6.96818 17.8674 7.13674 17.9025 7.14504 17.9115C7.16932 17.938 6.05473 17.8981 5.78577 17.8629C4.28212 17.6657 3.02932 17.0813 2.02888 16.1103L1.81628 15.904L1.89558 16.0636C2.79508 17.8735 4.55618 18.8046 7.44497 18.9977C8.05077 19.0381 8.05548 19.0487 7.50986 19.1429C6.24558 19.3613 4.83735 19.176 3.91236 18.6695C3.66194 18.5324 3.65231 18.5484 3.85727 18.761C3.99357 18.9023 4.02502 18.9594 4.12175 19.2405C5.11774 22.1362 7.51837 24.4817 10.4462 25.4199L10.7811 25.5272L10.8565 25.8365C11.1889 27.1989 11.079 27.6026 10.4353 27.385C9.87444 27.1954 9.57001 27.2591 9.26746 27.6294C9.13141 27.7959 9.15256 27.8082 9.4116 27.7135L9.62608 27.635L9.7759 27.7112L9.92568 27.7873L10.6116 27.7694C11.5336 27.7452 11.4788 27.7779 11.5583 27.2048C11.783 25.5838 11.7315 25.7143 12.1254 25.7692C12.5937 25.8344 13.6654 25.8573 14.1881 25.8133C14.6943 25.7707 14.621 25.7159 14.7124 26.2049C14.9229 27.3313 14.7803 27.6313 14.1591 27.3694C13.7226 27.1852 13.2729 27.2936 13.033 27.6407C12.9276 27.7932 12.9409 27.7988 13.195 27.7093L13.4096 27.6337L13.5543 27.7116L13.699 27.7895L14.4265 27.7655C15.2575 27.7381 15.2591 27.7376 15.2915 27.4988C15.4611 26.2456 15.7218 24.9146 15.8918 24.434L15.9328 24.3179L15.983 24.492C16.1597 25.1046 16.6087 25.4922 17.3156 25.6422C18.2313 25.8366 18.2534 25.8565 18.4572 26.6729C18.5324 26.9745 18.535 26.9579 18.4078 26.9961C18.1453 27.075 17.9219 27.2809 17.837 27.5223C17.7596 27.7422 17.7006 27.727 18.6326 27.727H19.4722L19.4577 27.6617C19.4379 27.5729 19.3052 26.6228 19.2823 26.4069C19.2722 26.3112 19.2461 26.1218 19.2244 25.9862C19.1083 25.2634 19.1695 24.3908 19.4127 23.3002C19.4605 23.0858 19.503 22.8328 19.5071 22.7381L19.5145 22.5658L19.6003 22.616C19.8136 22.7409 19.8021 22.6127 19.8183 25.0578L19.8328 27.2483L19.897 27.3688C19.9816 27.5273 20.1461 27.6605 20.3227 27.7134C20.5787 27.79 24.4278 27.7759 24.5054 27.698C24.6393 27.5637 24.5765 27.5277 23.5719 27.1621C22.4649 26.7592 22.3405 26.7486 22.1995 27.045L22.1512 27.1467H21.3088C20.2593 27.1467 20.397 27.4752 20.397 24.9709V22.8646L20.6035 22.6338C21.8896 21.1965 22.7005 19.5251 23.0121 17.6692L23.0811 17.2583L23.266 17.0454C23.5471 16.7218 24.0136 16.0316 24.0136 15.9393C24.0136 15.9239 23.886 16.0341 23.7301 16.1842C22.5893 17.2823 21.0701 17.8685 19.2686 17.9058C18.6236 17.9191 18.6226 17.9205 19.366 17.775C22.027 17.2543 23.9959 15.651 25.0309 13.1622C25.1932 12.7719 25.1885 12.7535 24.9975 13.0316C23.7767 14.8094 22.0717 15.94 19.9259 16.3949C19.4023 16.5058 19.3446 16.5072 19.6447 16.4015C22.9217 15.2472 25.0666 12.7582 25.7798 9.28252C25.8617 8.8835 25.8492 8.87383 25.7064 9.22588C24.6824 11.7502 22.7908 13.6503 20.3328 14.6237C19.9036 14.7937 19.8886 14.7919 20.2089 14.6088C23.7513 12.5841 25.6656 9.30744 25.6675 5.26524C25.6679 4.49432 25.6352 4.19481 25.5926 4.57791C25.2192 7.93194 23.314 10.9564 20.397 12.8257C20.1502 12.9838 20.1617 12.9698 20.5395 12.653C24.1332 9.63875 25.6818 5.30435 24.835 0.630313C24.7011 -0.10846 24.6955 -0.110781 24.6545 0.555777C24.41 4.52826 23.2541 7.71602 21.2554 9.92975L21.133 10.0654L20.8701 9.74964C16.7665 4.82121 9.00307 5.13923 5.37949 10.3842L5.22412 10.6091L5.11192 10.5002C2.79609 8.25349 1.4455 4.80848 1.18597 0.486116C1.17026 0.224384 1.15287 0.00573725 1.14737 0.000224665C1.14188 -0.00528792 1.11575 0.0913274 1.0893 0.214954ZM14.3644 6.80806C16.806 7.08686 19.0035 8.29429 20.5714 10.2183C20.7829 10.4779 20.786 10.4389 20.5344 10.6853C19.8681 11.3377 19.0743 11.9061 18.198 12.3583C17.6391 12.6468 17.6647 12.6078 17.7261 13.0771C17.9865 15.0678 17.4055 16.9293 16.1497 18.1277L15.8878 18.3776L15.9624 18.4899C17.0673 20.1514 20.4312 20.3426 21.9239 18.8288C22.2217 18.5268 22.2195 18.5241 21.835 18.7173C20.8842 19.1953 19.5377 19.357 18.3171 19.1399C17.804 19.0487 17.79 19.035 18.1853 19.0121C20.1705 18.8969 21.0992 18.6567 22.1619 17.9837C22.494 17.7733 22.474 17.7536 22.369 18.1863C22.0101 19.665 21.2516 21.1265 20.2998 22.1734L20.1701 22.316L19.9725 22.1182C19.8638 22.0094 19.6252 21.8182 19.4422 21.6933C19.2592 21.5684 19.0375 21.4028 18.9496 21.3253C18.5871 21.0057 18.2931 20.8781 17.7566 20.8076C17.0143 20.71 16.3533 20.4324 16.0326 20.0836L15.9159 19.9565L15.9015 20.1062C15.8936 20.1886 15.8733 20.4071 15.8564 20.5918C15.8237 20.9508 15.7475 21.2948 15.6562 21.4959L15.6001 21.6197L15.6157 20.5462C15.6376 19.0492 15.5788 18.4646 15.3451 17.8574C15.2878 17.7085 15.0605 17.1053 14.8401 16.5169C14.3718 15.267 14.4481 15.4027 14.2741 15.5104C14.0796 15.6308 13.8014 15.6978 13.5887 15.6755C13.3573 15.6512 13.2954 15.6136 13.442 15.5863C14.1468 15.4552 14.7014 14.9363 15.0884 14.0461C15.3999 13.3293 15.6232 12.9828 16.0281 12.5878L16.2451 12.3761L16.0281 12.4536C15.7324 12.5592 15.5898 12.6346 15.3247 12.8254C15.0513 13.0223 15.0443 13.0235 15.1654 12.8544C15.5139 12.3679 16.3224 11.9146 16.8419 11.9146C16.9657 11.9146 16.944 11.8741 16.751 11.7448C16.2066 11.3803 15.5721 11.4036 14.9265 11.8118C14.7372 11.9314 14.7285 11.9268 14.8271 11.7581L14.9042 11.6261L14.7645 11.5371C14.1249 11.1296 13.6358 11.2742 12.563 12.1881C11.7239 12.903 11.3897 13.094 10.8642 13.1591L10.7189 13.1771L10.8567 13.3254C11.0817 13.5675 11.4225 13.7134 11.7628 13.7134H11.8926L11.6293 14.0108C10.9863 14.7369 10.3572 16.0011 10.3572 16.5671C10.3572 16.5908 10.5026 16.4612 10.6802 16.2788C10.9935 15.9573 11.095 15.8802 10.9664 16.0613C10.1479 17.2139 10.0484 19.677 10.7292 21.9335C10.7909 22.1381 10.8318 22.2947 10.82 22.2817C10.8082 22.2686 10.6639 22.0556 10.4993 21.8082C10.2791 21.4772 10.197 21.3739 10.1882 21.4166C10.0779 21.9532 10.2939 24.0031 10.535 24.7071C10.6041 24.909 10.6195 24.9059 10.243 24.7669C7.8741 23.8928 5.88854 22.04 4.90343 19.7844C4.73996 19.41 4.73819 19.4197 4.95395 19.5047C6.79455 20.23 9.00443 19.788 9.86113 18.5231L9.95404 18.3859L9.61312 18.0442C8.41625 16.8446 7.89039 15.1147 8.11783 13.125C8.17749 12.603 8.19427 12.6338 7.71914 12.3929C6.94882 12.0022 6.23554 11.5228 5.64678 11C5.6166 10.9732 5.65936 10.8973 5.86045 10.6209C7.5206 8.33879 9.9876 6.97237 12.8165 6.76806C13.0721 6.7496 14.0808 6.77566 14.3644 6.80806ZM13.853 12.2732C13.9544 12.477 13.9244 12.5051 13.4474 12.6542C13.1011 12.7624 13.1013 12.7509 13.4499 12.43C13.8083 12.1001 13.7735 12.1136 13.853 12.2732ZM14.2464 24.5355C14.2725 24.6552 14.3285 24.8604 14.371 24.9916C14.4134 25.1228 14.4423 25.2358 14.4352 25.2427C14.3489 25.327 12.8353 25.3296 12.2234 25.2465C12.0483 25.2228 11.9033 25.2032 11.9012 25.2031C11.899 25.203 11.9346 25.063 11.9804 24.8921C12.0867 24.4945 12.1323 24.0535 12.1069 23.6675L12.087 23.3652L12.3164 23.595C12.6344 23.9134 12.9875 24.1566 13.4964 24.408C14.0744 24.6934 14.0222 24.7195 14.039 24.1366C14.0497 23.7691 14.0662 23.6117 14.1068 23.491L14.1604 23.3315L14.1797 23.8247C14.1904 24.0967 14.2202 24.4155 14.2464 24.5355ZM15.8885 25.3552C15.8379 25.4708 15.7965 25.5746 15.7965 25.5857C15.7966 25.5968 15.9858 25.7323 16.2171 25.8868C16.6958 26.2066 16.6784 26.185 16.7351 26.5274C16.8094 26.9762 16.8183 26.9369 16.6239 27.0162C16.3312 27.1356 16.1277 27.3629 16.0719 27.6327L16.0524 27.727H16.7624H17.4725L17.5001 27.6182C17.6203 27.1447 17.6304 27.0352 17.594 26.599C17.539 25.9387 17.5457 25.9626 17.4059 25.9271C16.8502 25.7857 16.4456 25.5877 16.1778 25.3261C16.0757 25.2264 15.9896 25.1448 15.9864 25.1448C15.9832 25.1448 15.9392 25.2395 15.8885 25.3552Z" fill="#242424"/>
<path fill-rule="evenodd" clip-rule="evenodd" d="M32.5312 10.2235C32.5312 10.3255 32.5712 10.3434 32.7988 10.3434C33.7576 10.3434 33.9943 10.605 35.9169 13.7888L37.5085 16.4243L37.5072 18.5274C37.5055 21.1553 37.4687 21.2719 36.5831 21.4498C35.668 21.6336 36.1544 21.6822 38.7478 21.6659C41.2107 21.6505 41.9123 21.5874 40.9875 21.4648C40.6503 21.42 40.3758 21.2619 40.1825 21.0011C40.0613 20.8376 40.0565 20.7564 40.04 18.6161L40.0229 16.4002L41.6753 13.7683C43.654 10.6165 43.8204 10.4317 44.7477 10.3572C45.0642 10.3319 45.1243 10.3092 45.1243 10.2153C45.1243 10.1085 45.0358 10.1035 43.1454 10.1035C41.2065 10.1035 41.1665 10.1059 41.1665 10.2235C41.1665 10.3172 41.2065 10.3434 41.3494 10.3434C41.7618 10.3434 42.1217 10.77 42.0177 11.1357C41.8733 11.6432 39.5237 15.5677 39.4493 15.4256C39.407 15.3449 38.8721 14.3643 38.2605 13.2466C37.4702 11.8021 37.1487 11.1587 37.1487 11.0217C37.1487 10.6129 37.4095 10.3434 37.8053 10.3434C37.9482 10.3434 37.9882 10.3172 37.9882 10.2235C37.9882 10.1053 37.9482 10.1035 35.2597 10.1035C32.5712 10.1035 32.5312 10.1053 32.5312 10.2235ZM84.5824 10.2228C84.5824 10.3244 84.6219 10.3434 84.832 10.3434C85.8527 10.3434 85.8419 10.2839 85.8404 15.8958C85.8388 21.5377 85.8858 21.255 84.9163 21.4498C83.9068 21.6526 84.4357 21.6816 88.8522 21.6657L93.1221 21.6503L93.4968 20.0007C93.7029 19.0935 93.8729 18.3309 93.8744 18.3062C93.8811 18.1991 93.6829 18.2733 93.6526 18.3892C93.1954 20.1381 92.0392 20.884 89.6945 20.9426L88.3603 20.9759V16.0436C88.3603 11.5957 88.3699 11.091 88.4587 10.904C88.6029 10.5999 88.902 10.3974 89.2739 10.352C90.3819 10.2167 89.6052 10.1336 87.086 10.1179C84.6126 10.1024 84.5824 10.1036 84.5824 10.2228ZM50.4168 11.6073C44.0053 12.2275 43.6428 20.713 49.9825 21.7733C53.6238 22.3823 56.6218 20.592 57.0615 17.5459C57.6044 13.7852 54.7036 11.1926 50.4168 11.6073ZM109.918 11.6503C109.623 11.7254 108.956 11.7462 106.215 11.7661C102.967 11.7896 102.042 11.8538 103.149 11.9786C103.446 12.0121 103.661 12.1414 103.858 12.406C104.039 12.6484 104.054 20.6785 103.874 21.0081C103.739 21.2542 103.479 21.4167 103.136 21.4681C102.195 21.6093 102.879 21.6802 105.181 21.6802C107.489 21.6802 108.119 21.6153 107.235 21.4685C106.431 21.3348 106.411 21.2755 106.41 18.996L106.41 17.1215H107.462C108.966 17.1215 109.462 17.4074 109.467 18.2762C109.468 18.4607 109.49 18.5011 109.588 18.5011C109.706 18.5011 109.708 18.4611 109.708 16.7616C109.708 15.0621 109.706 15.0221 109.588 15.0221C109.488 15.0221 109.469 15.0621 109.469 15.2645C109.469 16.1132 108.959 16.4017 107.462 16.4017H106.41V14.4166V12.4315L107.775 12.4534C109.705 12.4845 110.091 12.7043 110.225 13.848C110.327 14.7127 110.428 14.2214 110.428 12.8627C110.428 11.8428 110.411 11.5449 110.353 11.5509C110.312 11.5552 110.116 11.5999 109.918 11.6503ZM119.993 11.6475C119.697 11.7231 119.039 11.7442 116.32 11.7653C113.497 11.7874 113.007 11.8039 113.007 11.8771C113.007 11.9305 113.069 11.9635 113.172 11.9643C113.507 11.967 113.842 12.1788 113.97 12.4684C114.146 12.8655 114.125 20.7703 113.948 21.041C113.796 21.2727 113.496 21.4398 113.231 21.4401C113.047 21.4403 113.007 21.4617 113.007 21.5603C113.007 21.679 113.047 21.6802 116.87 21.6802H120.734L120.805 21.3353C120.844 21.1457 120.99 20.4573 121.128 19.8058C121.362 18.7113 121.373 18.6211 121.272 18.6211C121.211 18.6211 121.162 18.6563 121.162 18.6993C121.162 19.2305 120.215 20.4043 119.526 20.7274L119.093 20.9305L117.789 20.9505L116.485 20.9706V19.0461V17.1215H117.536C119.04 17.1215 119.537 17.4074 119.542 18.2762C119.543 18.4607 119.564 18.5011 119.663 18.5011C119.78 18.5011 119.783 18.4611 119.783 16.7616C119.783 15.0621 119.78 15.0221 119.663 15.0221C119.566 15.0221 119.543 15.0621 119.543 15.234C119.543 16.1118 119.053 16.3986 117.549 16.4004L116.485 16.4017V14.4166V12.4315L117.849 12.4553C119.806 12.4895 120.12 12.6749 120.295 13.8974C120.408 14.6801 120.502 14.206 120.502 12.8627C120.502 11.8437 120.485 11.5445 120.427 11.5492C120.386 11.5526 120.191 11.5969 119.993 11.6475ZM59.3364 11.8652C59.3364 11.9184 59.4339 11.9584 59.6131 11.9786C60.3516 12.0618 60.3482 12.0447 60.3533 15.7119C60.358 19.0751 60.3684 19.1927 60.7231 19.8956C61.9148 22.257 66.8487 22.6215 68.4666 20.4677C69.1685 19.5332 69.1883 19.4044 69.2158 15.592C69.2412 12.0842 69.2263 12.214 69.6234 12.0479C69.7352 12.0012 69.9085 11.963 70.0085 11.963C70.1301 11.963 70.1904 11.9332 70.1904 11.873C70.1904 11.7954 69.9805 11.783 68.6612 11.783C67.1525 11.783 66.5329 11.8799 67.4092 11.9786C67.6145 12.0018 67.735 12.0585 67.874 12.1975L68.0615 12.3851L68.0781 15.4694C68.0918 18.0166 68.0791 18.6283 68.0054 18.982C67.3941 21.9144 63.5303 21.9956 62.8456 19.0904C62.7092 18.5115 62.7114 12.4712 62.8481 12.2759C62.9766 12.0923 63.2465 11.963 63.5011 11.963C63.6503 11.963 63.7139 11.9361 63.7139 11.873C63.7139 11.7947 63.4308 11.783 61.5252 11.783C59.7119 11.783 59.3364 11.7971 59.3364 11.8652ZM72.4691 11.8695C72.4691 11.9351 72.5276 11.963 72.6649 11.963C72.9728 11.963 73.2619 12.1492 73.4136 12.445L73.5485 12.7082L73.5481 16.6694C73.5478 21.3822 73.554 21.3449 72.7458 21.4662C71.7951 21.6087 72.4638 21.6802 74.7478 21.6802C77.0231 21.6802 77.6584 21.614 76.7717 21.4692C75.9118 21.3289 75.9472 21.5359 75.9472 16.6476V12.5028H76.5399C79.1361 12.5028 79.4529 16.4321 76.8762 16.6736C76.3842 16.7198 76.3224 16.7763 76.6254 16.903C76.8962 17.0161 77.2498 17.4452 77.3727 17.8099C78.3427 20.6861 79.4405 21.5833 82.0848 21.6609C83.3695 21.6985 83.9252 21.5623 83.0167 21.4322C82.3517 21.3371 81.6024 20.5166 80.5591 18.7411C80.2393 18.1969 79.5841 17.4906 79.2198 17.2973L78.9532 17.1558L79.3079 17.0469C81.9164 16.246 81.6868 12.7092 78.9755 11.9233C78.4508 11.7712 72.4691 11.7218 72.4691 11.8695ZM95.9161 11.8652C95.9161 11.9184 96.0136 11.9584 96.1928 11.9786C96.4897 12.0121 96.7043 12.1414 96.9018 12.4059C97.0235 12.5688 97.0257 12.6375 97.0418 16.6311L97.0582 20.6905L96.9219 20.9604C96.7745 21.2524 96.5322 21.4108 96.141 21.4711C95.2403 21.6099 95.9516 21.6802 98.2548 21.6802C100.593 21.6802 101.226 21.6159 100.339 21.4685C100.021 21.4156 99.8264 21.3172 99.634 21.1113L99.4841 20.9508L99.4686 16.7718C99.4535 12.6647 99.4553 12.5894 99.5748 12.3944C99.7124 12.17 100.102 11.9663 100.399 11.9643C100.531 11.9634 100.593 11.9343 100.593 11.873C100.593 11.7946 100.294 11.783 98.2548 11.783C96.3146 11.783 95.9161 11.797 95.9161 11.8652ZM52.5802 12.551C55.2129 13.8559 55.2365 19.6501 52.6141 20.8868C50.4792 21.8937 48.5103 20.537 48.0849 17.7658C47.5107 14.0244 49.9182 11.2316 52.5802 12.551Z" fill="#242424"/>
</svg>
