<svg width="28" height="28" viewBox="0 0 28 28" fill="none" xmlns="http://www.w3.org/2000/svg">
<circle cx="14" cy="14" r="14" fill="white"/>
<path fill-rule="evenodd" clip-rule="evenodd" d="M4.80126 4.1547C4.04963 7.59412 5.19504 10.9035 7.89934 13.1058C8.16092 13.3188 8.17656 13.3372 8.00575 13.2309C5.92998 11.9388 4.64196 10.002 4.22402 7.54406L4.15453 7.1354L4.13787 7.32308C3.88357 10.1865 5.43408 12.9987 8.08096 14.4748C8.33833 14.6183 8.31745 14.6271 8.00735 14.5056C6.24193 13.8142 4.88004 12.4743 4.12414 10.6852C4.05621 10.5244 4.00034 10.4033 4 10.4161C3.99966 10.4288 4.0228 10.5521 4.05144 10.69C4.56334 13.1562 6.13282 14.9526 8.50056 15.7825C8.64102 15.8317 8.74939 15.8725 8.74139 15.8731C8.69983 15.876 8.15883 15.7588 7.92886 15.697C6.57199 15.3321 5.44202 14.5444 4.64841 13.4101C4.48973 13.1834 4.48085 13.1741 4.51778 13.2746C5.22309 15.1938 6.82836 16.4745 8.98011 16.8347C9.12555 16.8591 9.24954 16.8843 9.25565 16.8909C9.27351 16.9099 8.45365 16.8812 8.25582 16.8559C7.14978 16.714 6.22827 16.2933 5.49237 15.5945L5.33599 15.446L5.39432 15.5609C6.05597 16.8635 7.35137 17.5336 9.47626 17.6726C9.92187 17.7017 9.92534 17.7093 9.524 17.7771C8.59403 17.9342 7.55819 17.8009 6.8778 17.4364C6.6936 17.3377 6.68651 17.3492 6.83728 17.5022C6.93754 17.6039 6.96067 17.645 7.03182 17.8474C7.76443 19.9313 9.53026 21.6194 11.6839 22.2946L11.9302 22.3719L11.9857 22.5945C12.2302 23.575 12.1493 23.8655 11.6758 23.7089C11.2633 23.5724 11.0394 23.6183 10.8168 23.8848C10.7168 24.0046 10.7323 24.0135 10.9229 23.9453L11.0806 23.8888L11.1908 23.9436L11.301 23.9984L11.8055 23.9855C12.4837 23.9682 12.4434 23.9916 12.5019 23.5792C12.6672 22.4126 12.6293 22.5065 12.9191 22.546C13.2635 22.5929 14.0518 22.6094 14.4363 22.5778C14.8087 22.5471 14.7547 22.5077 14.8219 22.8596C14.9768 23.6702 14.8719 23.8862 14.415 23.6976C14.0939 23.5651 13.7631 23.6431 13.5866 23.8929C13.5091 24.0027 13.5189 24.0067 13.7058 23.9423L13.8637 23.8879L13.9701 23.9439L14.0765 24L14.6116 23.9827C15.2229 23.963 15.2241 23.9626 15.2479 23.7908C15.3727 22.8889 15.5644 21.931 15.6894 21.5851L15.7196 21.5015L15.7565 21.6268C15.8865 22.0677 16.2168 22.3467 16.7368 22.4546C17.4103 22.5945 17.4266 22.6088 17.5765 23.1964C17.6318 23.4135 17.6337 23.4015 17.5402 23.429C17.347 23.4858 17.1827 23.634 17.1203 23.8077C17.0633 23.966 17.02 23.955 17.7055 23.955H18.3231L18.3124 23.9081C18.2979 23.8441 18.2002 23.1604 18.1834 23.005C18.176 22.9361 18.1568 22.7998 18.1408 22.7022C18.0554 22.182 18.1004 21.554 18.2793 20.7691C18.3145 20.6148 18.3457 20.4327 18.3487 20.3645L18.3542 20.2405L18.4173 20.2766C18.5742 20.3665 18.5658 20.2743 18.5777 22.034L18.5883 23.6105L18.6356 23.6972C18.6978 23.8113 18.8188 23.9072 18.9486 23.9452C19.137 24.0003 21.9683 23.9902 22.0254 23.9342C22.1239 23.8375 22.0776 23.8116 21.3387 23.5484C20.5244 23.2585 20.4329 23.2509 20.3292 23.4642L20.2936 23.5374H19.674C18.902 23.5374 19.0033 23.7738 19.0033 21.9715V20.4556L19.1552 20.2895C20.1012 19.255 20.6977 18.0521 20.9269 16.7164L20.9776 16.4208L21.1137 16.2675C21.3204 16.0346 21.6636 15.5379 21.6636 15.4715C21.6636 15.4604 21.5697 15.5397 21.4551 15.6477C20.6159 16.438 19.4984 16.8599 18.1733 16.8867C17.6989 16.8963 17.6982 16.8974 18.245 16.7926C20.2023 16.4179 21.6506 15.264 22.4119 13.4728C22.5313 13.1919 22.5278 13.1786 22.3873 13.3788C21.4893 14.6582 20.2352 15.472 18.6568 15.7993C18.2717 15.8792 18.2292 15.8802 18.45 15.8041C20.8604 14.9733 22.4382 13.1821 22.9627 10.6806C23.023 10.3934 23.0138 10.3865 22.9087 10.6398C22.1555 12.4566 20.7641 13.8241 18.9561 14.5246C18.6404 14.647 18.6294 14.6456 18.865 14.5139C21.4707 13.0568 22.8787 10.6985 22.8801 7.78937C22.8804 7.23454 22.8564 7.01899 22.825 7.2947C22.5504 9.70859 21.149 11.8853 19.0033 13.2306C18.8218 13.3444 18.8303 13.3343 19.1081 13.1063C21.7515 10.937 22.8906 7.81752 22.2678 4.45363C22.1693 3.92194 22.1652 3.92027 22.135 4.39999C21.9551 7.25898 21.1049 9.55319 19.6347 11.1464L19.5447 11.244L19.3513 11.0168C16.3329 7.46981 10.6223 7.69869 7.95697 11.4735L7.84269 11.6353L7.76016 11.557C6.05671 9.94001 5.06326 7.46064 4.87236 4.34986C4.8608 4.16149 4.84801 4.00413 4.84397 4.00016C4.83993 3.99619 4.82071 4.06573 4.80126 4.1547ZM14.566 8.89974C16.3619 9.10039 17.9784 9.96937 19.1316 11.3541C19.2872 11.5409 19.2895 11.5128 19.1044 11.6902C18.6143 12.1597 18.0304 12.5688 17.3859 12.8942C16.9747 13.1018 16.9935 13.0738 17.0387 13.4116C17.2303 14.8442 16.8029 16.1839 15.8792 17.0464L15.6865 17.2263L15.7414 17.3071C16.5541 18.5029 19.0285 18.6405 20.1265 17.551C20.3455 17.3337 20.3439 17.3317 20.0611 17.4708C19.3617 17.8148 18.3712 17.9312 17.4734 17.7749C17.096 17.7093 17.0857 17.6994 17.3765 17.6829C18.8367 17.6 19.5198 17.4272 20.3015 16.9428C20.5459 16.7914 20.5311 16.7772 20.4538 17.0886C20.1899 18.1528 19.632 19.2047 18.9318 19.9582L18.8365 20.0607L18.6911 19.9184C18.6112 19.8401 18.4356 19.7025 18.301 19.6126C18.1664 19.5227 18.0034 19.4035 17.9387 19.3478C17.672 19.1177 17.4557 19.0259 17.0612 18.9752C16.5151 18.9049 16.0289 18.7051 15.7931 18.4541L15.7072 18.3626L15.6966 18.4704C15.6908 18.5297 15.6758 18.687 15.6634 18.8199C15.6393 19.0782 15.5833 19.3258 15.5162 19.4705L15.4749 19.5596L15.4864 18.787C15.5025 17.7096 15.4592 17.2889 15.2873 16.8519C15.2452 16.7448 15.078 16.3107 14.9159 15.8872C14.5714 14.9876 14.6275 15.0853 14.4995 15.1628C14.3565 15.2494 14.1518 15.2977 13.9954 15.2816C13.8252 15.2641 13.7796 15.2371 13.8875 15.2174C14.4059 15.1231 14.8138 14.7496 15.0985 14.1089C15.3277 13.5931 15.4919 13.3437 15.7897 13.0594L15.9493 12.907L15.7897 12.9628C15.5722 13.0388 15.4673 13.0931 15.2723 13.2304C15.0712 13.3721 15.0661 13.373 15.1551 13.2513C15.4115 12.9011 16.0062 12.5749 16.3883 12.5749C16.4794 12.5749 16.4634 12.5458 16.3215 12.4527C15.921 12.1904 15.4543 12.2071 14.9794 12.5009C14.8402 12.587 14.8338 12.5837 14.9063 12.4623L14.963 12.3673L14.8603 12.3032C14.3898 12.0099 14.03 12.114 13.2409 12.7717C12.6237 13.2863 12.3778 13.4237 11.9913 13.4706L11.8844 13.4835L11.9858 13.5902C12.1513 13.7645 12.402 13.8695 12.6523 13.8695H12.7478L12.5541 14.0836C12.0811 14.6061 11.6184 15.5159 11.6184 15.9233C11.6184 15.9404 11.7253 15.847 11.856 15.7158C12.0865 15.4844 12.1611 15.4289 12.0665 15.5593C11.4645 16.3888 11.3913 18.1614 11.8921 19.7855C11.9374 19.9327 11.9675 20.0455 11.9588 20.0361C11.9501 20.0267 11.844 19.8733 11.723 19.6953C11.561 19.4571 11.5006 19.3827 11.4941 19.4134C11.413 19.7996 11.5719 21.2749 11.7492 21.7816C11.8 21.9269 11.8114 21.9247 11.5344 21.8247C9.79192 21.1956 8.33141 19.8621 7.6068 18.2388C7.48655 17.9693 7.48525 17.9763 7.64395 18.0375C8.99784 18.5595 10.6233 18.2413 11.2535 17.331L11.3218 17.2323L11.0711 16.9863C10.1907 16.123 9.8039 14.878 9.9712 13.446C10.0151 13.0703 10.0274 13.0925 9.67793 12.9191C9.11132 12.6379 8.58665 12.2929 8.15358 11.9166C8.13138 11.8974 8.16283 11.8428 8.31075 11.6438C9.53189 10.0014 11.3465 9.01799 13.4274 8.87095C13.6154 8.85767 14.3573 8.87642 14.566 8.89974ZM14.1898 12.833C14.2644 12.9796 14.2423 12.9999 13.8914 13.1072C13.6368 13.1851 13.6368 13.1768 13.8933 12.9458C14.1569 12.7084 14.1313 12.7181 14.1898 12.833ZM14.4792 21.6581C14.4983 21.7443 14.5396 21.892 14.5708 21.9864C14.602 22.0808 14.6233 22.1621 14.618 22.1671C14.5546 22.2277 13.4412 22.2296 12.9911 22.1698C12.8623 22.1527 12.7557 22.1387 12.7541 22.1386C12.7525 22.1385 12.7787 22.0378 12.8123 21.9148C12.8906 21.6286 12.9241 21.3112 12.9054 21.0334L12.8907 20.8159L13.0595 20.9812C13.2934 21.2104 13.5531 21.3854 13.9275 21.5663C14.3526 21.7718 14.3142 21.7905 14.3266 21.371C14.3344 21.1065 14.3466 20.9933 14.3765 20.9064L14.4159 20.7916L14.4301 21.1465C14.4379 21.3423 14.4599 21.5718 14.4792 21.6581ZM15.6871 22.248C15.6498 22.3313 15.6194 22.4059 15.6194 22.4139C15.6194 22.4219 15.7586 22.5194 15.9287 22.6306C16.2809 22.8608 16.268 22.8453 16.3097 23.0917C16.3644 23.4147 16.371 23.3864 16.228 23.4435C16.0127 23.5294 15.863 23.693 15.8219 23.8872L15.8076 23.955H16.3299H16.8522L16.8725 23.8767C16.9609 23.536 16.9683 23.4572 16.9416 23.1432C16.9011 22.668 16.906 22.6852 16.8032 22.6596C16.3944 22.5579 16.0968 22.4154 15.8999 22.2271C15.8247 22.1554 15.7614 22.0966 15.7591 22.0966C15.7567 22.0966 15.7243 22.1648 15.6871 22.248Z" fill="#333333"/>
</svg>
