<svg width="182" height="48" viewBox="0 0 182 48" fill="none" xmlns="http://www.w3.org/2000/svg">
<path fill-rule="evenodd" clip-rule="evenodd" d="M1.63396 0.322432C0.101215 7.4909 2.43698 14.3884 7.95171 18.9783C8.48514 19.4223 8.51704 19.4606 8.16871 19.2391C3.93569 16.5462 1.30911 12.5094 0.456831 7.38658L0.315131 6.53484L0.281151 6.926C-0.23743 12.8939 2.92444 18.7552 8.32209 21.8317C8.84692 22.1309 8.80434 22.149 8.17197 21.8959C4.57185 20.4548 1.79462 17.6622 0.253157 13.9333C0.114626 13.5982 0.000701961 13.3458 7.56868e-06 13.3724C-0.000686824 13.3991 0.0464881 13.656 0.104904 13.9434C1.14879 19.0834 4.34934 22.8275 9.17775 24.5572C9.46419 24.6598 9.68518 24.7447 9.66886 24.746C9.5841 24.7522 8.48089 24.5079 8.01191 24.379C5.24493 23.6186 2.94063 21.9767 1.32226 19.6127C0.998673 19.14 0.980576 19.1208 1.05587 19.3303C2.49418 23.3303 5.76772 25.9996 10.1557 26.7503C10.4523 26.8011 10.7051 26.8537 10.7176 26.8673C10.754 26.907 9.0821 26.8472 8.67866 26.7943C6.42318 26.4986 4.54398 25.6219 3.04331 24.1655L2.72441 23.856L2.84337 24.0953C4.19262 26.8103 6.83426 28.207 11.1674 28.4965C12.0761 28.5572 12.0832 28.5731 11.2648 28.7144C9.36836 29.0419 7.25602 28.7639 5.86854 28.0042C5.49291 27.7986 5.47846 27.8226 5.7859 28.1415C5.99036 28.3534 6.03753 28.4391 6.18262 28.8608C7.6766 33.2042 11.2776 36.7226 15.6693 38.1299L16.1717 38.2909L16.2848 38.7548C16.7833 40.7984 16.6185 41.4039 15.6529 41.0775C14.8117 40.7931 14.355 40.8887 13.9012 41.4441C13.6971 41.6938 13.7288 41.7123 14.1174 41.5702L14.4391 41.4526L14.6638 41.5668L14.8885 41.6809L15.9174 41.654C17.3003 41.6179 17.2182 41.6668 17.3374 40.8072C17.6745 38.3757 17.5972 38.5714 18.1881 38.6537C18.8906 38.7516 20.498 38.786 21.2821 38.72C22.0415 38.6561 21.9315 38.5739 22.0686 39.3074C22.3843 40.9969 22.1705 41.447 21.2387 41.0541C20.5838 40.7779 19.9093 40.9404 19.5495 41.4611C19.3914 41.6898 19.4113 41.6982 19.7925 41.564L20.1144 41.4505L20.3314 41.5674L20.5484 41.6842L21.6397 41.6482C22.8863 41.6072 22.8887 41.6064 22.9372 41.2482C23.1916 39.3684 23.5827 37.3719 23.8376 36.651L23.8992 36.4769L23.9745 36.738C24.2395 37.6569 24.9131 38.2384 25.9734 38.4634C27.347 38.7548 27.3801 38.7848 27.6857 40.0093C27.7987 40.4618 27.8025 40.4368 27.6117 40.4941C27.2179 40.6124 26.8828 40.9213 26.7554 41.2834C26.6394 41.6133 26.5509 41.5905 27.9489 41.5905H29.2083L29.1865 41.4926C29.1569 41.3593 28.9578 39.9342 28.9235 39.6103C28.9083 39.4667 28.8692 39.1828 28.8365 38.9793C28.6625 37.895 28.7543 36.5862 29.119 34.9504C29.1907 34.6287 29.2544 34.2492 29.2606 34.1071L29.2717 33.8486L29.4004 33.924C29.7204 34.1113 29.7032 33.919 29.7274 37.5867L29.7491 40.8724L29.8455 41.0532C29.9723 41.291 30.2191 41.4908 30.484 41.57C30.8681 41.6849 36.6417 41.6638 36.7582 41.547C36.959 41.3456 36.8647 41.2915 35.3579 40.7431C33.6974 40.1388 33.5107 40.1228 33.2993 40.5675L33.2267 40.7201H31.9632C30.3889 40.7201 30.5954 41.2129 30.5954 37.4563V34.2969L30.9052 33.9507C32.8344 31.7947 34.0507 29.2876 34.5181 26.5037L34.6216 25.8875L34.8991 25.5681C35.3206 25.0827 36.0204 24.0474 36.0204 23.909C36.0204 23.8859 35.829 24.0512 35.5952 24.2763C33.8839 25.9234 31.6051 26.8027 28.9028 26.8587C27.9355 26.8787 27.9339 26.8808 29.0491 26.6625C33.0405 25.8814 35.9939 23.4766 37.5464 19.7433C37.7899 19.1578 37.7828 19.1302 37.4963 19.5474C35.6651 22.214 33.1075 23.9101 29.8888 24.5923C29.1035 24.7587 29.0169 24.7608 29.467 24.6022C34.3825 22.8707 37.5999 19.1373 38.6697 13.9238C38.7925 13.3252 38.7738 13.3107 38.5595 13.8388C37.0236 17.6253 34.1862 20.4755 30.4993 21.9355C29.8555 22.1905 29.8329 22.1878 30.3133 21.9132C35.627 18.8762 38.4984 13.9612 38.5013 7.89785C38.5018 6.74147 38.4528 6.29221 38.3889 6.86686C37.8289 11.8979 34.971 16.4346 30.5954 19.2386C30.2252 19.4758 30.2426 19.4547 30.8092 18.9795C36.1997 14.4581 38.5227 7.95652 37.2525 0.94547C37.0517 -0.16269 37.0433 -0.166172 36.9818 0.833666C36.6149 6.79239 34.8811 11.574 31.8831 14.8946L31.6995 15.098L31.3051 14.6245C25.1497 7.23182 13.5046 7.70885 8.06924 15.5763L7.83619 15.9137L7.66788 15.7504C4.19414 12.3802 2.16825 7.21271 1.77895 0.729174C1.75539 0.336576 1.72931 0.00860587 1.72106 0.000336997C1.71281 -0.00793188 1.67362 0.136991 1.63396 0.322432ZM21.5466 10.2121C25.2089 10.6303 28.5053 12.4414 30.8571 15.3275C31.1744 15.7169 31.179 15.6583 30.8016 16.0279C29.8021 17.0065 28.6115 17.8592 27.2971 18.5375C26.4586 18.9701 26.497 18.9117 26.5891 19.6157C26.9798 22.6017 26.1083 25.3939 24.2245 27.1915L23.8316 27.5664L23.9437 27.7349C25.601 30.2271 30.6468 30.5139 32.8858 28.2432C33.3325 27.7902 33.3292 27.7861 32.7525 28.076C31.3262 28.7929 29.3065 29.0355 27.4756 28.7099C26.706 28.573 26.685 28.5525 27.278 28.5181C30.2558 28.3453 31.6487 27.9851 33.2428 26.9755C33.7411 26.6599 33.7109 26.6305 33.5534 27.2794C33.0152 29.4975 31.8774 31.6897 30.4496 33.2602L30.2552 33.474L29.9588 33.1773C29.7957 33.0141 29.4377 32.7273 29.1632 32.5399C28.8887 32.3525 28.5563 32.1042 28.4245 31.988C27.8807 31.5085 27.4396 31.3171 26.6349 31.2114C25.5214 31.065 24.53 30.6486 24.049 30.1253L23.8738 29.9348L23.8522 30.1594C23.8403 30.2829 23.8099 30.6107 23.7846 30.8878C23.7355 31.4262 23.6212 31.9422 23.4844 32.2438L23.4001 32.4295L23.4236 30.8192C23.4564 28.5737 23.3681 27.6969 23.0176 26.7861C22.9317 26.5628 22.5908 25.658 22.2601 24.7754C21.5576 22.9005 21.6721 23.1041 21.4111 23.2656C21.1194 23.4461 20.7021 23.5467 20.3831 23.5132C20.036 23.4769 19.9431 23.4204 20.163 23.3795C21.2202 23.1828 22.052 22.4045 22.6326 21.0691C23.0999 19.994 23.4348 19.4742 24.0421 18.8817L24.3676 18.5641L24.0421 18.6803C23.5986 18.8388 23.3847 18.9519 22.987 19.2381C22.5769 19.5334 22.5665 19.5353 22.7481 19.2817C23.2708 18.5518 24.4836 17.8719 25.2628 17.8719C25.4486 17.8719 25.416 17.8112 25.1265 17.6173C24.3099 17.0705 23.3581 17.1054 22.3897 17.7176C22.1058 17.8971 22.0928 17.8901 22.2406 17.6372L22.3563 17.4391L22.1468 17.3056C21.1874 16.6943 20.4537 16.9113 18.8446 18.2821C17.5858 19.3545 17.0845 19.6411 16.2963 19.7387L16.0783 19.7657L16.285 19.9881C16.6225 20.3512 17.1338 20.5702 17.6443 20.5702H17.8389L17.4439 21.0163C16.4794 22.1054 15.5358 24.0016 15.5358 24.8506C15.5358 24.8863 15.7538 24.6917 16.0203 24.4182C16.4903 23.936 16.6425 23.8202 16.4496 24.092C15.2219 25.8209 15.0727 29.5154 16.0939 32.9003C16.1864 33.2071 16.2477 33.4421 16.23 33.4225C16.2123 33.4029 15.9959 33.0834 15.749 32.7124C15.4187 32.2158 15.2955 32.0608 15.2823 32.1248C15.1168 32.9298 15.4409 36.0046 15.8025 37.0607C15.9062 37.3635 15.9293 37.3588 15.3646 37.1504C11.8111 35.8392 8.83281 33.06 7.35515 29.6766C7.10994 29.1151 7.10729 29.1295 7.43092 29.2571C10.1918 30.3451 13.5066 29.6819 14.7917 27.7846L14.9311 27.5788L14.4197 27.0663C12.6244 25.2668 11.8356 22.672 12.1767 19.6875C12.2662 18.9045 12.2914 18.9507 11.5787 18.5893C10.4232 18.0033 9.3533 17.2842 8.47016 16.5C8.4249 16.4598 8.48904 16.346 8.79067 15.9314C11.2809 12.5082 14.9814 10.4586 19.2247 10.1521C19.6081 10.1244 21.1211 10.1635 21.5466 10.2121ZM20.7794 18.4098C20.9316 18.7155 20.8866 18.7577 20.171 18.9813C19.6517 19.1436 19.6519 19.1264 20.1749 18.645C20.7125 18.1501 20.6602 18.1705 20.7794 18.4098ZM21.3696 36.8033C21.4087 36.9828 21.4928 37.2907 21.5564 37.4874C21.6201 37.6842 21.6635 37.8537 21.6528 37.8641C21.5234 37.9905 19.2529 37.9944 18.3351 37.8698C18.0725 37.8341 17.855 37.8048 17.8518 37.8046C17.8485 37.8044 17.902 37.5945 17.9705 37.3382C18.1301 36.7417 18.1985 36.0802 18.1603 35.5012L18.1304 35.0478L18.4746 35.3924C18.9516 35.87 19.4812 36.2349 20.2446 36.612C21.1115 37.0401 21.0333 37.0792 21.0585 36.2049C21.0745 35.6536 21.0993 35.4175 21.1601 35.2365L21.2407 34.9972L21.2696 35.737C21.2855 36.145 21.3304 36.6233 21.3696 36.8033ZM23.8328 38.0327C23.7568 38.2062 23.6947 38.3619 23.6948 38.3785C23.6949 38.3952 23.9787 38.5984 24.3256 38.8302C25.0438 39.3099 25.0175 39.2775 25.1026 39.7911C25.2141 40.4643 25.2275 40.4054 24.9358 40.5244C24.4968 40.7034 24.1916 41.0443 24.1078 41.4491L24.0786 41.5905H25.1437H26.2087L26.2501 41.4273C26.4305 40.7171 26.4456 40.5529 26.3911 39.8985C26.3085 38.908 26.3186 38.944 26.1089 38.8906C25.2753 38.6785 24.6684 38.3815 24.2667 37.9892C24.1135 37.8396 23.9843 37.7172 23.9796 37.7172C23.9749 37.7172 23.9088 37.8592 23.8328 38.0327Z" fill="white"/>
<path fill-rule="evenodd" clip-rule="evenodd" d="M48.7969 15.3357C48.7969 15.4888 48.8569 15.5157 49.1982 15.5157C50.6364 15.5157 50.9915 15.908 53.8754 20.6836L56.2627 24.6369L56.2608 27.7916C56.2583 31.7334 56.203 31.9083 54.8746 32.1752C53.5021 32.4508 54.2316 32.5237 58.1217 32.4993C61.8161 32.4762 62.8684 32.3817 61.4812 32.1977C60.9754 32.1305 60.5637 31.8934 60.2738 31.5022C60.092 31.2569 60.0847 31.1352 60.06 27.9246L60.0343 24.6008L62.5129 20.6529C65.481 15.9252 65.7306 15.648 67.1216 15.5364C67.5964 15.4983 67.6864 15.4643 67.6864 15.3234C67.6864 15.1632 67.5537 15.1558 64.718 15.1558C61.8097 15.1558 61.7497 15.1594 61.7497 15.3357C61.7497 15.4763 61.8097 15.5157 62.024 15.5157C62.6427 15.5157 63.1825 16.1556 63.0265 16.704C62.81 17.4653 59.2856 23.3521 59.174 23.1389C59.1106 23.0178 58.3081 21.5469 57.3908 19.8704C56.2053 17.7036 55.723 16.7386 55.723 16.5331C55.723 15.9198 56.1143 15.5157 56.708 15.5157C56.9223 15.5157 56.9823 15.4763 56.9823 15.3357C56.9823 15.1584 56.9223 15.1558 52.8896 15.1558C48.8569 15.1558 48.7969 15.1584 48.7969 15.3357ZM126.874 15.3347C126.874 15.487 126.933 15.5157 127.248 15.5157C128.779 15.5157 128.763 15.4264 128.761 23.8442C128.758 32.3071 128.829 31.883 127.374 32.1752C125.86 32.4794 126.654 32.5228 133.278 32.499L139.683 32.4759L140.245 30.0016C140.554 28.6407 140.809 27.4969 140.812 27.4598C140.822 27.2992 140.524 27.4105 140.479 27.5843C139.793 30.2077 138.059 31.3264 134.542 31.4143L132.54 31.4644V24.0659C132.54 17.394 132.555 16.637 132.688 16.3565C132.904 15.9003 133.353 15.5965 133.911 15.5285C135.573 15.3255 134.408 15.2009 130.629 15.1773C126.919 15.1541 126.874 15.1559 126.874 15.3347ZM75.6252 17.4114C66.0079 18.3417 65.4643 31.0699 74.9738 32.6604C80.4357 33.574 84.9327 30.8885 85.5923 26.3193C86.4066 20.6782 82.0555 16.7893 75.6252 17.4114ZM164.877 17.4759C164.435 17.5886 163.435 17.6198 159.323 17.6497C154.45 17.6849 153.063 17.7811 154.723 17.9684C155.169 18.0186 155.491 18.2126 155.787 18.6094C156.058 18.9731 156.081 31.0182 155.811 31.5126C155.609 31.8818 155.218 32.1255 154.704 32.2026C153.292 32.4144 154.318 32.5209 157.771 32.5209C161.234 32.5209 162.178 32.4235 160.852 32.2032C159.646 32.0027 159.616 31.9137 159.616 28.4945L159.615 25.6828H161.192C163.449 25.6828 164.193 26.1115 164.201 27.4148C164.202 27.6916 164.235 27.7522 164.383 27.7522C164.559 27.7522 164.563 27.6922 164.563 25.1429C164.563 22.5937 164.559 22.5337 164.383 22.5337C164.233 22.5337 164.203 22.5937 164.203 22.8972C164.203 24.1702 163.439 24.6031 161.192 24.6031H159.615V21.6254V18.6477L161.662 18.6806C164.557 18.7272 165.136 19.057 165.338 20.7725C165.49 22.0696 165.642 21.3326 165.642 19.2946C165.642 17.7648 165.616 17.3179 165.53 17.3268C165.468 17.3333 165.174 17.4004 164.877 17.4759ZM179.989 17.4717C179.546 17.5851 178.559 17.6167 174.48 17.6485C170.245 17.6815 169.51 17.7064 169.51 17.8161C169.51 17.8962 169.603 17.9457 169.757 17.9469C170.26 17.951 170.763 18.2687 170.955 18.7031C171.219 19.2987 171.188 31.1559 170.922 31.562C170.694 31.9096 170.244 32.1602 169.847 32.1606C169.57 32.1609 169.51 32.193 169.51 32.3409C169.51 32.519 169.57 32.5209 175.305 32.5209H181.101L181.207 32.0035C181.266 31.719 181.484 30.6864 181.693 29.7091C182.042 28.0675 182.059 27.9321 181.907 27.9321C181.817 27.9321 181.743 27.9849 181.743 28.0494C181.743 28.8463 180.323 30.607 179.289 31.0916L178.64 31.3962L176.683 31.4263L174.727 31.4564V28.5696V25.6828H176.304C178.56 25.6828 179.305 26.1115 179.312 27.4148C179.314 27.6916 179.347 27.7522 179.494 27.7522C179.67 27.7522 179.674 27.6922 179.674 25.1429C179.674 22.5937 179.67 22.5337 179.494 22.5337C179.348 22.5337 179.314 22.5937 179.314 22.8515C179.314 24.1682 178.579 24.5983 176.324 24.6011L174.727 24.6031V21.6254V18.6477L176.773 18.6835C179.708 18.7348 180.18 19.0128 180.443 20.8467C180.611 22.0206 180.754 21.3095 180.754 19.2946C180.754 17.7661 180.728 17.3172 180.641 17.3243C180.579 17.3295 180.286 17.3958 179.989 17.4717ZM89.0046 17.7983C89.0046 17.8781 89.1509 17.938 89.4196 17.9684C90.5274 18.0933 90.5223 18.0675 90.5299 23.5684C90.537 28.6131 90.5526 28.7896 91.0847 29.8439C92.8722 33.386 100.273 33.9327 102.7 30.702C103.753 29.3003 103.782 29.107 103.824 23.3884C103.862 18.1267 103.839 18.3214 104.435 18.0724C104.603 18.0023 104.863 17.945 105.013 17.945C105.195 17.945 105.286 17.9003 105.286 17.81C105.286 17.6936 104.971 17.675 102.992 17.675C100.729 17.675 99.7994 17.8203 101.114 17.9685C101.422 18.0032 101.602 18.0882 101.811 18.2967L102.092 18.5781L102.117 23.2046C102.138 27.0254 102.119 27.9429 102.008 28.4735C101.091 32.8721 95.2955 32.9938 94.2684 28.6361C94.0638 27.7677 94.067 18.7072 94.2721 18.4144C94.4649 18.139 94.8698 17.945 95.2516 17.945C95.4755 17.945 95.5709 17.9047 95.5709 17.81C95.5709 17.6925 95.1462 17.675 92.2877 17.675C89.5678 17.675 89.0046 17.6962 89.0046 17.7983ZM108.704 17.8048C108.704 17.9031 108.791 17.945 108.997 17.945C109.459 17.945 109.893 18.2243 110.12 18.668L110.323 19.0628L110.322 25.0046C110.322 32.0738 110.331 32.0179 109.119 32.1997C107.693 32.4136 108.696 32.5209 112.122 32.5209C115.535 32.5209 116.488 32.4215 115.158 32.2043C113.868 31.9938 113.921 32.3043 113.921 24.9719V18.7547H114.81C118.704 18.7547 119.179 24.6486 115.314 25.0109C114.576 25.0801 114.484 25.165 114.938 25.3549C115.344 25.5247 115.875 26.1683 116.059 26.7153C117.514 31.0297 119.161 32.3754 123.127 32.4918C125.054 32.5483 125.888 32.3439 124.525 32.1488C123.528 32.0061 122.404 30.7753 120.839 28.1122C120.359 27.2958 119.376 26.2364 118.83 25.9464L118.43 25.7343L118.962 25.5709C122.875 24.3694 122.53 19.0643 118.463 17.8854C117.676 17.6573 108.704 17.5832 108.704 17.8048ZM143.874 17.7983C143.874 17.8781 144.02 17.938 144.289 17.9684C144.735 18.0186 145.057 18.2127 145.353 18.6093C145.535 18.8537 145.539 18.9567 145.563 24.9471L145.587 31.0363L145.383 31.4412C145.162 31.8791 144.798 32.1167 144.211 32.2071C142.86 32.4153 143.927 32.5209 147.382 32.5209C150.889 32.5209 151.839 32.4244 150.508 32.2032C150.031 32.1239 149.74 31.9762 149.451 31.6674L149.226 31.4268L149.203 25.1582C149.18 18.9975 149.183 18.8846 149.362 18.5921C149.569 18.2555 150.154 17.9499 150.598 17.9469C150.797 17.9456 150.89 17.9019 150.89 17.81C150.89 17.6923 150.44 17.675 147.382 17.675C144.472 17.675 143.874 17.696 143.874 17.7983ZM78.8703 18.827C82.8194 20.7844 82.8547 29.4756 78.9212 31.3307C75.7188 32.8411 72.7654 30.8059 72.1274 26.6492C71.266 21.037 74.8773 16.8478 78.8703 18.827Z" fill="white"/>
</svg>
