<svg width="10" height="10" viewBox="0 0 10 10" fill="none" xmlns="http://www.w3.org/2000/svg">
<path d="M3.88889 0V1.04938H1.11111V8.39506H8.88889V5.7716H10V8.91975C10 9.05891 9.94147 9.19237 9.83728 9.29077C9.7331 9.38916 9.59179 9.44444 9.44444 9.44444H0.555556C0.408213 9.44444 0.266905 9.38916 0.162718 9.29077C0.0585316 9.19237 0 9.05891 0 8.91975V0.524691C0 0.385535 0.0585316 0.252077 0.162718 0.153679C0.266905 0.0552798 0.408213 0 0.555556 0H3.88889ZM8.10333 1.04938H5.55556V0H10V4.19753H8.88889V1.7913L5 5.46414L4.21445 4.72222L8.10333 1.04938Z" fill="#3985F5"/>
</svg>
