<svg width="9" height="12" viewBox="0 0 9 12" fill="none" xmlns="http://www.w3.org/2000/svg">
<path d="M3.58706 4.395L2.67206 4.728V6.5H1.67206V4.025H1.67956L4.31356 3.066C4.43556 3.0195 4.56856 2.996 4.70456 3.0005C4.97632 3.00728 5.23921 3.09855 5.45669 3.26164C5.67417 3.42473 5.83543 3.65153 5.91806 3.9105C6.01106 4.202 6.09606 4.399 6.17306 4.5015C6.40577 4.81181 6.70759 5.06362 7.05459 5.23694C7.40158 5.41026 7.78419 5.50033 8.17206 5.5V6.5C7.65571 6.50056 7.14566 6.38664 6.67861 6.16643C6.21157 5.94623 5.79916 5.62521 5.47106 5.2265L5.12256 7.2045L6.17206 8.085V11.5H5.17206V8.551L4.03706 7.599L3.67356 9.6625L0.226562 9.055L0.400563 8.07L2.86256 8.504L3.58706 4.395ZM5.42206 2.75C5.15685 2.75 4.90249 2.64464 4.71496 2.45711C4.52742 2.26957 4.42206 2.01522 4.42206 1.75C4.42206 1.48478 4.52742 1.23043 4.71496 1.04289C4.90249 0.855357 5.15685 0.75 5.42206 0.75C5.68728 0.75 5.94163 0.855357 6.12917 1.04289C6.31671 1.23043 6.42206 1.48478 6.42206 1.75C6.42206 2.01522 6.31671 2.26957 6.12917 2.45711C5.94163 2.64464 5.68728 2.75 5.42206 2.75Z" fill="#242424"/>
</svg>
