<svg width="9" height="12" viewBox="0 0 9 12" fill="none" xmlns="http://www.w3.org/2000/svg">
<path d="M3.91519 4.395L3.00019 4.728V6.5H2.00019V4.025H2.00769L4.64169 3.066C4.76369 3.0195 4.89669 2.996 5.03269 3.0005C5.30444 3.00728 5.56733 3.09855 5.78481 3.26164C6.00229 3.42473 6.16356 3.65153 6.24619 3.9105C6.33919 4.202 6.42419 4.399 6.50119 4.5015C6.73389 4.81181 7.03572 5.06362 7.38271 5.23694C7.7297 5.41026 8.11232 5.50033 8.50019 5.5V6.5C7.98384 6.50056 7.47378 6.38664 7.00674 6.16643C6.5397 5.94623 6.12728 5.62521 5.79919 5.2265L5.45069 7.2045L6.50019 8.085V11.5H5.50019V8.551L4.36519 7.599L4.00169 9.6625L0.554688 9.055L0.728688 8.07L3.19069 8.504L3.91519 4.395ZM5.75019 2.75C5.48497 2.75 5.23062 2.64464 5.04308 2.45711C4.85554 2.26957 4.75019 2.01522 4.75019 1.75C4.75019 1.48478 4.85554 1.23043 5.04308 1.04289C5.23062 0.855357 5.48497 0.75 5.75019 0.75C6.0154 0.75 6.26976 0.855357 6.45729 1.04289C6.64483 1.23043 6.75019 1.48478 6.75019 1.75C6.75019 2.01522 6.64483 2.26957 6.45729 2.45711C6.26976 2.64464 6.0154 2.75 5.75019 2.75Z" fill="#AFAFAB"/>
</svg>
