<svg width="8" height="10" viewBox="0 0 8 10" fill="none" xmlns="http://www.w3.org/2000/svg">
<path d="M4.17188 5H5.67188L3.17188 8.5V6H1.67188L4.17188 2.5V5ZM3.17188 2H1.17188V9H6.17188V2H4.17188V1H3.17188V2ZM2.17188 1V0.5C2.17188 0.367392 2.22455 0.240215 2.31832 0.146447C2.41209 0.0526784 2.53927 0 2.67188 0H4.67188C4.80448 0 4.93166 0.0526784 5.02543 0.146447C5.1192 0.240215 5.17188 0.367392 5.17188 0.5V1H6.67188C6.80448 1 6.93166 1.05268 7.02543 1.14645C7.1192 1.24022 7.17188 1.36739 7.17188 1.5V9.5C7.17188 9.63261 7.1192 9.75979 7.02543 9.85355C6.93166 9.94732 6.80448 10 6.67188 10H0.671875C0.539267 10 0.41209 9.94732 0.318322 9.85355C0.224554 9.75979 0.171875 9.63261 0.171875 9.5V1.5C0.171875 1.36739 0.224554 1.24022 0.318322 1.14645C0.41209 1.05268 0.539267 1 0.671875 1H2.17188Z" fill="#242424"/>
</svg>
