<svg width="8" height="10" viewBox="0 0 8 10" fill="none" xmlns="http://www.w3.org/2000/svg">
<path d="M4.5 5H6L3.5 8.5V6H2L4.5 2.5V5ZM3.5 2H1.5V9H6.5V2H4.5V1H3.5V2ZM2.5 1V0.5C2.5 0.367392 2.55268 0.240215 2.64645 0.146447C2.74021 0.0526784 2.86739 0 3 0H5C5.13261 0 5.25979 0.0526784 5.35355 0.146447C5.44732 0.240215 5.5 0.367392 5.5 0.5V1H7C7.13261 1 7.25979 1.05268 7.35355 1.14645C7.44732 1.24022 7.5 1.36739 7.5 1.5V9.5C7.5 9.63261 7.44732 9.75979 7.35355 9.85355C7.25979 9.94732 7.13261 10 7 10H1C0.867392 10 0.740215 9.94732 0.646447 9.85355C0.552679 9.75979 0.5 9.63261 0.5 9.5V1.5C0.5 1.36739 0.552679 1.24022 0.646447 1.14645C0.740215 1.05268 0.867392 1 1 1H2.5Z" fill="#AFAFAB"/>
</svg>
