<svg width="10" height="10" viewBox="0 0 10 10" fill="none" xmlns="http://www.w3.org/2000/svg">
<path d="M5 0C7.7615 0 10 2.2385 10 5C10 7.7615 7.7615 10 5 10C2.2385 10 0 7.7615 0 5C0 2.2385 2.2385 0 5 0ZM5.835 7H4.165L3.475 7.9485L3.752 8.8015C4.15484 8.93343 4.57611 9.00044 5 9C5.4355 9 5.855 8.93 6.248 8.8015L6.5245 7.9485L5.8345 7H5.835ZM1.647 4.436L1.001 4.9045L1 5C1 5.865 1.2745 6.6655 1.741 7.32H2.696L3.3575 6.41L2.8435 4.825L1.647 4.436ZM8.353 4.436L7.1565 4.825L6.6425 6.41L7.3035 7.32H8.2585C8.74191 6.64309 9.00121 5.8318 9 5L8.9985 4.9045L8.353 4.436ZM6.145 1.1665L5.5 1.6365V2.895L6.847 3.8735L7.9665 3.51L8.2435 2.6585C7.72732 1.94394 6.98991 1.41952 6.1455 1.1665H6.145ZM3.854 1.1665C3.00952 1.41966 2.2721 1.94425 1.756 2.659L2.033 3.51L3.1525 3.8735L4.5 2.895V1.6365L3.8545 1.1665H3.854Z" fill="#AFAFAB"/>
</svg>
