<svg width="920" height="1201" viewBox="0 0 920 1201" fill="none" xmlns="http://www.w3.org/2000/svg">
<path opacity="0.6" fill-rule="evenodd" clip-rule="evenodd" d="M-280.5 0H-281V0.5V200V200.5V201V400V400.5V401V600V600.5V601V800V800.5V801V1000V1000.5V1001V1200.5V1201H-280.5H-81H-80.5H-80H119H119.5H120H319H319.5H320H519H519.5H520H719H719.5H720H919.5H920V1200.5V1001V1000.5V1000V801V800.5V800V601V600.5V600V401V400.5V400V201V200.5V200V0.5V0H919.5H720H719.5H719H520H519.5H519H320H319.5H319H120H119.5H119H-80H-80.5H-81H-280.5ZM919 1000V801H720V1000H919ZM719 1000V801H520V1000H719ZM919 1001H720V1200H919V1001ZM719 1200V1001H520V1200H719ZM919 800H720V601H919V800ZM719 601V800H520V601H719ZM919 600V401H720V600H919ZM719 600V401H520V600H719ZM919 400H720V201H919V400ZM719 201V400H520V201H719ZM919 200V1H720V200H919ZM719 200V1H520V200H719ZM519 1000V801H320V1000H519ZM519 1200V1001H320V1200H519ZM519 601V800H320V601H519ZM519 600V401H320V600H519ZM519 201V400H320V201H519ZM519 200V1H320V200H519ZM319 1000V801H120V1000H319ZM319 1200V1001H120V1200H319ZM319 601V800H120V601H319ZM319 600V401H120V600H319ZM319 201V400H120V201H319ZM319 200V1H120V200H319ZM119 1000V801H-80V1000H119ZM119 1200V1001H-80V1200H119ZM119 601V800H-80V601H119ZM119 600V401H-80V600H119ZM119 201V400H-80V201H119ZM119 200V1H-80V200H119ZM-81 1000V801H-280V1000H-81ZM-81 1200V1001H-280V1200H-81ZM-81 601V800H-280V601H-81ZM-81 600V401H-280V600H-81ZM-81 201V400H-280V201H-81ZM-81 200V1H-280V200H-81Z" fill="url(#paint0_radial_39_2444)"/>
<defs>
<radialGradient id="paint0_radial_39_2444" cx="0" cy="0" r="1" gradientUnits="userSpaceOnUse" gradientTransform="translate(319.5 600.5) rotate(90) scale(600.5)">
<stop stop-color="white"/>
<stop offset="1" stop-color="white" stop-opacity="0"/>
</radialGradient>
</defs>
</svg>
