<svg width="32" height="32" viewBox="0 0 32 32" fill="none" xmlns="http://www.w3.org/2000/svg">
<path d="M13.1068 11.72L10.6668 12.608V17.3333H8.00017V10.7333H8.02017L15.0442 8.176C15.3695 8.052 15.7242 7.98933 16.0868 8.00133C16.8115 8.0194 17.5126 8.26281 18.0925 8.69771C18.6725 9.13261 19.1025 9.7374 19.3228 10.428C19.5708 11.2053 19.7975 11.7307 20.0028 12.004C20.6234 12.8315 21.4283 13.503 22.3536 13.9652C23.2789 14.4274 24.2992 14.6675 25.3335 14.6667V17.3333C23.9566 17.3348 22.5964 17.031 21.351 16.4438C20.1055 15.8566 19.0058 15.0006 18.1308 13.9373L17.2015 19.212L20.0002 21.56V30.6667H17.3335V22.8027L14.3068 20.264L13.3375 25.7667L4.14551 24.1467L4.60951 21.52L11.1748 22.6773L13.1068 11.72ZM18.0002 7.33333C17.2929 7.33333 16.6147 7.05238 16.1146 6.55228C15.6145 6.05219 15.3335 5.37391 15.3335 4.66667C15.3335 3.95942 15.6145 3.28115 16.1146 2.78105C16.6147 2.28095 17.2929 2 18.0002 2C18.7074 2 19.3857 2.28095 19.8858 2.78105C20.3859 3.28115 20.6668 3.95942 20.6668 4.66667C20.6668 5.37391 20.3859 6.05219 19.8858 6.55228C19.3857 7.05238 18.7074 7.33333 18.0002 7.33333Z" fill="white"/>
</svg>
