<svg width="490" height="436" viewBox="0 0 490 436" fill="none" xmlns="http://www.w3.org/2000/svg">
<g filter="url(#filter0_d_39_2674)">
<rect x="74" y="74" width="342" height="260" rx="16" fill="#242424"/>
</g>
<g filter="url(#filter1_d_39_2674)">
<rect x="74" y="340" width="342" height="64" rx="16" fill="#242424"/>
</g>
<path d="M152.018 381.288C149.97 381.288 148.442 380.544 147.434 379.056C146.442 377.568 145.946 375.424 145.946 372.624C145.946 369.824 146.442 367.68 147.434 366.192C148.442 364.704 149.97 363.96 152.018 363.96C152.786 363.96 153.45 364.064 154.01 364.272C154.57 364.48 155.05 364.76 155.45 365.112C155.85 365.464 156.186 365.864 156.458 366.312C156.73 366.744 156.97 367.184 157.178 367.632L155.45 368.424C155.306 368.056 155.138 367.712 154.946 367.392C154.754 367.056 154.522 366.768 154.25 366.528C153.994 366.272 153.682 366.072 153.314 365.928C152.962 365.784 152.53 365.712 152.018 365.712C150.69 365.712 149.698 366.216 149.042 367.224C148.402 368.232 148.082 369.576 148.082 371.256V373.992C148.082 375.672 148.402 377.016 149.042 378.024C149.698 379.032 150.69 379.536 152.018 379.536C152.53 379.536 152.962 379.464 153.314 379.32C153.682 379.176 153.994 378.984 154.25 378.744C154.522 378.488 154.754 378.2 154.946 377.88C155.138 377.544 155.306 377.192 155.45 376.824L157.178 377.616C156.97 378.08 156.73 378.528 156.458 378.96C156.186 379.392 155.85 379.784 155.45 380.136C155.05 380.488 154.57 380.768 154.01 380.976C153.45 381.184 152.786 381.288 152.018 381.288ZM160.648 364.248H171.064V381H169.048V366H162.664V381H160.648V364.248ZM184.591 381L183.175 376.224H177.295L175.879 381H173.791L178.927 364.248H181.591L186.727 381H184.591ZM180.343 366.384H180.127L177.775 374.472H182.695L180.343 366.384ZM189.598 381V364.248H195.694C197.246 364.248 198.43 364.672 199.246 365.52C200.062 366.368 200.47 367.552 200.47 369.072C200.47 370.592 200.062 371.776 199.246 372.624C198.43 373.472 197.246 373.896 195.694 373.896H191.614V381H189.598ZM191.614 372.144H195.646C196.494 372.144 197.15 371.936 197.614 371.52C198.094 371.088 198.334 370.48 198.334 369.696V368.448C198.334 367.664 198.094 367.064 197.614 366.648C197.15 366.216 196.494 366 195.646 366H191.614V372.144ZM210.036 366V381H208.02V366H202.428V364.248H215.628V366H210.036ZM227.763 381L226.347 376.224H220.467L219.051 381H216.963L222.099 364.248H224.763L229.899 381H227.763ZM223.515 366.384H223.299L220.947 374.472H225.867L223.515 366.384ZM232.529 364.248H234.545V371.64H237.497L241.049 364.248H243.185L239.993 370.872C239.721 371.432 239.465 371.824 239.225 372.048C238.985 372.256 238.721 372.384 238.433 372.432V372.552C238.785 372.632 239.081 372.8 239.321 373.056C239.561 373.296 239.825 373.744 240.113 374.4L242.273 379.248H243.833V381H242.321C241.841 381 241.417 380.864 241.049 380.592C240.681 380.304 240.361 379.848 240.089 379.224L237.497 373.368H234.545V381H232.529V364.248ZM270.311 372.6V367.296H270.119L266.591 375.912L263.063 367.296H262.871V372.6V381H261.023V364.248H263.615L266.567 371.64H266.711L269.663 364.248H272.159V381H270.311V372.6ZM280.981 381.288C279.957 381.288 279.077 381.096 278.341 380.712C277.605 380.312 276.997 379.744 276.517 379.008C276.037 378.272 275.685 377.368 275.461 376.296C275.237 375.224 275.125 374 275.125 372.624C275.125 371.264 275.237 370.048 275.461 368.976C275.685 367.888 276.037 366.976 276.517 366.24C276.997 365.504 277.605 364.944 278.341 364.56C279.077 364.16 279.957 363.96 280.981 363.96C282.005 363.96 282.885 364.16 283.621 364.56C284.357 364.944 284.965 365.504 285.445 366.24C285.925 366.976 286.277 367.888 286.501 368.976C286.725 370.048 286.837 371.264 286.837 372.624C286.837 374 286.725 375.224 286.501 376.296C286.277 377.368 285.925 378.272 285.445 379.008C284.965 379.744 284.357 380.312 283.621 380.712C282.885 381.096 282.005 381.288 280.981 381.288ZM280.981 379.536C281.653 379.536 282.221 379.408 282.685 379.152C283.149 378.88 283.533 378.504 283.837 378.024C284.141 377.544 284.357 376.968 284.485 376.296C284.629 375.608 284.701 374.84 284.701 373.992V371.256C284.701 370.424 284.629 369.664 284.485 368.976C284.357 368.288 284.141 367.704 283.837 367.224C283.533 366.744 283.149 366.376 282.685 366.12C282.221 365.848 281.653 365.712 280.981 365.712C280.309 365.712 279.741 365.848 279.277 366.12C278.813 366.376 278.429 366.744 278.125 367.224C277.821 367.704 277.597 368.288 277.453 368.976C277.325 369.664 277.261 370.424 277.261 371.256V373.992C277.261 374.84 277.325 375.608 277.453 376.296C277.597 376.968 277.821 377.544 278.125 378.024C278.429 378.504 278.813 378.88 279.277 379.152C279.741 379.408 280.309 379.536 280.981 379.536ZM295.924 381.288C293.876 381.288 292.348 380.544 291.34 379.056C290.348 377.568 289.852 375.424 289.852 372.624C289.852 369.824 290.348 367.68 291.34 366.192C292.348 364.704 293.876 363.96 295.924 363.96C296.692 363.96 297.356 364.064 297.916 364.272C298.476 364.48 298.956 364.76 299.356 365.112C299.756 365.464 300.092 365.864 300.364 366.312C300.636 366.744 300.876 367.184 301.084 367.632L299.356 368.424C299.212 368.056 299.044 367.712 298.852 367.392C298.66 367.056 298.428 366.768 298.156 366.528C297.9 366.272 297.588 366.072 297.22 365.928C296.868 365.784 296.436 365.712 295.924 365.712C294.596 365.712 293.604 366.216 292.948 367.224C292.308 368.232 291.988 369.576 291.988 371.256V373.992C291.988 375.672 292.308 377.016 292.948 378.024C293.604 379.032 294.596 379.536 295.924 379.536C296.436 379.536 296.868 379.464 297.22 379.32C297.588 379.176 297.9 378.984 298.156 378.744C298.428 378.488 298.66 378.2 298.852 377.88C299.044 377.544 299.212 377.192 299.356 376.824L301.084 377.616C300.876 378.08 300.636 378.528 300.364 378.96C300.092 379.392 299.756 379.784 299.356 380.136C298.956 380.488 298.476 380.768 297.916 380.976C297.356 381.184 296.692 381.288 295.924 381.288ZM304.483 364.248H306.499V371.64H309.451L313.003 364.248H315.139L311.947 370.872C311.675 371.432 311.419 371.824 311.179 372.048C310.939 372.256 310.675 372.384 310.387 372.432V372.552C310.739 372.632 311.035 372.8 311.275 373.056C311.515 373.296 311.779 373.744 312.067 374.4L314.227 379.248H315.786V381H314.275C313.795 381 313.371 380.864 313.003 380.592C312.635 380.304 312.315 379.848 312.043 379.224L309.451 373.368H306.499V381H304.483V364.248ZM319.065 364.248H324.753C326.193 364.248 327.321 364.64 328.137 365.424C328.953 366.208 329.361 367.256 329.361 368.568C329.361 369.576 329.113 370.368 328.617 370.944C328.137 371.52 327.513 371.928 326.745 372.168V372.24C327.689 372.464 328.465 372.888 329.073 373.512C329.681 374.12 329.985 375.008 329.985 376.176C329.985 376.848 329.873 377.48 329.649 378.072C329.425 378.664 329.105 379.176 328.689 379.608C328.289 380.04 327.809 380.384 327.249 380.64C326.705 380.88 326.113 381 325.473 381H319.065V364.248ZM324.873 379.248C325.801 379.248 326.529 379.04 327.057 378.624C327.585 378.208 327.849 377.568 327.849 376.704V375.72C327.849 374.872 327.585 374.24 327.057 373.824C326.529 373.392 325.801 373.176 324.873 373.176H321.081V379.248H324.873ZM324.537 371.52C325.385 371.52 326.049 371.336 326.529 370.968C327.009 370.584 327.249 370.008 327.249 369.24V368.304C327.249 367.536 327.009 366.96 326.529 366.576C326.049 366.192 325.385 366 324.537 366H321.081V371.52H324.537ZM342.888 381L341.472 376.224H335.592L334.176 381H332.088L337.224 364.248H339.888L345.024 381H342.888ZM338.64 366.384H338.424L336.072 374.472H340.992L338.64 366.384Z" fill="white"/>
<g filter="url(#filter2_d_39_2674)">
<path fill-rule="evenodd" clip-rule="evenodd" d="M297.536 191.058C326.227 206.821 349.749 219.87 349.749 219.87C349.749 219.87 245.453 277.366 245.194 277.366C245.065 277.366 140.64 219.999 140.64 219.87C140.64 219.87 245.065 162.374 245.194 162.374C245.323 162.245 268.845 175.166 297.536 191.058ZM184.839 186.665C151.754 204.753 124.743 219.612 124.743 219.741C124.743 219.741 244.677 285.764 244.936 285.893C245.065 285.893 365.258 219.87 365.258 219.741C365.258 219.612 245.194 153.718 245.065 153.718C244.936 153.588 217.925 168.447 184.839 186.665Z" fill="#BAFD04"/>
<path fill-rule="evenodd" clip-rule="evenodd" d="M245.97 190.024C251.786 190.541 257.731 192.608 262.254 195.709C262.771 196.096 263.159 196.355 263.159 196.355C263.159 196.355 263.288 195.967 263.546 195.45L263.805 194.546L265.226 193.771L266.648 192.996V206.82H265.356L264.451 205.658C262.9 203.461 260.445 201.135 258.506 199.843C257.601 199.197 256.05 198.422 254.629 197.776C250.881 196.096 247.004 195.45 243.514 195.709C238.215 196.226 233.434 198.164 229.556 201.394C224.904 205.399 221.802 210.955 221.156 217.027C220.897 219.224 221.156 222.583 221.673 224.909C222.965 230.206 225.938 235.374 229.298 237.959C233.563 241.318 237.181 242.997 241.576 243.644C242.997 243.902 246.487 243.902 247.908 243.644C252.432 242.997 256.955 241.189 260.186 238.475C261.608 237.313 263.417 235.374 264.968 233.178L265.614 232.274H267.423V239.767L266.519 240.672C263.288 243.902 258.764 246.486 253.595 248.166C249.976 249.328 247.133 249.845 243.126 249.845C232.917 250.104 225.033 247.52 217.666 241.576C211.98 237.054 208.749 231.24 207.586 223.746C207.327 222.196 207.327 217.803 207.586 216.252C208.49 209.404 211.075 204.107 215.211 200.102C220.51 195.063 226.196 191.962 232.658 190.541C236.665 189.895 241.834 189.636 245.97 190.024ZM200.736 195.45C176.439 208.888 156.536 219.87 156.536 219.87C156.536 219.87 179.541 232.661 185.357 235.762L185.873 236.02L195.696 230.594C201.124 227.622 205.647 225.167 205.647 225.167C205.647 225.167 205.776 225.943 206.035 226.718C207.586 233.566 210.946 238.863 216.632 243.385C218.313 244.677 220.768 246.357 222.448 247.261L223.611 247.907L219.734 250.104C217.537 251.267 215.857 252.3 215.857 252.3C215.986 252.429 244.936 268.321 245.065 268.321C245.065 268.321 333.077 219.999 333.594 219.612C333.723 219.612 305.937 204.236 304.774 203.719C304.515 203.59 304.386 203.59 285.646 213.927L266.907 224.263L266.648 225.426C265.614 229.302 263.676 232.661 260.703 235.633C257.86 238.475 254.629 240.284 250.752 241.189C248.684 241.705 247.391 241.835 245.194 241.835C242.997 241.835 241.705 241.705 239.637 241.189C235.76 240.155 232.658 238.346 229.686 235.633C226.196 232.274 224.128 228.268 223.224 223.229C222.965 221.679 222.965 217.803 223.224 216.252C224.128 211.213 226.196 207.208 229.815 203.849C233.175 200.619 237.311 198.551 242.093 197.776C243.643 197.518 246.745 197.518 248.296 197.776C251.527 198.293 254.758 199.456 257.472 201.265C260.057 202.944 262.512 205.528 264.063 208.112L264.451 208.888H268.845V190.541L271.688 188.99C273.239 188.086 274.532 187.44 274.532 187.44C274.532 187.311 245.324 171.289 245.194 171.289C244.936 171.16 225.033 182.142 200.736 195.45Z" fill="#BAFD04"/>
<path fill-rule="evenodd" clip-rule="evenodd" d="M256.309 231.369C255.792 231.886 254.887 232.661 254.499 232.919C253.595 233.565 252.044 234.47 251.915 234.34C251.915 234.34 252.044 234.082 252.173 233.694C252.432 233.178 252.561 233.048 253.466 232.532C254.629 231.886 256.309 230.852 256.826 230.464C256.955 230.335 257.213 230.206 257.213 230.206C257.213 230.464 256.826 230.852 256.309 231.369ZM234.338 228.785C235.501 230.077 237.052 231.369 238.603 232.015C239.12 232.273 239.637 232.532 239.766 232.532C240.025 232.661 240.154 232.919 240.412 233.953C240.671 234.599 240.8 235.245 240.8 235.245C240.671 235.374 238.991 234.599 238.086 234.211C236.147 233.307 234.597 232.015 233.304 230.464C232.529 229.689 231.753 228.526 231.753 228.397C231.753 228.397 232.141 228.268 232.529 228.139C233.692 228.009 233.563 228.009 234.338 228.785ZM255.533 219.224C254.629 218.707 253.724 218.19 253.724 218.19C253.724 218.19 247.52 222.324 247.52 222.454C247.391 222.583 247.004 229.948 247.133 229.948C247.262 230.077 252.302 232.919 252.432 232.919C252.69 232.919 255.404 231.369 256.696 230.464C258.377 229.172 258.764 228.785 259.023 227.751C259.152 226.717 259.411 223.358 259.281 222.454L259.152 221.549L258.247 220.903C257.73 220.516 256.567 219.74 255.533 219.224ZM244.031 219.87C242.351 218.578 240.929 217.673 240.929 217.544C240.671 217.544 234.467 220.386 234.338 220.645C234.08 221.162 233.95 223.617 233.95 225.555V227.751L234.209 228.139C235.372 229.818 237.828 231.498 239.637 232.144L240.154 232.273L243.385 230.981C245.194 230.206 246.616 229.689 246.616 229.689C246.745 229.56 247.004 222.195 247.004 222.066C247.004 222.195 245.711 221.162 244.031 219.87ZM232.012 211.084C231.495 212.117 230.719 214.314 230.332 215.735C230.073 216.64 229.298 218.319 229.169 217.932C229.169 217.673 229.427 215.993 229.815 214.831C230.202 213.539 231.107 211.859 231.753 210.825C232.012 210.438 232.27 210.05 232.27 210.05C232.399 210.179 232.27 210.567 232.012 211.084ZM255.792 208.241C257.084 209.016 258.377 210.567 259.54 212.763C260.444 214.701 261.091 217.027 261.091 218.707V219.224L260.186 220.128C259.669 220.645 259.152 221.032 259.152 221.032C259.152 221.032 258.506 220.645 257.86 220.257C257.213 219.87 256.05 219.094 255.275 218.578L253.853 217.802L253.466 216.639C252.949 215.089 251.785 211.73 251.527 211.342L251.398 210.955L252.949 209.275C254.758 207.466 254.499 207.466 255.792 208.241ZM241.188 208.629C242.351 209.662 243.256 210.567 243.256 210.567C243.256 210.567 242.739 212.117 242.092 213.926L240.929 217.286L237.569 218.836L234.209 220.386L232.916 219.224C232.27 218.578 231.366 217.802 230.978 217.415L230.332 216.769L230.461 216.123C230.849 214.314 232.27 210.696 233.046 209.662C233.175 209.404 233.692 209.146 234.726 208.629C236.018 207.983 238.861 206.82 238.991 206.82C239.12 206.82 240.025 207.595 241.188 208.629ZM248.167 204.107C247.133 203.978 244.031 203.848 243.256 203.978C241.834 204.236 241.963 204.107 240.671 205.399C240.025 206.045 239.508 206.562 239.508 206.691C239.508 206.691 240.412 207.595 241.575 208.629L243.643 210.438H244.677C246.099 210.309 249.588 210.567 250.493 210.696C251.398 210.825 251.139 211.084 253.078 209.016L254.37 207.595L253.595 206.691C252.949 206.045 252.69 205.786 251.915 205.399C250.751 204.753 249.33 204.365 248.167 204.107ZM243.385 202.815C239.249 203.202 235.114 205.399 232.27 208.5C228.393 213.022 226.971 219.224 228.781 224.909C229.685 227.88 231.495 230.723 233.821 232.79C237.957 236.408 243.385 237.829 248.554 236.795C250.622 236.408 252.949 235.374 254.758 234.211C256.18 233.307 258.506 230.981 259.411 229.56C261.995 225.555 262.9 221.032 261.995 216.51C261.091 211.859 258.247 207.854 254.112 205.27C251.01 203.331 247.262 202.427 243.385 202.815Z" fill="#BAFD04"/>
<path fill-rule="evenodd" clip-rule="evenodd" d="M213.014 126.585C212.238 128.006 211.721 129.169 211.592 129.298C211.592 129.298 206.035 130.203 205.776 130.203C205.776 130.203 206.681 131.107 207.844 132.27L210.041 134.337L209.524 137.309C209.266 138.859 209.007 140.28 209.007 140.28C209.007 140.28 210.17 139.764 211.592 138.988C213.014 138.213 214.177 137.696 214.306 137.696C214.435 137.696 215.469 138.342 217.02 138.988C218.442 139.764 219.605 140.28 219.605 140.28C219.605 140.28 219.476 138.988 219.088 137.309L218.83 134.337L220.897 132.27C222.061 131.107 222.965 130.203 222.965 130.203C222.836 130.203 217.149 129.298 217.149 129.298C217.149 129.298 216.503 128.135 215.857 126.714C215.211 125.293 214.565 124.13 214.565 124.13C214.435 124.001 213.789 125.164 213.014 126.585Z" fill="#BAFD04"/>
<path fill-rule="evenodd" clip-rule="evenodd" d="M233.563 126.584C232.27 129.039 232.27 129.168 232.012 129.297C231.624 129.427 226.454 130.073 226.325 130.073C226.325 130.073 227.23 130.977 228.393 132.14L230.461 134.336L229.944 137.179C229.685 138.729 229.427 140.021 229.556 140.021C229.556 140.021 230.719 139.504 232.141 138.729C233.563 137.954 234.726 137.437 234.855 137.437C234.855 137.437 236.018 138.083 237.569 138.729C238.991 139.504 240.154 140.021 240.154 140.021C240.154 140.021 240.025 138.729 239.766 137.179L239.249 134.336L241.317 132.14C242.48 130.977 243.385 130.073 243.385 130.073C243.256 130.073 237.569 129.168 237.569 129.168C237.569 129.168 236.923 128.005 236.147 126.584C235.501 125.163 234.855 124 234.855 124C234.855 124 234.209 125.163 233.563 126.584Z" fill="#BAFD04"/>
<path fill-rule="evenodd" clip-rule="evenodd" d="M253.983 126.585C253.207 128.006 252.69 129.169 252.561 129.298C252.561 129.298 247.004 130.203 246.745 130.203C246.745 130.203 247.65 131.107 248.813 132.27L251.01 134.337L250.493 137.309C250.235 138.859 249.976 140.28 249.976 140.28C249.976 140.28 251.139 139.764 252.561 138.988C253.983 138.213 255.146 137.696 255.275 137.696C255.275 137.696 256.438 138.342 257.989 138.988C259.411 139.764 260.574 140.28 260.574 140.28C260.574 140.28 260.444 138.988 260.057 137.309L259.669 134.337L261.737 132.27C262.9 131.107 263.805 130.203 263.805 130.203C263.675 130.203 257.989 129.298 257.989 129.298C257.989 129.298 257.343 128.135 256.697 126.714C256.05 125.293 255.404 124.13 255.404 124.13C255.275 124.001 254.758 125.164 253.983 126.585Z" fill="#BAFD04"/>
<path fill-rule="evenodd" clip-rule="evenodd" d="M274.532 126.584C273.239 129.039 273.239 129.168 272.981 129.297C272.593 129.427 267.424 130.073 267.294 130.073C267.294 130.073 268.199 130.977 269.362 132.14L271.43 134.336L270.913 137.179C270.655 138.729 270.396 140.021 270.525 140.021C270.525 140.021 271.689 139.504 273.11 138.729C274.532 137.954 275.695 137.437 275.824 137.437C275.953 137.437 276.987 138.083 278.538 138.729C279.96 139.504 281.123 140.021 281.123 140.021C281.123 140.021 280.994 138.729 280.735 137.179L280.218 134.336L282.286 132.14C283.449 130.977 284.354 130.073 284.354 130.073C284.225 130.073 278.538 129.168 278.538 129.168C278.538 129.168 277.892 128.005 277.117 126.584C276.47 125.163 275.824 124 275.824 124C275.824 124 275.178 125.163 274.532 126.584Z" fill="#BAFD04"/>
</g>
<defs>
<filter id="filter0_d_39_2674" x="50" y="58" width="390" height="308" filterUnits="userSpaceOnUse" color-interpolation-filters="sRGB">
<feFlood flood-opacity="0" result="BackgroundImageFix"/>
<feColorMatrix in="SourceAlpha" type="matrix" values="0 0 0 0 0 0 0 0 0 0 0 0 0 0 0 0 0 0 127 0" result="hardAlpha"/>
<feOffset dy="8"/>
<feGaussianBlur stdDeviation="12"/>
<feComposite in2="hardAlpha" operator="out"/>
<feColorMatrix type="matrix" values="0 0 0 0 0 0 0 0 0 0 0 0 0 0 0 0 0 0 0.3 0"/>
<feBlend mode="normal" in2="BackgroundImageFix" result="effect1_dropShadow_39_2674"/>
<feBlend mode="normal" in="SourceGraphic" in2="effect1_dropShadow_39_2674" result="shape"/>
</filter>
<filter id="filter1_d_39_2674" x="50" y="324" width="390" height="112" filterUnits="userSpaceOnUse" color-interpolation-filters="sRGB">
<feFlood flood-opacity="0" result="BackgroundImageFix"/>
<feColorMatrix in="SourceAlpha" type="matrix" values="0 0 0 0 0 0 0 0 0 0 0 0 0 0 0 0 0 0 127 0" result="hardAlpha"/>
<feOffset dy="8"/>
<feGaussianBlur stdDeviation="12"/>
<feComposite in2="hardAlpha" operator="out"/>
<feColorMatrix type="matrix" values="0 0 0 0 0 0 0 0 0 0 0 0 0 0 0 0 0 0 0.3 0"/>
<feBlend mode="normal" in2="BackgroundImageFix" result="effect1_dropShadow_39_2674"/>
<feBlend mode="normal" in="SourceGraphic" in2="effect1_dropShadow_39_2674" result="shape"/>
</filter>
<filter id="filter2_d_39_2674" x="0.743164" y="0" width="488.514" height="409.894" filterUnits="userSpaceOnUse" color-interpolation-filters="sRGB">
<feFlood flood-opacity="0" result="BackgroundImageFix"/>
<feColorMatrix in="SourceAlpha" type="matrix" values="0 0 0 0 0 0 0 0 0 0 0 0 0 0 0 0 0 0 127 0" result="hardAlpha"/>
<feOffset/>
<feGaussianBlur stdDeviation="62"/>
<feComposite in2="hardAlpha" operator="out"/>
<feColorMatrix type="matrix" values="0 0 0 0 0.729412 0 0 0 0 0.992157 0 0 0 0 0.0156863 0 0 0 0.5 0"/>
<feBlend mode="normal" in2="BackgroundImageFix" result="effect1_dropShadow_39_2674"/>
<feBlend mode="normal" in="SourceGraphic" in2="effect1_dropShadow_39_2674" result="shape"/>
</filter>
</defs>
</svg>
