<svg width="230" height="294" viewBox="0 0 230 294" fill="none" xmlns="http://www.w3.org/2000/svg">
<path opacity="0.6" fill-rule="evenodd" clip-rule="evenodd" d="M-63.5 0H-64V0.5V48.8129V49.3129V49.3131V49.8131V97.6259V98.1259V98.1261V98.6261V146.44V146.939V146.94V147.439V195.253V195.753V195.753V196.253V244.066V244.566V244.566V245.066V293.379V293.879H-63.5H-15.1871H-14.6869H-14.1869H33.6259H34.1261H34.6261H82.4396H82.939H82.9396H83.439H131.253H131.753H132.253H180.066H180.566H181.066H229.379H229.879V293.379V245.066V244.566V244.066V196.253V195.753V195.253V147.439V146.94V146.939V146.44V98.6261V98.1261V97.6259V49.8131V49.3131V48.8129V0.5V0H229.379H181.066H180.566H180.566H180.066H132.253H131.753H131.753H131.253H83.439H82.9396H82.939H82.4396H34.6261H34.1261H34.1259H33.6259H-14.1869H-14.6869H-14.6871H-15.1871H-63.5ZM228.879 244.066V196.253L181.066 196.253V244.066L228.879 244.066ZM180.066 244.066V196.253H132.253V244.066H180.066ZM181.066 292.879L181.066 245.066L228.879 245.066V292.879H181.066ZM180.066 245.066H132.253L132.253 292.879H180.066L180.066 245.066ZM181.066 195.253L228.879 195.253V147.44H181.066V195.253ZM132.253 195.253H180.066V147.44H132.253V195.253ZM132.253 98.6261H180.066V146.439H132.253V98.6261ZM181.066 97.6259L228.879 97.6261V49.8129L181.066 49.8131V97.6259ZM132.253 97.6259H180.066V49.8131H132.253V97.6259ZM228.879 146.439H181.066V98.6261L228.879 98.6259V146.439ZM228.879 48.8131V1H181.066V48.8129L228.879 48.8131ZM180.066 48.8129V1H132.253V48.8129H180.066ZM131.253 244.066V196.253H83.4396V244.066H131.253ZM131.253 245.066H83.4396V292.879H131.253L131.253 245.066ZM83.4396 195.253H131.253V147.44H83.4396V195.253ZM83.4396 98.6261H131.253V146.439H83.4396V98.6261ZM83.4396 97.6259H131.253V49.8131H83.4396V97.6259ZM131.253 48.8129V1H83.4396V48.8129H131.253ZM82.439 244.066V196.253H34.6261V244.066H82.439ZM33.6259 244.066V196.253H-14.1869V244.066H33.6259ZM34.6259 292.879L34.6261 245.066H82.439V292.879H34.6259ZM33.6259 245.066H-14.1869L-14.1871 292.879H33.6261L33.6259 245.066ZM34.6261 195.253H82.439V147.44H34.6261V195.253ZM-14.1869 195.253H33.6259V147.44H-14.1869V195.253ZM-14.1869 98.6261H33.6259V146.439H-14.1869V98.6261ZM34.6261 97.6259H82.439V49.8131H34.6261V97.6259ZM-14.1869 97.6259H33.6259V49.8131H-14.1869V97.6259ZM82.439 146.439H34.6261V98.6261H82.439V146.439ZM82.439 48.8129V1H34.6261V48.8129H82.439ZM33.6259 48.8129V1H-14.1869V48.8129H33.6259ZM-15.1871 244.066V196.253H-63V244.066H-15.1871ZM-15.1871 245.066H-63V292.879H-15.1869L-15.1871 245.066ZM-63 195.253H-15.1871V147.44H-63V195.253ZM-63 98.6261H-15.1871V146.439H-63V98.6261ZM-63 97.6259H-15.1871V49.8131H-63V97.6259ZM-15.1871 48.8129V1H-63V48.8129H-15.1871Z" fill="url(#paint0_radial_185_4225)"/>
<defs>
<radialGradient id="paint0_radial_185_4225" cx="0" cy="0" r="1" gradientUnits="userSpaceOnUse" gradientTransform="translate(82.9393 146.939) rotate(90) scale(146.939)">
<stop stop-color="white"/>
<stop offset="1" stop-color="white" stop-opacity="0"/>
</radialGradient>
</defs>
</svg>
