<svg width="1100" height="1201" viewBox="0 0 1100 1201" fill="none" xmlns="http://www.w3.org/2000/svg">
<path opacity="0.6" fill-rule="evenodd" clip-rule="evenodd" d="M0.5 0H0V0.5V200V200.5V201V400V400.5V401V600V600.5V601V800V800.5V801V1000V1000.5V1001V1200.5V1201H0.5H200H200.5H201H400H400.5H401H600H600.5H601H800H800.5H801H1000H1000.5H1001H1200.5H1201V1200.5V1001V1000.5V1000V800.5V800H1200.5H1001V601H1200H1200.5H1201H1400.5H1401V600.5V400.5V400H1400.5H1201V201V200.5V200V0.5V0H1200.5H1001H1000.5H1000H801H800.5H800H601H600.5H600H401H400.5H400H201H200.5H200H0.5ZM1200 1000V801H1001V1000H1200ZM1000 1000V801H801V1000H1000ZM1200 1001H1001V1200H1200V1001ZM1000 1200V1001H801V1200H1000ZM1000 601V800H801V601H1000ZM1001 600H1200V401H1001V600ZM800 800V601H601V800H800ZM801 600H1000V401H801V600ZM800 600H601V401H800V600ZM1200 201V400H1001V201H1200ZM1400 600H1201V401H1400V600ZM1200 200V1H1001V200H1200ZM1000 200V1H801V200H1000ZM1000 400V201H801V400H1000ZM800 1000V801H601V1000H800ZM800 1200V1001H601V1200H800ZM600 800V601H401V800H600ZM600 600H401V401H600V600ZM800 200V1H601V200H800ZM800 400V201H601V400H800ZM600 1000V801H401V1000H600ZM600 1200V1001H401V1200H600ZM400 800V601H201V800H400ZM400 600H201V401H400V600ZM600 200V1H401V200H600ZM600 400V201H401V400H600ZM400 1000V801H201V1000H400ZM400 1200V1001H201V1200H400ZM200 800V601H1V800H200ZM200 600H1V401H200V600ZM400 200V1H201V200H400ZM400 400V201H201V400H400ZM200 1000V801H1V1000H200ZM200 1200V1001H1V1200H200ZM200 200V1H1V200H200ZM200 400V201H1V400H200Z" fill="url(#paint0_radial_140_2518)"/>
<defs>
<radialGradient id="paint0_radial_140_2518" cx="0" cy="0" r="1" gradientUnits="userSpaceOnUse" gradientTransform="translate(600.5 600.5) rotate(90) scale(600.5 600.5)">
<stop/>
<stop offset="1" stop-opacity="0"/>
</radialGradient>
</defs>
</svg>
