<svg width="26" height="26" viewBox="0 0 26 26" fill="none" xmlns="http://www.w3.org/2000/svg">
<path d="M14.084 18.3495V20.5833H19.5007V22.75H6.50065V20.5833H11.9173V18.3495C9.82291 18.0854 7.89687 17.066 6.50065 15.4827C5.10444 13.8994 4.33402 11.861 4.33398 9.75V3.25H21.6673V9.75C21.6673 11.861 20.8969 13.8994 19.5006 15.4827C18.1044 17.066 16.1784 18.0854 14.084 18.3495ZM6.50065 5.41667V9.75C6.50065 11.4739 7.18547 13.1272 8.40446 14.3462C9.62344 15.5652 11.2767 16.25 13.0007 16.25C14.7246 16.25 16.3779 15.5652 17.5968 14.3462C18.8158 13.1272 19.5007 11.4739 19.5007 9.75V5.41667H6.50065ZM1.08398 5.41667H3.25065V9.75H1.08398V5.41667ZM22.7506 5.41667H24.9173V9.75H22.7506V5.41667Z" fill="#0D51FF"/>
</svg>
