<svg width="24" height="20" viewBox="0 0 24 20" fill="none" xmlns="http://www.w3.org/2000/svg">
<path fill-rule="evenodd" clip-rule="evenodd" d="M5.841 4.36245L3.38313 4.59751C2.55849 4.86489 2 5.6331 2 6.5V16C2 17.1046 2.89543 18 4 18H20C21.1046 18 22 17.1046 22 16V6.5C22 5.6331 21.4415 4.86489 20.6169 4.59751L18.159 4.36245C17.0787 4.01216 16.1675 3.27215 15.603 2.28665C15.5015 2.10937 15.3128 2 15.1085 2H8.89151C8.6872 2 8.49853 2.10937 8.39699 2.28665C7.83253 3.27215 6.92133 4.01216 5.841 4.36245ZM5.22413 2.45996L2.76626 2.69502C1.11699 3.22978 0 4.76619 0 6.5L0 16C0 18.2091 1.79086 20 4 20H20C22.2091 20 24 18.2091 24 16V6.5C24 4.76619 22.883 3.22978 21.2337 2.69502L18.7759 2.45996C18.1683 2.26297 17.6559 1.84683 17.3385 1.29263C16.8806 0.493174 16.0298 0 15.1085 0H8.89151C7.97021 0 7.1194 0.493174 6.6615 1.29263C6.34407 1.84683 5.83166 2.26297 5.22413 2.45996Z" fill="white"/>
<path fill-rule="evenodd" clip-rule="evenodd" d="M12 15C14.2091 15 16 13.2091 16 11C16 8.79086 14.2091 7 12 7C9.79086 7 8 8.79086 8 11C8 13.2091 9.79086 15 12 15ZM12 17C15.3137 17 18 14.3137 18 11C18 7.68629 15.3137 5 12 5C8.68629 5 6 7.68629 6 11C6 14.3137 8.68629 17 12 17Z" fill="white"/>
</svg>
