<svg width="32" height="32" viewBox="0 0 32 32" fill="none" xmlns="http://www.w3.org/2000/svg">
<path d="M15.9993 29.3334C8.63535 29.3334 2.66602 23.364 2.66602 16C2.66602 8.63602 8.63535 2.66669 15.9993 2.66669C23.3633 2.66669 29.3327 8.63602 29.3327 16C29.3327 23.364 23.3633 29.3334 15.9993 29.3334ZM14.666 21.3334V24H17.3327V21.3334H18.666C19.2851 21.3334 19.8919 21.161 20.4185 20.8355C20.945 20.5101 21.3706 20.0444 21.6474 19.4907C21.9243 18.937 22.0415 18.3172 21.9859 17.7007C21.9303 17.0841 21.7041 16.4953 21.3327 16C21.7041 15.5048 21.9303 14.9159 21.9859 14.2994C22.0415 13.6828 21.9243 13.063 21.6474 12.5093C21.3706 11.9556 20.945 11.49 20.4185 11.1645C19.8919 10.8391 19.2851 10.6667 18.666 10.6667H17.3327V8.00002H14.666V10.6667H10.666V21.3334H14.666ZM13.3327 17.3334H18.666C18.8428 17.3334 19.0124 17.4036 19.1374 17.5286C19.2624 17.6536 19.3327 17.8232 19.3327 18C19.3327 18.1768 19.2624 18.3464 19.1374 18.4714C19.0124 18.5965 18.8428 18.6667 18.666 18.6667H13.3327V17.3334ZM13.3327 13.3334H18.666C18.8428 13.3334 19.0124 13.4036 19.1374 13.5286C19.2624 13.6536 19.3327 13.8232 19.3327 14C19.3327 14.1768 19.2624 14.3464 19.1374 14.4714C19.0124 14.5964 18.8428 14.6667 18.666 14.6667H13.3327V13.3334Z" fill="#B9FD02"/>
<path d="M2.66797 15.9998C2.66797 23.3638 8.6373 29.3332 16.0013 29.3332C23.3653 29.3332 29.3346 23.3638 29.3346 15.9998C29.3346 8.63584 23.3653 2.6665 16.0013 2.6665C8.6373 2.6665 2.66797 8.63584 2.66797 15.9998Z" fill="#B9FD02"/>
<path d="M10.6165 17.6977C10.4635 17.9024 10.3338 18.0963 10.185 18.2733C9.97663 18.5184 9.7449 18.7422 9.59396 19.0342C8.9158 20.343 9.73853 21.9865 11.1884 22.2209C11.5413 22.2785 11.8857 22.255 12.2407 22.1506C12.2599 22.2572 12.2747 22.3574 12.2981 22.4554C12.3321 22.6004 12.3683 22.7453 12.4108 22.8881C12.4299 22.9563 12.4257 22.9883 12.347 23.0075C11.3946 23.2441 10.5166 23.0757 9.73215 22.4916C9.04973 21.9843 8.64793 21.2937 8.54163 20.4517C8.42046 19.4819 8.69258 18.6271 9.36862 17.9088C9.43239 17.8427 9.50042 17.7787 9.55357 17.7041C9.60885 17.6231 9.679 17.5997 9.77042 17.6082C10.0021 17.6274 10.236 17.6445 10.4677 17.6636C10.506 17.6658 10.5421 17.6786 10.6165 17.6977Z" fill="#333333"/>
<path d="M14.0376 10.7163C13.8887 10.614 13.7591 10.5373 13.6421 10.4435C13.4657 10.3007 13.302 10.1429 13.1277 10.0001C12.458 9.44592 11.7012 9.31589 10.8976 9.62071C10.1237 9.91487 9.66242 10.4968 9.50723 11.3174C9.44771 11.6265 9.47534 11.9335 9.54762 12.2361C9.55613 12.2724 9.56463 12.3107 9.57314 12.3491C9.30102 12.4131 9.0374 12.4749 8.75253 12.5431C8.72064 12.3875 8.67812 12.2298 8.65899 12.0699C8.54632 11.0382 8.86095 10.1557 9.60715 9.43739C10.0727 8.98976 10.6403 8.72119 11.2802 8.64232C12.2794 8.51869 13.1468 8.81924 13.8717 9.52479C13.8824 9.53545 13.8909 9.54824 13.9036 9.55463C14.1056 9.6676 14.1396 9.84879 14.112 10.0619C14.0971 10.177 14.0971 10.2964 14.0843 10.4115C14.0716 10.4968 14.0567 10.5863 14.0376 10.7163Z" fill="#333333"/>
<path d="M17.7321 21.1893C17.8724 21.2874 18.0191 21.379 18.153 21.4856C18.3103 21.6114 18.4527 21.7563 18.6058 21.8864C19.1203 22.3276 19.7177 22.4981 20.3852 22.4022C21.3419 22.2658 22.0966 21.5005 22.2433 20.5392C22.2943 20.2046 22.2645 19.8742 22.1667 19.5395C22.4346 19.4777 22.7003 19.4159 22.9873 19.3498C23.0086 19.4329 23.0383 19.5246 23.0554 19.6205C23.3062 21.0124 22.6536 22.3361 21.3886 22.9692C20.8933 23.2186 20.3597 23.3145 19.8027 23.2676C19.031 23.2015 18.3932 22.8711 17.8362 22.3425C17.6747 22.189 17.6066 22.0462 17.6385 21.8331C17.6683 21.6242 17.6768 21.4132 17.6938 21.2021C17.7087 21.1979 17.7214 21.1936 17.7321 21.1893Z" fill="#333333"/>
<path d="M17.9432 22.9583C18.1856 23.1096 18.4173 23.2545 18.6575 23.4016C18.4726 23.7384 18.2366 24.0304 17.9432 24.2756C17.4606 24.6827 16.9015 24.9214 16.2786 24.9854C15.7301 25.0408 15.1987 24.9555 14.6969 24.7147C13.8551 24.3118 13.3023 23.6574 13.0324 22.7643C12.9197 22.3891 12.9261 21.999 12.9027 21.6154C12.9005 21.5962 12.909 21.5685 12.9218 21.5578C13.1471 21.3553 13.3725 21.1528 13.5978 20.9503C13.6127 20.9567 13.6276 20.9631 13.6425 20.9695C13.6744 21.1635 13.7126 21.3574 13.7339 21.5536C13.7615 21.8029 13.753 22.0587 13.7956 22.306C13.9252 23.0435 14.3313 23.5892 15.0031 23.9153C15.7578 24.282 16.4997 24.218 17.2055 23.7704C17.5032 23.5807 17.7285 23.3185 17.905 23.0115C17.9177 22.9945 17.9305 22.9774 17.9432 22.9583Z" fill="#333333"/>
<path d="M20.9492 18.2097C21.0534 18.182 21.1235 18.1565 21.1937 18.1479C21.4807 18.1138 21.7698 18.0755 22.0589 18.0605C22.6861 18.0286 23.1984 17.7664 23.6087 17.3038C24.5356 16.2551 24.2444 14.5989 23.022 13.9189C23.0029 13.9082 22.9858 13.8976 22.9646 13.8848C23.1134 13.6482 23.2622 13.4137 23.4153 13.1707C23.6619 13.3029 23.8872 13.4691 24.0892 13.6716C24.6207 14.2045 24.9119 14.8461 24.9863 15.5986C25.1245 17.0182 24.1912 18.3675 22.871 18.781C22.567 18.8769 22.2567 18.9196 21.942 18.9281C21.8995 18.9281 21.8549 18.9196 21.8145 18.9302C21.6359 18.9856 21.5253 18.894 21.4233 18.764C21.2745 18.5806 21.1193 18.408 20.9492 18.2097Z" fill="#333333"/>
<path d="M13.864 9.03708C13.6301 8.89853 13.4133 8.76637 13.1943 8.63848C13.1284 8.60011 13.1688 8.56174 13.1901 8.52338C13.3644 8.22282 13.5812 7.95638 13.8491 7.73683C14.6399 7.0867 15.5413 6.85436 16.5341 7.09309C17.6609 7.3638 18.3964 8.08854 18.7536 9.18629C18.8429 9.45913 18.845 9.75755 18.8854 10.0453C18.8918 10.0986 18.8769 10.154 18.8918 10.2052C18.9385 10.3693 18.8748 10.478 18.7515 10.5782C18.5665 10.7296 18.3879 10.8894 18.2072 11.045C18.1923 11.0386 18.1796 11.0344 18.1647 11.028C18.1328 10.8511 18.0924 10.6763 18.0712 10.4993C18.0371 10.2009 18.0414 9.89398 17.9861 9.59982C17.8139 8.67685 16.9806 7.94785 16.0473 7.86685C15.4584 7.81569 14.9333 7.96917 14.4656 8.32301C14.2466 8.48927 14.0681 8.69603 13.9277 8.93477C13.9065 8.97314 13.8831 9.00724 13.864 9.03708Z" fill="#333333"/>
<path d="M21.1955 14.1298C21.321 13.9593 21.44 13.7845 21.5697 13.6203C21.7483 13.3965 21.9609 13.194 22.1118 12.9532C22.909 11.6806 22.1968 9.98388 20.7384 9.64496C20.3707 9.5597 20.0093 9.56823 19.6457 9.66202C19.6245 9.66841 19.6053 9.67267 19.5841 9.67694C19.5777 9.67907 19.5713 9.67267 19.5564 9.67054C19.5203 9.50428 19.4863 9.33589 19.448 9.16749C19.4331 9.09928 19.4183 9.02681 19.3885 8.96286C19.3502 8.8776 19.3864 8.85202 19.4608 8.83284C20.0794 8.67723 20.6917 8.69641 21.2869 8.92662C22.3584 9.34441 23.0217 10.1288 23.23 11.2586C23.4256 12.3201 23.1046 13.2431 22.352 14.0147C22.3499 14.0168 22.3456 14.0189 22.3456 14.0232C22.2287 14.23 22.0416 14.2577 21.8312 14.2321C21.6292 14.2087 21.4251 14.1937 21.2232 14.1746C21.2125 14.1575 21.204 14.1447 21.1955 14.1298Z" fill="#333333"/>
<path d="M9.03688 18.0127C8.88594 18.2557 8.74138 18.4902 8.58194 18.746C8.42887 18.6373 8.26517 18.535 8.11636 18.4135C7.60827 17.9957 7.26387 17.4649 7.10655 16.8255C6.84506 15.7597 7.07254 14.8026 7.80385 13.9841C8.34596 13.3766 9.03688 13.0462 9.85323 12.9908C10.0233 12.9801 10.1913 12.9695 10.3613 12.9609C10.389 12.9588 10.4272 12.9716 10.4442 12.9929C10.6334 13.2124 10.8205 13.4341 11.0076 13.6558C11.014 13.6622 11.0161 13.675 11.0267 13.7027C10.8758 13.7326 10.7291 13.7731 10.5803 13.7901C10.3698 13.8136 10.1572 13.8263 9.94465 13.8327C8.89232 13.8647 7.95054 14.7429 7.86338 15.7938C7.78259 16.7551 8.16313 17.4884 8.99436 17.985C9.00712 17.9936 9.022 18.0042 9.03688 18.0127Z" fill="#333333"/>
<path d="M18.0938 11.823C18.3404 11.6568 18.5721 11.514 18.7911 11.3521C18.9462 11.237 19.0929 11.1049 19.2311 10.9685C19.9284 10.2887 21.0488 10.521 21.3847 11.4203C21.5058 11.742 21.4952 12.0659 21.3677 12.3856C21.34 12.4538 21.3018 12.4751 21.238 12.4453C21.0318 12.3536 20.8256 12.2599 20.6215 12.1661C20.5704 12.1427 20.5641 12.1107 20.5853 12.0553C20.6725 11.8443 20.6023 11.6227 20.4216 11.5012C20.2367 11.3776 20.0092 11.3968 19.8476 11.5566C19.4884 11.9125 19.0887 12.2151 18.6486 12.4666C18.5147 12.5433 18.5083 12.5454 18.4296 12.4154C18.3127 12.2215 18.2043 12.0191 18.0938 11.823Z" fill="#333333"/>
<path d="M11.4174 19.8613C11.4046 19.8932 11.394 19.9188 11.3855 19.9444C11.3111 20.1447 11.3706 20.3471 11.5407 20.475C11.7086 20.6007 11.9255 20.6007 12.0913 20.4643C12.2337 20.3471 12.357 20.2086 12.5059 20.0999C12.7907 19.8911 13.0884 19.6993 13.3796 19.499C13.4413 19.4564 13.4859 19.4606 13.5242 19.5288C13.6326 19.727 13.7453 19.9252 13.8494 20.1255C13.8622 20.1489 13.8431 20.2129 13.8197 20.2235C13.3881 20.4558 13.0246 20.7712 12.6589 21.093C11.9106 21.7493 10.7541 21.3636 10.5415 20.3897C10.4841 20.1276 10.5032 19.8591 10.6095 19.6056C10.6351 19.5459 10.6648 19.5182 10.7392 19.5395C10.9795 19.6098 11.2048 19.7164 11.4174 19.8613Z" fill="#333333"/>
<path d="M11.8739 10.5572C11.9632 10.5828 12.1248 10.6275 12.2863 10.6723C12.348 10.6893 12.3607 10.7341 12.3374 10.7895C12.2459 11.0004 12.1503 11.2093 12.0567 11.4181C12.0355 11.4671 12.0057 11.4799 11.9483 11.4586C11.7208 11.3733 11.4976 11.4479 11.3807 11.6376C11.2638 11.8294 11.2978 12.0382 11.47 12.2172C11.8293 12.588 12.1375 12.9971 12.3841 13.451C12.4181 13.5128 12.416 13.5512 12.3501 13.5874C12.1545 13.6939 11.9611 13.8026 11.7676 13.9134C11.7102 13.9454 11.6804 13.9284 11.6507 13.8751C11.436 13.4681 11.149 13.1143 10.8365 12.7776C10.3177 12.2151 10.3539 11.3925 10.9066 10.8917C11.1362 10.685 11.4679 10.5593 11.8739 10.5572Z" fill="#333333"/>
<path d="M20.1659 18.077C20.3997 18.4009 20.6081 18.6992 20.827 18.989C20.9291 19.1254 21.0588 19.2383 21.1629 19.3726C21.7178 20.0886 21.3819 21.2777 20.2892 21.4503C20.0596 21.4865 19.83 21.4567 19.6153 21.3565C19.5621 21.3309 19.5302 21.3054 19.5579 21.2436C19.6514 21.0326 19.7428 20.8238 19.8364 20.6128C19.8597 20.5574 19.8959 20.5489 19.9554 20.5702C20.1808 20.6512 20.387 20.5872 20.5082 20.404C20.6315 20.2164 20.6102 20.0033 20.438 19.8201C20.0808 19.4429 19.7641 19.0359 19.5175 18.5777C19.4792 18.5053 19.4792 18.4691 19.5536 18.4264C19.7641 18.3114 19.9745 18.1878 20.1659 18.077Z" fill="#333333"/>
<path d="M23.303 16.0833C23.2796 16.5436 23.016 16.942 22.5121 17.1828C22.4441 17.2148 22.3931 17.2169 22.3612 17.136C22.2868 16.9378 22.2102 16.7396 22.1337 16.5414C22.1039 16.4668 22.121 16.4242 22.2017 16.388C22.3952 16.3006 22.493 16.0897 22.4505 15.8851C22.4101 15.6954 22.2358 15.5399 22.0487 15.5292C21.9296 15.5228 21.8084 15.5164 21.6894 15.5122C21.2706 15.4951 20.8603 15.4205 20.4585 15.3012C20.3905 15.282 20.3649 15.2565 20.3862 15.184C20.4479 14.973 20.5031 14.7621 20.5627 14.549C20.5797 14.4915 20.6052 14.4552 20.6775 14.4787C21.1239 14.6193 21.5831 14.6641 22.0487 14.6768C22.7524 14.6939 23.303 15.2778 23.303 16.0833Z" fill="#333333"/>
<path d="M14.4062 11.4363C14.4658 11.1294 14.5296 10.8545 14.5678 10.5753C14.6018 10.326 14.5912 10.0724 14.6273 9.82312C14.6975 9.31595 14.9866 8.96222 15.4607 8.78535C16.1346 8.53603 16.8213 8.84715 17.1104 9.50987C17.1381 9.5738 17.1381 9.61642 17.0658 9.64199C16.8574 9.72084 16.6512 9.80181 16.445 9.88279C16.3897 9.9041 16.3578 9.89131 16.3302 9.83165C16.2282 9.61216 16.0283 9.51413 15.7987 9.56315C15.5925 9.60576 15.4543 9.7805 15.4501 10.0256C15.4437 10.5285 15.3778 11.0228 15.2417 11.5066C15.2013 11.6493 15.2013 11.6557 15.0632 11.6195C14.8399 11.562 14.6188 11.4959 14.4062 11.4363Z" fill="#333333"/>
<path d="M17.3774 20.6116C17.3243 20.8652 17.2626 21.0911 17.2286 21.3212C17.1946 21.5493 17.1755 21.7794 17.1733 22.0095C17.1648 22.7937 16.5568 23.3798 15.7766 23.3435C15.3004 23.3222 14.8093 22.96 14.6626 22.5146C14.652 22.4847 14.6775 22.4187 14.703 22.408C14.9177 22.3185 15.1367 22.2376 15.3557 22.1587C15.3769 22.1502 15.4301 22.1864 15.4428 22.212C15.5449 22.4208 15.7426 22.5274 15.9658 22.4848C16.172 22.4443 16.3251 22.261 16.3272 22.0309C16.3294 21.5301 16.4016 21.0421 16.5313 20.5605C16.576 20.3964 16.5781 20.39 16.7375 20.4305C16.9501 20.4838 17.1627 20.5498 17.3774 20.6116Z" fill="#333333"/>
<path d="M16.745 12.9816C15.5991 13.1414 14.5213 12.9497 13.4902 12.434C13.5965 12.2464 13.7007 12.076 13.7964 11.8991C13.9069 11.6945 13.9027 11.6945 14.111 11.7862C14.8019 12.0888 15.5226 12.2251 16.2752 12.1761C16.3453 12.1719 16.3815 12.1868 16.4112 12.2571C16.5133 12.4936 16.626 12.728 16.745 12.9816Z" fill="#333333"/>
<path d="M15.0996 18.8488C16.2455 18.6996 17.3233 18.885 18.3523 19.3986C18.2141 19.6458 18.078 19.8866 17.9377 20.138C17.8463 20.0975 17.7528 20.0549 17.655 20.0144C16.9917 19.731 16.2986 19.6202 15.5801 19.6607C15.5057 19.6649 15.4674 19.65 15.4355 19.5776C15.3335 19.3368 15.2187 19.1024 15.0996 18.8488Z" fill="#333333"/>
<path d="M17.5 18.5262C18.1973 17.6013 19.0966 16.9748 20.1893 16.6019C20.2318 16.7681 20.2658 16.9173 20.3062 17.0665C20.3275 17.1475 20.3509 17.2306 20.387 17.3094C20.4253 17.3946 20.4104 17.433 20.3168 17.4628C19.9788 17.5736 19.6642 17.7335 19.3666 17.9274C19.0051 18.1618 18.6799 18.4388 18.3971 18.7627C18.3504 18.816 18.3121 18.8309 18.2441 18.8032C18.0038 18.7094 17.7615 18.6242 17.5 18.5262Z" fill="#333333"/>
<path d="M18.8375 16.8123C18.6121 16.0643 18.9502 14.074 19.3881 13.5668C19.5497 13.6585 19.7112 13.7522 19.8728 13.8439C19.9472 13.8865 20.062 13.9163 20.0854 13.9802C20.1067 14.0356 20.0323 14.1315 19.9982 14.2104C19.6964 14.8944 19.5816 15.6125 19.6177 16.3584C19.6198 16.3946 19.6071 16.4543 19.5837 16.4671C19.3392 16.5843 19.0905 16.6951 18.8375 16.8123Z" fill="#333333"/>
<path d="M12.9009 15.1313C13.1391 15.7876 12.7904 17.8525 12.3546 18.3789C12.1165 18.2446 11.8763 18.1104 11.6445 17.9782C11.7402 17.7204 11.8465 17.4689 11.9294 17.209C12.0952 16.6869 12.1462 16.1478 12.1186 15.6022C12.1144 15.5234 12.1356 15.4829 12.2122 15.4509C12.4418 15.3508 12.6671 15.24 12.9009 15.1313Z" fill="#333333"/>
<path d="M13.4309 17.5421C14.0772 17.8554 15.2061 19.4451 15.3379 20.2292C15.2932 20.242 15.2465 20.2527 15.1997 20.2655C15.0254 20.3145 14.851 20.3571 14.6788 20.4125C14.5385 20.4573 14.5406 20.4636 14.4917 20.3273C14.3663 19.9671 14.192 19.6304 13.9794 19.3151C13.7626 18.9933 13.516 18.6971 13.2183 18.4456C13.1524 18.3902 13.1354 18.3412 13.1694 18.256C13.2523 18.045 13.3225 17.8298 13.399 17.6146C13.4075 17.5933 13.4182 17.5698 13.4309 17.5421Z" fill="#333333"/>
<path d="M16.5859 11.6037C16.7305 11.5696 16.8666 11.5376 17.0026 11.5014C17.1025 11.4737 17.2025 11.4481 17.296 11.4055C17.381 11.3672 17.4002 11.4034 17.4321 11.4737C17.5532 11.7443 17.6702 12.0192 17.8105 12.2813C18.0422 12.7097 18.359 13.0719 18.7225 13.3937C18.782 13.4448 18.799 13.4875 18.7693 13.5642C18.6842 13.7858 18.6098 14.0117 18.5312 14.2354C18.5248 14.2546 18.5141 14.2717 18.4971 14.3036C17.5809 13.5983 16.9473 12.7054 16.5859 11.6037Z" fill="#333333"/>
<path d="M14.2458 22.0136C14.2416 21.9241 14.2395 21.8474 14.2331 21.7707C14.2161 21.5704 14.2033 21.3679 14.1778 21.1676C14.1693 21.0952 14.1863 21.0589 14.2501 21.0248C14.7221 20.7798 15.2195 20.6306 15.751 20.605C15.836 20.6008 15.9211 20.5944 16.0061 20.588C16.0699 20.5837 16.0975 20.605 16.0869 20.6754C16.0529 20.9055 16.0231 21.1378 15.9848 21.3679C15.9806 21.3999 15.9317 21.4489 15.9019 21.4489C15.3088 21.4595 14.7795 21.6535 14.299 21.9923C14.2905 22.0029 14.2799 22.0029 14.2458 22.0136Z" fill="#333333"/>
<path d="M10.2637 19.0358C10.3126 18.9804 10.3508 18.9399 10.387 18.8972C10.5315 18.7268 10.6782 18.5584 10.8164 18.3837C10.8589 18.3283 10.8951 18.3176 10.9588 18.3368C11.5286 18.5137 12.0239 18.812 12.4512 19.2254C12.4874 19.2595 12.5299 19.2872 12.583 19.3277C12.498 19.3895 12.4406 19.4321 12.3832 19.4747C12.2386 19.5834 12.0962 19.6942 11.9538 19.805C11.9134 19.837 11.8857 19.8583 11.8369 19.8136C11.4053 19.4108 10.9014 19.1572 10.3189 19.0571C10.3062 19.0549 10.2956 19.0485 10.2637 19.0358Z" fill="#333333"/>
<path d="M21.554 12.9975C21.4413 13.1211 21.3393 13.2277 21.2436 13.3406C21.1543 13.445 21.0756 13.5601 20.9842 13.6624C20.9608 13.6901 20.9034 13.7114 20.8716 13.7029C20.2508 13.5175 19.7214 13.185 19.2729 12.7205C19.2665 12.7141 19.2622 12.7034 19.2559 12.6928C19.4302 12.5607 19.6066 12.4307 19.781 12.2986C19.8065 12.2794 19.832 12.2602 19.8532 12.2368C19.9043 12.1856 19.9447 12.192 19.9978 12.241C20.4187 12.6395 20.9162 12.8824 21.4859 12.9805C21.5008 12.9783 21.5157 12.9847 21.554 12.9975Z" fill="#333333"/>
<path d="M15.7852 11.3345C15.8192 11.0532 15.8489 10.8018 15.8872 10.5503C15.8915 10.5205 15.9531 10.4822 15.9892 10.48C16.3379 10.4587 16.678 10.3927 16.9969 10.2499C17.1734 10.171 17.3392 10.0645 17.5093 9.97072C17.539 9.95368 17.5667 9.9345 17.6092 9.90466C17.6156 9.95368 17.6198 9.98564 17.6241 10.0197C17.6475 10.2733 17.6708 10.5269 17.6879 10.7805C17.69 10.8146 17.6602 10.8679 17.6305 10.8849C17.2138 11.1129 16.7673 11.2578 16.2933 11.3004C16.1274 11.3175 15.9574 11.3239 15.7852 11.3345Z" fill="#333333"/>
<path d="M19.0093 21.5335C18.9583 21.4887 18.9222 21.4568 18.886 21.4248C18.7096 21.2756 18.5353 21.1265 18.3567 20.9816C18.3099 20.9432 18.2887 20.9112 18.3078 20.8473C18.4949 20.2379 18.8201 19.7137 19.2687 19.264C19.2815 19.2512 19.2985 19.2448 19.3176 19.2321C19.4324 19.3876 19.5472 19.5389 19.6599 19.6923C19.7109 19.7627 19.8002 19.8351 19.8023 19.9054C19.8023 19.9694 19.7066 20.0354 19.6514 20.1015C19.324 20.5021 19.1135 20.956 19.0264 21.4674C19.0242 21.4866 19.0178 21.4994 19.0093 21.5335Z" fill="#333333"/>
<path d="M22.0361 17.6461C21.9638 17.6547 21.9107 17.6611 21.8575 17.6653C21.6258 17.6845 21.3941 17.7058 21.1624 17.7207C21.1283 17.7229 21.0752 17.693 21.0582 17.6611C20.8328 17.2413 20.6925 16.7938 20.6436 16.3186C20.6288 16.1822 20.6309 16.0415 20.6203 15.9052C20.6139 15.8242 20.633 15.7901 20.7266 15.8071C20.9391 15.8434 21.1517 15.8711 21.3665 15.8966C21.4409 15.9052 21.4557 15.9456 21.4579 16.0096C21.4834 16.5295 21.6279 17.0133 21.9086 17.4544C21.9468 17.514 21.9872 17.5716 22.0361 17.6461Z" fill="#333333"/>
<path d="M12.6249 12.6625C12.457 12.4387 12.2933 12.2214 12.1211 11.9934C12.5548 11.5459 12.8269 11.011 12.9268 10.376C12.9651 10.4015 12.9885 10.4165 13.0076 10.4335C13.2053 10.5997 13.403 10.7659 13.5965 10.9364C13.622 10.9577 13.6432 11.0131 13.6347 11.0408C13.4477 11.6609 13.1245 12.1979 12.6568 12.6476C12.6504 12.654 12.6398 12.6561 12.6249 12.6625Z" fill="#333333"/>
<path d="M9.80078 14.3239C10.0431 14.3048 10.2749 14.2877 10.5066 14.2685C10.5172 14.2685 10.5278 14.2685 10.5385 14.2664C10.7489 14.2451 10.7511 14.2451 10.8404 14.4326C11.0827 14.9398 11.2081 15.4747 11.206 16.0372C11.206 16.0649 11.2039 16.0948 11.2018 16.1225C11.1996 16.1331 11.1933 16.1416 11.1826 16.1608C11.0359 16.1374 10.8871 16.1139 10.7362 16.0905C10.6533 16.0777 10.5682 16.0649 10.4832 16.0628C10.3982 16.0607 10.3684 16.0308 10.3663 15.9435C10.3493 15.4896 10.2302 15.0613 10.0112 14.6628C9.9496 14.5498 9.87519 14.4433 9.80078 14.3239Z" fill="#333333"/>
</svg>
