<svg width="26" height="26" viewBox="0 0 26 26" fill="none" xmlns="http://www.w3.org/2000/svg">
<path d="M10.6483 9.5225L8.66577 10.244V14.0833H6.4991V8.72083H6.51535L12.2224 6.643C12.4867 6.54225 12.7749 6.49133 13.0695 6.50108C13.6583 6.51577 14.2279 6.71353 14.6991 7.06689C15.1703 7.42025 15.5197 7.91164 15.6988 8.47275C15.9003 9.10433 16.0844 9.53117 16.2513 9.75325C16.7555 10.4256 17.4094 10.9712 18.1612 11.3467C18.9131 11.7222 19.742 11.9174 20.5824 11.9167V14.0833C19.4637 14.0845 18.3586 13.8377 17.3466 13.3606C16.3347 12.8835 15.4411 12.188 14.7303 11.3241L13.9752 15.6097L16.2491 17.5175V24.9167H14.0824V18.5272L11.6233 16.4645L10.8357 20.9354L3.36719 19.6192L3.74419 17.485L9.07852 18.4253L10.6483 9.5225ZM14.6241 5.95833C14.0495 5.95833 13.4984 5.73006 13.092 5.32373C12.6857 4.9174 12.4574 4.3663 12.4574 3.79167C12.4574 3.21703 12.6857 2.66593 13.092 2.2596C13.4984 1.85327 14.0495 1.625 14.6241 1.625C15.1987 1.625 15.7498 1.85327 16.1562 2.2596C16.5625 2.66593 16.7908 3.21703 16.7908 3.79167C16.7908 4.3663 16.5625 4.9174 16.1562 5.32373C15.7498 5.73006 15.1987 5.95833 14.6241 5.95833Z" fill="#0D51FF"/>
</svg>
