<svg width="20" height="28" viewBox="0 0 20 28" fill="none" xmlns="http://www.w3.org/2000/svg">
<path d="M11.3327 14.0003H15.3327L8.66602 23.3337V16.667H4.66602L11.3327 7.33366V14.0003ZM8.66602 6.00033H3.33268V24.667H16.666V6.00033H11.3327V3.33366H8.66602V6.00033ZM5.99935 3.33366V2.00033C5.99935 1.6467 6.13983 1.30756 6.38987 1.05752C6.63992 0.807468 6.97906 0.666992 7.33268 0.666992H12.666C13.0196 0.666992 13.3588 0.807468 13.6088 1.05752C13.8589 1.30756 13.9993 1.6467 13.9993 2.00033V3.33366H17.9993C18.353 3.33366 18.6921 3.47413 18.9422 3.72418C19.1922 3.97423 19.3327 4.31337 19.3327 4.66699V26.0003C19.3327 26.3539 19.1922 26.6931 18.9422 26.9431C18.6921 27.1932 18.353 27.3337 17.9993 27.3337H1.99935C1.64573 27.3337 1.30659 27.1932 1.05654 26.9431C0.806492 26.6931 0.666016 26.3539 0.666016 26.0003V4.66699C0.666016 4.31337 0.806492 3.97423 1.05654 3.72418C1.30659 3.47413 1.64573 3.33366 1.99935 3.33366H5.99935Z" fill="#242424"/>
</svg>
