<svg width="22" height="29" viewBox="0 0 22 29" fill="none" xmlns="http://www.w3.org/2000/svg">
<path d="M9.10586 9.72L6.66586 10.608V15.3333H3.9992V8.73333H4.0192L11.0432 6.176C11.3685 6.052 11.7232 5.98933 12.0859 6.00133C12.8105 6.0194 13.5116 6.26281 14.0915 6.69771C14.6715 7.13261 15.1015 7.7374 15.3219 8.428C15.5699 9.20533 15.7965 9.73067 16.0019 10.004C16.6224 10.8315 17.4273 11.503 18.3526 11.9652C19.2779 12.4274 20.2982 12.6675 21.3325 12.6667V15.3333C19.9556 15.3348 18.5954 15.031 17.35 14.4438C16.1046 13.8566 15.0048 13.0006 14.1299 11.9373L13.2005 17.212L15.9992 19.56V28.6667H13.3325V20.8027L10.3059 18.264L9.33653 23.7667L0.144531 22.1467L0.608531 19.52L7.17386 20.6773L9.10586 9.72ZM13.9992 5.33333C13.292 5.33333 12.6137 5.05238 12.1136 4.55228C11.6135 4.05219 11.3325 3.37391 11.3325 2.66667C11.3325 1.95942 11.6135 1.28115 12.1136 0.781048C12.6137 0.280951 13.292 0 13.9992 0C14.7064 0 15.3847 0.280951 15.8848 0.781048C16.3849 1.28115 16.6659 1.95942 16.6659 2.66667C16.6659 3.37391 16.3849 4.05219 15.8848 4.55228C15.3847 5.05238 14.7064 5.33333 13.9992 5.33333Z" fill="#242424"/>
</svg>
