<svg width="28" height="28" viewBox="0 0 28 28" fill="none" xmlns="http://www.w3.org/2000/svg">
<path d="M13.9993 0.666992C21.3633 0.666992 27.3327 6.63633 27.3327 14.0003C27.3327 21.3643 21.3633 27.3337 13.9993 27.3337C6.63535 27.3337 0.666016 21.3643 0.666016 14.0003C0.666016 6.63633 6.63535 0.666992 13.9993 0.666992ZM16.226 19.3337H11.7727L9.93268 21.863L10.6713 24.1377C11.7456 24.4895 12.869 24.6682 13.9993 24.667C15.1607 24.667 16.2793 24.4803 17.3274 24.1377L18.0647 21.863L16.2247 19.3337H16.226ZM5.05802 12.4963L3.33535 13.7457L3.33268 14.0003C3.33268 16.307 4.06468 18.4417 5.30868 20.187H7.85535L9.61935 17.7603L8.24868 13.5337L5.05802 12.4963ZM22.9407 12.4963L19.75 13.5337L18.3793 17.7603L20.142 20.187H22.6887C23.9778 18.3819 24.6692 16.2185 24.666 14.0003L24.662 13.7457L22.9407 12.4963ZM17.0527 3.77766L15.3327 5.03099V8.38699L18.9247 10.9963L21.91 10.027L22.6487 7.75633C21.2722 5.85082 19.3058 4.45239 17.054 3.77766H17.0527ZM10.9433 3.77766C8.69141 4.45274 6.72496 5.85166 5.34868 7.75766L6.08735 10.027L9.07268 10.9963L12.666 8.38699V5.03099L10.9447 3.77766H10.9433Z" fill="#242424"/>
</svg>
