<svg width="96" height="96" viewBox="0 0 96 96" fill="none" xmlns="http://www.w3.org/2000/svg">
<g clip-path="url(#clip0_95_2413)">
<path d="M19.2798 57.0429C18.4633 58.1342 17.7715 59.1686 16.9776 60.1121C15.8662 61.4194 14.6301 62.613 13.8249 64.1704C10.2072 71.1502 14.5961 79.9146 22.3305 81.1651C24.2131 81.472 26.0503 81.347 27.9442 80.79C28.0463 81.3583 28.1257 81.8926 28.2504 82.4155C28.4319 83.1885 28.6246 83.9615 28.8515 84.7232C28.9535 85.0869 28.9309 85.2575 28.5112 85.3598C23.4306 86.6216 18.7468 85.7235 14.562 82.6088C10.9216 79.9033 8.77822 76.2202 8.21118 71.7299C7.56476 66.5576 9.01638 61.9992 12.6228 58.1683C12.963 57.8159 13.3259 57.4748 13.6094 57.077C13.9043 56.645 14.2785 56.52 14.7662 56.5654C16.0023 56.6677 17.2498 56.7587 18.486 56.861C18.6901 56.8724 18.8829 56.9406 19.2798 57.0429Z" fill="#313BDB"/>
<path d="M37.5279 19.8126C36.734 19.267 36.0422 18.8577 35.4185 18.3575C34.4772 17.5959 33.604 16.7547 32.674 15.9931C29.1016 13.0375 25.0643 12.344 20.7775 13.9696C16.6494 15.5384 14.1885 18.6417 13.3606 23.0183C13.0431 24.6666 13.1905 26.3035 13.5761 27.9177C13.6214 28.111 13.6668 28.3156 13.7122 28.5202C12.2605 28.8613 10.8543 29.1909 9.33461 29.5547C9.1645 28.7249 8.93768 27.8836 8.83561 27.0311C8.23455 21.5291 9.91299 16.8229 13.8936 12.992C16.3773 10.6048 19.4052 9.17247 22.8188 8.75186C28.149 8.09254 32.7761 9.69538 36.6433 13.4581C36.7 13.5149 36.7454 13.5831 36.8134 13.6172C37.8908 14.2197 38.0722 15.186 37.9248 16.3227C37.8454 16.9366 37.8454 17.5732 37.7774 18.187C37.7093 18.6417 37.6299 19.1192 37.5279 19.8126Z" fill="#313BDB"/>
<path d="M57.2381 75.6638C57.9866 76.1867 58.7691 76.6755 59.4836 77.2439C60.3228 77.9146 61.0826 78.6876 61.8992 79.381C64.6436 81.7341 67.8304 82.6436 71.3914 82.132C76.4948 81.4045 80.5208 77.3235 81.3033 72.1967C81.5755 70.4119 81.4167 68.65 80.895 66.8652C82.324 66.5356 83.7416 66.2059 85.2726 65.8535C85.386 66.2969 85.5448 66.7857 85.6355 67.2972C86.9737 74.7203 83.4921 81.7796 76.7443 85.1558C74.1019 86.4858 71.2553 86.9974 68.284 86.7473C64.1673 86.3949 60.7651 84.6329 57.7938 81.8137C56.9319 80.9952 56.569 80.2336 56.7391 79.0968C56.8979 77.9828 56.9432 76.8574 57.034 75.732C57.1133 75.7093 57.1814 75.6865 57.2381 75.6638Z" fill="#313BDB"/>
<path d="M58.3601 85.098C59.6529 85.9051 60.8891 86.6781 62.1706 87.4625C61.1839 89.2586 59.9251 90.8159 58.3601 92.1232C55.7857 94.2944 52.8031 95.5676 49.4802 95.9086C46.5543 96.2042 43.7191 95.7495 41.0426 94.4649C36.5517 92.3165 33.6031 88.8266 32.1628 84.0635C31.5617 82.0628 31.5957 79.9825 31.471 77.9364C31.4596 77.834 31.505 77.6863 31.573 77.6294C32.7752 76.5495 33.9773 75.4696 35.1794 74.3896C35.2588 74.4238 35.3382 74.4579 35.4176 74.492C35.5877 75.5264 35.7918 76.5609 35.9052 77.6067C36.0527 78.9367 36.0073 80.3008 36.2341 81.6195C36.9259 85.5527 39.092 88.4628 42.6757 90.2021C46.7017 92.1573 50.6596 91.8163 54.4248 89.4291C56.0125 88.4173 57.2146 87.0191 58.1559 85.3822C58.224 85.2912 58.292 85.2003 58.3601 85.098Z" fill="#E9F205"/>
<path d="M74.4077 59.7726C74.9634 59.6248 75.3377 59.4884 75.7119 59.4429C77.2429 59.2611 78.7853 59.0564 80.3276 58.9769C83.6732 58.8063 86.4063 57.4081 88.5951 54.9413C93.5397 49.3484 91.986 40.5158 85.465 36.8895C85.3629 36.8326 85.2722 36.7758 85.1588 36.7076C85.9527 35.4458 86.7465 34.1953 87.5631 32.8994C88.8786 33.6042 90.0807 34.4909 91.1581 35.5708C93.9933 38.4127 95.547 41.8344 95.9439 45.8472C96.6811 53.4181 91.7025 60.6138 84.6598 62.8191C83.0381 63.3307 81.3823 63.558 79.7039 63.6035C79.4771 63.6035 79.2389 63.558 79.0234 63.6149C78.0708 63.9104 77.4811 63.4216 76.9367 62.7282C76.1429 61.7506 75.315 60.8298 74.4077 59.7726Z" fill="#E9F205"/>
<path d="M36.6092 10.856C35.3617 10.1171 34.2049 9.41227 33.0368 8.73021C32.6853 8.52559 32.9007 8.32097 33.0141 8.11635C33.9441 6.51351 35.1009 5.09256 36.5298 3.92169C40.7486 0.454546 45.5571 -0.78453 50.8532 0.488649C56.8639 1.93234 60.7878 5.79735 62.6931 11.6517C63.1694 13.1068 63.1807 14.6982 63.3962 16.2329C63.4302 16.5171 63.3508 16.8126 63.4302 17.0854C63.6797 17.9608 63.3395 18.5405 62.6817 19.0748C61.6951 19.8819 60.7424 20.7345 59.7785 21.5643C59.6991 21.5302 59.631 21.5075 59.5516 21.4734C59.3815 20.5299 59.1661 19.5977 59.0527 18.6542C58.8712 17.0627 58.8939 15.4258 58.599 13.857C57.6804 8.93483 53.2348 5.04708 48.2562 4.61511C45.1148 4.34229 42.3136 5.16076 39.8186 7.04779C38.6505 7.93447 37.6979 9.03714 36.9494 10.3103C36.836 10.5149 36.7112 10.6968 36.6092 10.856Z" fill="#E9F205"/>
<path d="M75.7118 38.0143C76.3809 37.1049 77.016 36.1728 77.7078 35.2974C78.6605 34.1038 79.7945 33.0239 80.5997 31.7394C84.8526 24.9529 81.0534 15.9042 73.2735 14.0967C71.3116 13.642 69.3836 13.6875 67.4444 14.1877C67.331 14.2218 67.2289 14.2445 67.1155 14.2672C67.0815 14.2786 67.0474 14.2445 66.968 14.2331C66.7752 13.3465 66.5938 12.4484 66.3897 11.5504C66.3103 11.1866 66.2309 10.8001 66.0721 10.4591C65.868 10.0044 66.0608 9.86796 66.4577 9.76565C69.7579 8.93581 73.0241 9.03812 76.1995 10.2658C81.9153 12.4939 85.4536 16.6772 86.565 22.7021C87.6084 28.3632 85.8959 33.2854 81.8813 37.4005C81.8699 37.4118 81.8472 37.4232 81.8472 37.4459C81.2235 38.5486 80.2255 38.6964 79.1027 38.56C78.0254 38.4349 76.9366 38.3554 75.8593 38.253C75.8026 38.1621 75.7572 38.0939 75.7118 38.0143Z" fill="#313BDB"/>
<path d="M10.854 58.7248C10.0488 60.0208 9.2776 61.2712 8.42704 62.6353C7.6105 62.0556 6.73725 61.5099 5.9434 60.862C3.23294 58.6339 1.39573 55.8033 0.556511 52.393C-0.838409 46.7092 0.375058 41.6051 4.2763 37.2399C7.16821 34.0002 10.854 32.2382 15.2088 31.9426C16.1161 31.8858 17.012 31.8289 17.9193 31.7835C18.0667 31.7721 18.2709 31.8403 18.3616 31.954C19.3709 33.1248 20.3689 34.3071 21.3669 35.4893C21.4009 35.5234 21.4123 35.5916 21.469 35.7394C20.6638 35.8986 19.8813 36.1145 19.0874 36.2055C17.9647 36.3305 16.8306 36.3987 15.6965 36.4328C10.0828 36.6033 5.05881 41.2868 4.59384 46.8911C4.16289 52.0179 6.19289 55.9284 10.6272 58.5771C10.6952 58.6225 10.7746 58.6794 10.854 58.7248Z" fill="#E9F205"/>
<path d="M59.1772 25.7145C60.4928 24.8278 61.7289 24.0662 62.897 23.2022C63.7249 22.5884 64.5074 21.8836 65.2446 21.1561C68.9644 17.5298 74.941 18.7688 76.7328 23.566C77.3793 25.2825 77.3225 27.0104 76.6421 28.7156C76.4947 29.0793 76.2905 29.193 75.9503 29.0339C74.8503 28.5451 73.7502 28.0449 72.6615 27.5447C72.3893 27.4197 72.3553 27.2491 72.4687 26.9536C72.9337 25.8282 72.5594 24.6459 71.5954 23.998C70.6088 23.3387 69.3953 23.441 68.5334 24.2935C66.6168 26.1919 64.4848 27.8062 62.1372 29.1475C61.4227 29.5568 61.3887 29.5681 60.9691 28.8747C60.3453 27.8403 59.767 26.7603 59.1772 25.7145Z" fill="#E56001"/>
<path d="M23.5561 68.5809C23.4881 68.7514 23.4314 68.8878 23.386 69.0242C22.9891 70.0928 23.3066 71.1727 24.2139 71.8547C25.1098 72.5254 26.2666 72.5254 27.1512 71.7979C27.911 71.1727 28.5688 70.4338 29.3626 69.854C30.8823 68.74 32.47 67.7169 34.0237 66.6484C34.3526 66.421 34.5907 66.4437 34.7949 66.8075C35.3733 67.8647 35.9743 68.9219 36.53 69.9905C36.5981 70.1155 36.496 70.4565 36.3713 70.5134C34.0691 71.7524 32.1298 73.4349 30.1792 75.1514C26.1872 78.6526 20.0178 76.5951 18.8837 71.4C18.5775 70.0018 18.6796 68.5695 19.2466 67.2167C19.3827 66.8984 19.5415 66.7507 19.9384 66.8643C21.2199 67.2395 22.422 67.8079 23.5561 68.5809Z" fill="#E56001"/>
<path d="M25.9827 18.9619C26.459 19.0983 27.3209 19.337 28.1828 19.5758C28.5117 19.6667 28.5797 19.9054 28.455 20.201C27.9673 21.3264 27.457 22.4404 26.958 23.5544C26.8446 23.8159 26.6858 23.8841 26.3796 23.7704C25.1662 23.3157 23.9754 23.7136 23.3516 24.7253C22.7279 25.7484 22.9093 26.8624 23.8279 27.8173C25.7445 29.7953 27.389 31.9779 28.7045 34.3992C28.8859 34.7289 28.8746 34.9335 28.523 35.1267C27.4797 35.6951 26.4477 36.2749 25.4157 36.866C25.1095 37.0365 24.9507 36.9456 24.7919 36.6614C23.6465 34.4901 22.1155 32.6031 20.4484 30.807C17.6812 27.806 17.874 23.418 20.8226 20.7466C22.0474 19.644 23.8166 18.9733 25.9827 18.9619Z" fill="#E56001"/>
<path d="M24.531 51.2464C24.1227 52.5992 23.7371 53.9292 23.3062 55.2592C23.2721 55.3615 22.9433 55.4411 22.7731 55.407C21.3102 55.1228 19.8586 54.759 18.3843 54.543C17.1935 54.3725 15.9687 54.4521 14.7779 54.2816C12.1128 53.8951 10.2189 52.3945 9.26624 49.8709C8.31361 47.3359 8.72188 44.9601 10.4911 42.8571C11.1942 42.0159 12.0447 41.3793 13.0654 40.97C13.4056 40.8336 13.6438 40.8336 13.7799 41.2088C14.1995 42.3228 14.6304 43.4255 15.0501 44.5395C15.1748 44.8578 15.0954 45.0283 14.7552 45.1874C13.6211 45.7104 13.0881 46.7789 13.3376 47.9157C13.5871 49.0752 14.5397 49.8482 15.8099 49.8368C18.6111 49.8141 21.3442 50.2688 24.0206 51.0532C24.1454 51.0873 24.2701 51.1441 24.531 51.2464Z" fill="#42E125"/>
<path d="M70.2232 59.0664C71.4707 60.7943 72.5821 62.3858 73.7502 63.9318C74.2946 64.6593 74.9864 65.2618 75.5421 65.978C78.502 69.7975 76.7102 76.1407 70.881 77.0614C69.6562 77.2547 68.4314 77.0955 67.286 76.5613C67.0025 76.4248 66.8323 76.2884 66.9798 75.9588C67.4788 74.8334 67.9664 73.7193 68.4654 72.5939C68.5902 72.2984 68.783 72.2529 69.1005 72.3666C70.3026 72.7986 71.4027 72.4575 72.0491 71.4799C72.7069 70.4795 72.5935 69.3428 71.6749 68.3652C69.7696 66.3531 68.0798 64.1819 66.7643 61.7378C66.5602 61.3513 66.5602 61.1581 66.9571 60.9307C68.0798 60.3169 69.2026 59.6575 70.2232 59.0664Z" fill="#E56001"/>
<path d="M86.9623 48.4373C86.8376 50.8927 85.4313 53.0185 82.7435 54.303C82.3806 54.4736 82.1084 54.4849 81.9383 54.0529C81.5414 52.9957 81.1331 51.9386 80.7249 50.8814C80.5661 50.4835 80.6568 50.2561 81.0878 50.0629C82.1198 49.5968 82.6415 48.4714 82.4147 47.3801C82.1992 46.3684 81.2692 45.5385 80.2712 45.4817C79.6361 45.4476 78.9897 45.4135 78.3546 45.3908C76.1205 45.2998 73.9317 44.902 71.7883 44.2654C71.4254 44.1631 71.2893 44.0266 71.4027 43.6401C71.7316 42.5147 72.0265 41.3893 72.344 40.2526C72.4347 39.9456 72.5708 39.7524 72.9564 39.8774C75.338 40.6277 77.7876 40.8664 80.2712 40.9346C84.025 41.0256 86.9623 44.1403 86.9623 48.4373Z" fill="#42E125"/>
<path d="M39.501 23.6568C39.8185 22.0199 40.1587 20.5535 40.3629 19.0643C40.5443 17.7343 40.4876 16.3815 40.6804 15.0515C41.0547 12.346 42.597 10.459 45.126 9.51545C48.7211 8.18543 52.3841 9.84511 53.9265 13.3805C54.0739 13.7215 54.0739 13.9488 53.6883 14.0853C52.5769 14.5059 51.4769 14.9378 50.3768 15.3698C50.082 15.4835 49.9118 15.4153 49.7644 15.097C49.2201 13.9261 48.154 13.4032 46.9292 13.6646C45.8292 13.892 45.092 14.8242 45.0693 16.1314C45.0353 18.8142 44.6837 21.4515 43.9579 24.032C43.7424 24.7936 43.7424 24.8277 43.0053 24.6345C41.8145 24.3275 40.6351 23.9751 39.501 23.6568Z" fill="#42E125"/>
<path d="M55.3446 72.5823C55.061 73.9351 54.7321 75.14 54.5507 76.3678C54.3692 77.5841 54.2672 78.8118 54.2558 80.0395C54.2105 84.2228 50.967 87.3489 46.8049 87.1557C44.2646 87.042 41.6448 85.1095 40.8623 82.7337C40.8056 82.5745 40.9417 82.2221 41.0778 82.1653C42.2232 81.6878 43.3913 81.2559 44.5594 80.8353C44.6728 80.7898 44.9564 80.983 45.0244 81.1194C45.5688 82.2335 46.6235 82.8019 47.8142 82.5745C48.9143 82.3585 49.7308 81.3809 49.7422 80.1532C49.7535 77.4818 50.1391 74.8786 50.8309 72.3095C51.0691 71.4342 51.0804 71.4001 51.931 71.6161C53.065 71.9003 54.1991 72.2527 55.3446 72.5823Z" fill="#42E125"/>
<path d="M51.9756 31.8967C45.8629 32.7493 40.1131 31.7262 34.6128 28.9752C35.1798 27.9749 35.7355 27.0654 36.2459 26.1219C36.8356 25.0306 36.8129 25.0306 37.9243 25.5194C41.6101 27.1336 45.4546 27.8612 49.4692 27.5997C49.8435 27.577 50.0363 27.6566 50.1951 28.0317C50.7394 29.2935 51.3405 30.5439 51.9756 31.8967Z" fill="#E56001"/>
<path d="M43.1973 63.1825C49.31 62.3867 55.0598 63.3757 60.5487 66.1153C59.8115 67.434 59.0857 68.7185 58.3372 70.0599C57.8496 69.8439 57.3506 69.6166 56.8289 69.4006C53.2906 67.8887 49.5935 67.2976 45.7603 67.5136C45.3634 67.5363 45.1592 67.4567 44.9891 67.0702C44.4448 65.7857 43.8324 64.5352 43.1973 63.1825Z" fill="#E56001"/>
<path d="M56.0015 61.4662C59.7213 56.5326 64.5184 53.1905 70.3476 51.2012C70.5744 52.0879 70.7559 52.8836 70.9713 53.6793C71.0848 54.1113 71.2095 54.5546 71.4023 54.9752C71.6064 55.4299 71.527 55.6346 71.028 55.7937C69.2249 56.3848 67.5464 57.2374 65.9587 58.2719C64.0308 59.5223 62.2956 61.0001 60.7873 62.728C60.5378 63.0122 60.3337 63.0918 59.9708 62.944C58.6892 62.4438 57.3964 61.9891 56.0015 61.4662Z" fill="#42E125"/>
<path d="M63.1348 52.3266C61.9327 48.3366 63.7359 37.7192 66.0721 35.0137C66.934 35.5025 67.7959 36.0027 68.6578 36.4915C69.0547 36.7188 69.6671 36.878 69.7919 37.219C69.9053 37.5146 69.5084 38.0261 69.3269 38.4467C67.7165 42.0957 67.1041 45.9266 67.2969 49.9053C67.3082 50.0986 67.2402 50.4169 67.1154 50.4851C65.8113 51.1103 64.4844 51.7014 63.1348 52.3266Z" fill="#E56001"/>
<path d="M23.0562 40.5605C23.7706 40.2649 24.5078 39.9694 25.2222 39.6625C28.5791 38.2188 31.4257 36.0816 33.864 33.3648C33.9887 33.217 34.3062 33.0919 34.465 33.1488C35.8146 33.6148 37.1528 34.1378 38.5023 34.6379C37.4476 37.5822 28.1935 44.2209 24.2583 44.8234C23.8613 43.4138 23.4644 42.0042 23.0562 40.5605Z" fill="#42E125"/>
<path d="M31.4715 43.3574C32.7416 46.8587 30.8817 57.8739 28.5569 60.6818C27.2867 59.9656 26.0052 59.2494 24.769 58.5446C25.2794 57.1691 25.8464 55.8278 26.2887 54.4409C27.1733 51.6558 27.4455 48.7798 27.298 45.8697C27.2754 45.4491 27.3888 45.2331 27.797 45.0626C29.0219 44.5283 30.224 43.9372 31.4715 43.3574Z" fill="#E56001"/>
<path d="M34.2952 56.2129C37.7428 57.8839 43.7647 66.3642 44.4679 70.5475C44.2297 70.6157 43.9802 70.6726 43.7307 70.7408C42.8008 71.0022 41.8708 71.2296 40.9522 71.5251C40.2037 71.7639 40.2151 71.798 39.9542 71.0704C39.2851 69.1493 38.3552 67.3532 37.2211 65.6708C36.0643 63.9543 34.7488 62.3742 33.1611 61.0328C32.8095 60.7372 32.7188 60.4758 32.9002 60.0211C33.3425 58.8957 33.7168 57.7475 34.125 56.5994C34.1704 56.4857 34.2271 56.3607 34.2952 56.2129Z" fill="#42E125"/>
<path d="M51.1255 24.5436C51.8967 24.3617 52.6225 24.1912 53.3483 23.9979C53.8813 23.8501 54.4143 23.7137 54.9133 23.4864C55.367 23.2817 55.469 23.475 55.6391 23.8501C56.2856 25.2938 56.9093 26.7603 57.6578 28.1585C58.8939 30.4434 60.5837 32.3759 62.523 34.0924C62.8405 34.3652 62.9313 34.5926 62.7725 35.0018C62.3189 36.1841 61.9219 37.389 61.5023 38.5826C61.4683 38.6849 61.4116 38.7759 61.3209 38.9464C56.433 35.1837 53.0534 30.4206 51.1255 24.5436Z" fill="#42E125"/>
<path d="M38.6389 80.0619C38.6162 79.5844 38.6049 79.1752 38.5709 78.766C38.4801 77.6974 38.4121 76.6174 38.276 75.5489C38.2306 75.1624 38.3214 74.9691 38.6616 74.7873C41.1792 73.48 43.833 72.6842 46.6682 72.5478C47.1218 72.5251 47.5755 72.491 48.0291 72.4569C48.3693 72.4341 48.5167 72.5478 48.46 72.9229C48.2786 74.1507 48.1198 75.3897 47.9157 76.6175C47.893 76.788 47.6322 77.0494 47.4734 77.0494C44.3093 77.1063 41.4854 78.1407 38.9224 79.9482C38.8771 80.005 38.8204 80.005 38.6389 80.0619Z" fill="#313BDB"/>
<path d="M17.3979 64.1818C17.6588 63.8862 17.8629 63.6703 18.0557 63.4429C18.8269 62.5335 19.6094 61.6354 20.3466 60.7033C20.5734 60.4077 20.7662 60.3509 21.1064 60.4532C24.1457 61.3967 26.7881 62.9882 29.0676 65.1935C29.2604 65.3754 29.4873 65.5232 29.7708 65.7392C29.3171 66.0688 29.0109 66.2962 28.7047 66.5235C27.9336 67.1033 27.1737 67.6944 26.4139 68.2855C26.1984 68.456 26.051 68.5697 25.7902 68.331C23.488 66.1825 20.8002 64.8298 17.6928 64.2955C17.6248 64.2841 17.5681 64.25 17.3979 64.1818Z" fill="#E9F205"/>
<path d="M77.6286 31.9773C77.0275 32.6366 76.4831 33.205 75.9728 33.8075C75.4965 34.3645 75.0769 34.9784 74.5892 35.524C74.4645 35.6718 74.1583 35.7855 73.9882 35.74C70.6766 34.751 67.8528 32.9777 65.4599 30.4995C65.4258 30.4654 65.4032 30.4086 65.3691 30.3517C66.2991 29.6469 67.2404 28.9535 68.1703 28.2487C68.3064 28.1464 68.4425 28.0441 68.5559 27.919C68.8281 27.6462 69.0436 27.6803 69.3271 27.9418C71.5726 30.0675 74.2263 31.3634 77.2656 31.8864C77.345 31.875 77.4244 31.9091 77.6286 31.9773Z" fill="#E9F205"/>
<path d="M46.8608 23.1111C47.0423 21.6106 47.2011 20.2692 47.4052 18.9278C47.4279 18.7687 47.7568 18.564 47.9496 18.5527C49.8095 18.439 51.624 18.0866 53.3251 17.325C54.2664 16.9044 55.151 16.336 56.0583 15.8358C56.217 15.7449 56.3645 15.6425 56.5913 15.4834C56.6253 15.7449 56.648 15.9154 56.6707 16.0973C56.7954 17.45 56.9202 18.8028 57.0109 20.1555C57.0222 20.3374 56.8635 20.6216 56.7047 20.7125C54.4819 21.9289 52.1003 22.7019 49.5713 22.9292C48.6867 23.0202 47.7794 23.0543 46.8608 23.1111Z" fill="#313BDB"/>
<path d="M64.0533 77.5056C63.7811 77.2669 63.5883 77.0964 63.3955 76.9259C62.4542 76.1301 61.5243 75.3344 60.5717 74.5614C60.3222 74.3568 60.2088 74.1862 60.3108 73.8452C61.3088 70.5941 63.044 67.7976 65.4369 65.399C65.5049 65.3308 65.5956 65.2967 65.6977 65.2285C66.3101 66.0584 66.9225 66.8655 67.5236 67.6839C67.7958 68.0591 68.2721 68.4456 68.2834 68.8207C68.2834 69.1617 67.7731 69.5141 67.4782 69.8665C65.7317 72.0036 64.609 74.425 64.144 77.1532C64.1327 77.2555 64.0987 77.3237 64.0533 77.5056Z" fill="#E9F205"/>
<path d="M80.203 56.7706C79.8174 56.8161 79.5339 56.8502 79.2503 56.8729C78.0142 56.9752 76.778 57.0889 75.5419 57.1685C75.3604 57.1799 75.0769 57.0207 74.9862 56.8502C73.7841 54.6108 73.0356 52.2236 72.7747 49.6886C72.6954 48.961 72.7067 48.2108 72.65 47.4833C72.616 47.0513 72.718 46.8694 73.217 46.9603C74.3511 47.1536 75.4852 47.3014 76.6306 47.4378C77.0275 47.4833 77.1069 47.6992 77.1183 48.0403C77.2544 50.814 78.0255 53.3944 79.5225 55.7475C79.7267 56.0658 79.9421 56.3728 80.203 56.7706Z" fill="#313BDB"/>
<path d="M29.9978 30.1926C29.1019 28.999 28.2287 27.8395 27.3101 26.6232C29.6236 24.236 31.0752 21.3827 31.6082 17.9951C31.8124 18.1315 31.9371 18.2111 32.0392 18.302C33.0939 19.1887 34.1486 20.0754 35.1806 20.9848C35.3167 21.0985 35.4301 21.3941 35.3847 21.5418C34.3867 24.8498 32.6629 27.7145 30.1679 30.1131C30.1339 30.1472 30.0772 30.1585 29.9978 30.1926Z" fill="#E9F205"/>
<path d="M14.937 39.0484C16.2299 38.9461 17.466 38.8552 18.7022 38.7529C18.7589 38.7529 18.8156 38.7529 18.8723 38.7415C19.995 38.6278 20.0064 38.6278 20.4827 39.6282C21.7755 42.3337 22.4446 45.187 22.4333 48.188C22.4333 48.3358 22.4219 48.495 22.4106 48.6427C22.3993 48.6996 22.3652 48.745 22.3085 48.8474C21.526 48.7223 20.7322 48.5973 19.927 48.4722C19.4847 48.404 19.031 48.3358 18.5774 48.3244C18.1238 48.3131 17.965 48.1539 17.9537 47.6878C17.8629 45.2665 17.2279 42.9816 16.0598 40.8559C15.7309 40.2534 15.3339 39.685 14.937 39.0484Z" fill="#313BDB"/>
<path d="M38.5413 52.623V48.8005L35.1385 42.1599H37.3271L38.5413 44.6782L39.4856 46.8218H39.5906L40.55 44.6782L41.7792 42.1599H43.8928L40.49 48.8005V52.623H38.5413ZM44.8432 52.623V42.1599H46.8069V51.0041H51.4389V52.623H44.8432ZM57.9807 51.169H57.8607C57.7708 51.3789 57.6609 51.5837 57.531 51.7836C57.401 51.9835 57.2412 52.1583 57.0513 52.3083C56.8614 52.4582 56.6365 52.5781 56.3767 52.668C56.1269 52.758 55.8371 52.8029 55.5073 52.8029C54.448 52.8029 53.6435 52.3382 53.0939 51.4088C52.5542 50.4694 52.2844 49.1553 52.2844 47.4664C52.2844 45.6876 52.6042 44.3284 53.2438 43.3891C53.8833 42.4497 54.8677 41.98 56.1968 41.98C56.7165 41.98 57.1712 42.0499 57.5609 42.1898C57.9607 42.3297 58.3005 42.5246 58.5803 42.7745C58.8701 43.0243 59.1049 43.3241 59.2848 43.6739C59.4747 44.0137 59.6246 44.3834 59.7345 44.7832L57.9357 45.2928C57.8657 45.073 57.7858 44.8581 57.6959 44.6482C57.6159 44.4384 57.506 44.2585 57.3661 44.1086C57.2362 43.9487 57.0763 43.8238 56.8864 43.7338C56.6965 43.6339 56.4617 43.5839 56.1818 43.5839C55.5323 43.5839 55.0676 43.8438 54.7877 44.3634C54.5079 44.8831 54.368 45.5926 54.368 46.492V48.1709C54.368 48.6207 54.398 49.0354 54.458 49.4151C54.5279 49.7849 54.6378 50.1047 54.7877 50.3745C54.9376 50.6443 55.1325 50.8542 55.3724 51.0041C55.6122 51.144 55.912 51.214 56.2718 51.214C56.8314 51.214 57.2561 51.0491 57.546 50.7193C57.8358 50.3795 57.9807 49.9498 57.9807 49.4301V48.5757H56.0769V47.1516H59.7345V52.623H57.9807V51.169Z" fill="#E9F205"/>
</g>
<defs>
<clipPath id="clip0_95_2413">
<rect width="96" height="96" fill="white"/>
</clipPath>
</defs>
</svg>
