<svg width="80" height="80" viewBox="0 0 80 80" fill="none" xmlns="http://www.w3.org/2000/svg">
<g clip-path="url(#clip0_95_2413)">
<path d="M16.0664 47.5361C15.386 48.4455 14.8095 49.3075 14.1479 50.0938C13.2218 51.1832 12.1917 52.1779 11.5207 53.4757C8.50589 59.2921 12.1633 66.5959 18.6087 67.6379C20.1775 67.8937 21.7085 67.7895 23.2868 67.3253C23.3718 67.7989 23.438 68.2442 23.5419 68.6799C23.6931 69.3241 23.8538 69.9683 24.0428 70.603C24.1279 70.9061 24.109 71.0482 23.7593 71.1335C19.5254 72.185 15.6223 71.4366 12.1349 68.841C9.10128 66.5864 7.3151 63.5171 6.84257 59.7753C6.30388 55.465 7.51357 51.6663 10.5189 48.4739C10.8024 48.1802 11.1048 47.896 11.3411 47.5645C11.5868 47.2045 11.8987 47.1003 12.3051 47.1382C13.3352 47.2234 14.3748 47.2992 15.4049 47.3845C15.575 47.394 15.7357 47.4508 16.0664 47.5361Z" fill="#313BDB"/>
<path d="M31.2729 16.5105C30.6114 16.0558 30.0349 15.7148 29.5151 15.298C28.7307 14.6633 28.003 13.9622 27.228 13.3276C24.251 10.8646 20.8866 10.2867 17.3142 11.6414C13.8742 12.9486 11.8234 15.5348 11.1335 19.1819C10.8689 20.5555 10.9917 21.9196 11.3131 23.2648C11.3509 23.4258 11.3887 23.5963 11.4265 23.7669C10.2168 24.0511 9.04491 24.3258 7.77851 24.6289C7.63675 23.9374 7.44774 23.2364 7.36268 22.5259C6.8618 17.9409 8.2605 14.0191 11.5777 10.8267C13.6474 8.83733 16.1707 7.64372 19.0154 7.29322C23.4572 6.74378 27.3131 8.07948 30.5357 11.2151C30.583 11.2624 30.6208 11.3193 30.6775 11.3477C31.5753 11.8498 31.7265 12.655 31.6037 13.6023C31.5375 14.1138 31.5375 14.6443 31.4808 15.1559C31.4241 15.5348 31.358 15.9326 31.2729 16.5105Z" fill="#313BDB"/>
<path d="M47.6979 63.0532C48.3217 63.4889 48.9738 63.8963 49.5692 64.3699C50.2685 64.9288 50.9017 65.573 51.5822 66.1509C53.8692 68.1118 56.5249 68.8696 59.4924 68.4433C63.7452 67.8371 67.1002 64.4362 67.7523 60.1639C67.9791 58.6766 67.8468 57.2083 67.412 55.721C68.6028 55.4463 69.7842 55.1716 71.06 54.8779C71.1545 55.2474 71.2868 55.6547 71.3624 56.081C72.4776 62.2669 69.5763 68.1497 63.9531 70.9632C61.7511 72.0715 59.379 72.4978 56.9029 72.2894C53.4723 71.9957 50.6371 70.5274 48.161 68.1781C47.4428 67.496 47.1403 66.8613 47.2821 65.914C47.4144 64.9857 47.4522 64.0478 47.5278 63.11C47.594 63.0911 47.6507 63.0721 47.6979 63.0532Z" fill="#313BDB"/>
<path d="M48.6331 70.9148C49.7105 71.5874 50.7407 72.2316 51.8086 72.8852C50.9864 74.382 49.9373 75.6798 48.6331 76.7692C46.4878 78.5785 44.0023 79.6395 41.2333 79.9237C38.795 80.17 36.4323 79.7911 34.2019 78.7206C30.4595 76.9302 28.0023 74.022 26.8021 70.0528C26.3012 68.3855 26.3295 66.6519 26.2256 64.9468C26.2161 64.8615 26.2539 64.7384 26.3106 64.691C27.3124 63.7911 28.3142 62.8912 29.3159 61.9912C29.3821 62.0196 29.4483 62.048 29.5144 62.0765C29.6562 62.9385 29.8263 63.8006 29.9208 64.6721C30.0436 65.7804 30.0058 66.9172 30.1949 68.0161C30.7713 71.2937 32.5764 73.7188 35.5628 75.1682C38.9178 76.7976 42.2161 76.5134 45.3538 74.5241C46.6769 73.681 47.6786 72.5158 48.463 71.1516C48.5197 71.0759 48.5764 71.0001 48.6331 70.9148Z" fill="#E9F205"/>
<path d="M62.0063 49.8103C62.4694 49.6872 62.7813 49.5735 63.0932 49.5356C64.369 49.384 65.6543 49.2135 66.9396 49.1472C69.7276 49.0051 72.0052 47.8399 73.8291 45.7843C77.9496 41.1235 76.6549 33.763 71.2208 30.7411C71.1357 30.6937 71.0601 30.6463 70.9656 30.5895C71.6271 29.538 72.2887 28.4959 72.9691 27.416C74.0654 28.0033 75.0672 28.7422 75.965 29.6422C78.3277 32.0104 79.6224 34.8618 79.9532 38.2058C80.5675 44.5149 76.4186 50.5113 70.5498 52.3491C69.1983 52.7754 67.8185 52.9649 66.4198 53.0028C66.2308 53.0028 66.0323 52.9649 65.8528 53.0122C65.0589 53.2585 64.5675 52.8512 64.1139 52.2733C63.4523 51.4586 62.7624 50.6913 62.0063 49.8103Z" fill="#E9F205"/>
<path d="M30.5071 9.04664C29.4675 8.43089 28.5035 7.84356 27.5301 7.27518C27.2371 7.10466 27.4167 6.93414 27.5112 6.76363C28.2862 5.42793 29.2501 4.2438 30.4409 3.26807C33.9566 0.378789 37.9637 -0.653775 42.3771 0.407208C47.386 1.61029 50.6559 4.83113 52.2436 9.70975C52.6406 10.9223 52.65 12.2485 52.8296 13.5274C52.8579 13.7642 52.7918 14.0105 52.8579 14.2379C53.0659 14.9673 52.7823 15.4504 52.2342 15.8957C51.412 16.5682 50.6181 17.2787 49.8148 17.9703C49.7487 17.9418 49.692 17.9229 49.6258 17.8945C49.484 17.1082 49.3045 16.3314 49.21 15.5452C49.0588 14.2189 49.0777 12.8548 48.832 11.5475C48.0664 7.44569 44.3618 4.2059 40.2129 3.84593C37.5951 3.61857 35.2608 4.30063 33.1816 5.87316C32.2082 6.61206 31.4143 7.53095 30.7906 8.59193C30.6961 8.76244 30.5921 8.91401 30.5071 9.04664Z" fill="#E9F205"/>
<path d="M63.0929 31.6784C63.6505 30.9206 64.1798 30.1438 64.7563 29.4144C65.5501 28.4197 66.4952 27.5198 67.1662 26.4493C70.7102 20.7939 67.5442 13.2533 61.061 11.7471C59.4261 11.3682 57.8195 11.4061 56.2034 11.8229C56.1089 11.8513 56.0238 11.8703 55.9293 11.8892C55.901 11.8987 55.8726 11.8703 55.8065 11.8608C55.6458 11.1219 55.4946 10.3735 55.3245 9.62515C55.2583 9.32201 55.1922 8.99993 55.0599 8.71573C54.8897 8.33681 55.0504 8.22313 55.3812 8.13788C58.1313 7.44634 60.8531 7.5316 63.4993 8.55469C68.2625 10.4114 71.2111 13.8975 72.1373 18.9182C73.0067 23.6358 71.5797 27.7376 68.2341 31.1669C68.2247 31.1764 68.2058 31.1858 68.2058 31.2048C67.686 32.1237 66.8543 32.2468 65.9187 32.1332C65.0209 32.0289 64.1136 31.9626 63.2158 31.8774C63.1686 31.8016 63.1308 31.7448 63.0929 31.6784Z" fill="#313BDB"/>
<path d="M9.04473 48.9375C8.37373 50.0175 7.73109 51.0595 7.02228 52.1963C6.34184 51.7131 5.61413 51.2584 4.95259 50.7185C2.69388 48.8617 1.16287 46.503 0.463515 43.661C-0.698918 38.9245 0.312304 34.6711 3.56334 31.0334C5.97326 28.3336 9.04473 26.8653 12.6738 26.619C13.4298 26.5716 14.1764 26.5243 14.9325 26.4864C15.0554 26.4769 15.2255 26.5337 15.3011 26.6285C16.1422 27.6042 16.9738 28.5894 17.8055 29.5746C17.8339 29.603 17.8433 29.6599 17.8906 29.783C17.2196 29.9156 16.5675 30.0956 15.9059 30.1714C14.9703 30.2756 14.0252 30.3324 13.0802 30.3609C8.40208 30.503 4.21543 34.4059 3.82796 39.0761C3.46883 43.3484 5.1605 46.6072 8.85572 48.8144C8.91242 48.8523 8.97857 48.8996 9.04473 48.9375Z" fill="#E9F205"/>
<path d="M49.314 21.4289C50.4102 20.69 51.4404 20.0553 52.4138 19.3354C53.1037 18.8238 53.7558 18.2365 54.3701 17.6302C57.4699 14.6083 62.4504 15.6409 63.9436 19.6385C64.4823 21.0689 64.4351 22.5088 63.868 23.9298C63.7452 24.2329 63.575 24.3277 63.2915 24.195C62.3748 23.7877 61.4581 23.3709 60.5508 22.9541C60.324 22.8499 60.2957 22.7078 60.3902 22.4615C60.7776 21.5236 60.4658 20.5384 59.6625 19.9985C58.8402 19.449 57.829 19.5343 57.1108 20.2448C55.5136 21.8268 53.7369 23.172 51.7806 24.2898C51.1852 24.6308 51.1568 24.6403 50.8072 24.0624C50.2874 23.2004 49.8054 22.3004 49.314 21.4289Z" fill="#E56001"/>
<path d="M19.6295 57.1512C19.5728 57.2933 19.5256 57.407 19.4878 57.5207C19.157 58.4111 19.4216 59.3111 20.1777 59.8794C20.9243 60.4384 21.8883 60.4384 22.6254 59.8321C23.2586 59.3111 23.8067 58.6953 24.4683 58.2122C25.7347 57.2838 27.0578 56.4313 28.3525 55.5408C28.6266 55.3513 28.825 55.3703 28.9952 55.6734C29.4771 56.5544 29.978 57.4354 30.4411 58.3259C30.4978 58.4301 30.4128 58.7143 30.3088 58.7616C28.3903 59.7942 26.7743 61.1962 25.1487 62.6266C21.8221 65.5443 16.6809 63.8297 15.7359 59.5005C15.4807 58.3353 15.5657 57.1417 16.0383 56.0144C16.1517 55.7492 16.284 55.626 16.6148 55.7208C17.6827 56.0334 18.6845 56.507 19.6295 57.1512Z" fill="#E56001"/>
<path d="M21.6523 15.8018C22.0493 15.9154 22.7675 16.1144 23.4858 16.3133C23.7598 16.3891 23.8165 16.588 23.7126 16.8343C23.3062 17.7722 22.8809 18.7005 22.4651 19.6289C22.3706 19.8467 22.2383 19.9036 21.9831 19.8089C20.9719 19.4299 19.9796 19.7615 19.4598 20.6046C18.94 21.4572 19.0912 22.3855 19.8567 23.1813C21.4539 24.8296 22.8242 26.6484 23.9205 28.6662C24.0717 28.9409 24.0622 29.1114 23.7693 29.2724C22.8998 29.7461 22.0398 30.2292 21.1798 30.7218C20.9246 30.8639 20.7923 30.7881 20.66 30.5513C19.7055 28.7419 18.4296 27.1694 17.0404 25.6727C14.7344 23.1718 14.8951 19.5152 17.3523 17.289C18.3729 16.3701 19.8472 15.8112 21.6523 15.8018Z" fill="#E56001"/>
<path d="M20.4421 42.7053C20.1018 43.8326 19.7805 44.941 19.4214 46.0493C19.393 46.1346 19.119 46.2009 18.9772 46.1725C17.7581 45.9356 16.5484 45.6325 15.3198 45.4525C14.3275 45.3104 13.3068 45.3767 12.3145 45.2346C10.0936 44.9126 8.51532 43.6621 7.72146 41.5591C6.92761 39.4466 7.26783 37.4667 8.74214 35.7142C9.32808 35.0132 10.0369 34.4827 10.8874 34.1417C11.171 34.028 11.3694 34.028 11.4828 34.3406C11.8325 35.269 12.1916 36.1879 12.5413 37.1162C12.6453 37.3815 12.5791 37.5236 12.2956 37.6562C11.3505 38.092 10.9063 38.9824 11.1143 39.9297C11.3222 40.896 12.116 41.5402 13.1745 41.5307C15.5088 41.5117 17.7864 41.8907 20.0168 42.5443C20.1208 42.5727 20.2247 42.6201 20.4421 42.7053Z" fill="#42E125"/>
<path d="M58.5193 49.2217C59.5589 50.6616 60.485 51.9878 61.4585 53.2762C61.9121 53.8824 62.4886 54.3845 62.9517 54.9813C65.4183 58.1643 63.9251 63.4502 59.0674 64.2175C58.0468 64.3786 57.0261 64.246 56.0716 63.8007C55.8353 63.687 55.6935 63.5734 55.8164 63.2986C56.2322 62.3608 56.6386 61.4325 57.0544 60.4946C57.1584 60.2483 57.3191 60.2104 57.5837 60.3052C58.5854 60.6651 59.5022 60.3809 60.0408 59.5663C60.589 58.7326 60.4945 57.7853 59.729 56.9706C58.1413 55.2939 56.7331 53.4846 55.6368 51.4478C55.4667 51.1258 55.4667 50.9647 55.7975 50.7753C56.7331 50.2637 57.6687 49.7143 58.5193 49.2217Z" fill="#E56001"/>
<path d="M72.4685 40.3646C72.3646 42.4108 71.1927 44.1822 68.9529 45.2527C68.6504 45.3948 68.4236 45.4043 68.2819 45.0443C67.9511 44.1633 67.6109 43.2823 67.2706 42.4013C67.1383 42.0697 67.2139 41.8803 67.5731 41.7192C68.4331 41.3308 68.8678 40.393 68.6788 39.4836C68.4992 38.6405 67.7243 37.9489 66.8926 37.9016C66.3634 37.8732 65.8247 37.8447 65.2954 37.8258C63.4337 37.75 61.6097 37.4185 59.8235 36.888C59.5211 36.8027 59.4077 36.689 59.5022 36.3669C59.7762 35.4291 60.022 34.4913 60.2866 33.544C60.3622 33.2882 60.4756 33.1272 60.7969 33.2314C62.7816 33.8566 64.8229 34.0555 66.8926 34.1124C70.0208 34.1881 72.4685 36.7838 72.4685 40.3646Z" fill="#42E125"/>
<path d="M32.917 19.714C33.1816 18.3499 33.4651 17.1279 33.6352 15.8869C33.7865 14.7786 33.7392 13.6513 33.8999 12.5429C34.2117 10.2883 35.497 8.7158 37.6045 7.92954C40.6004 6.82119 43.653 8.20426 44.9383 11.1504C45.0611 11.4346 45.0611 11.624 44.7398 11.7377C43.8136 12.0882 42.8969 12.4482 41.9802 12.8082C41.7345 12.9029 41.5927 12.8461 41.4699 12.5808C41.0162 11.6051 40.1279 11.1693 39.1072 11.3872C38.1905 11.5767 37.5762 12.3535 37.5573 13.4429C37.5289 15.6785 37.236 17.8763 36.6311 20.0266C36.4515 20.6613 36.4515 20.6898 35.8373 20.5287C34.8449 20.2729 33.8621 19.9793 32.917 19.714Z" fill="#42E125"/>
<path d="M46.1201 60.4848C45.8838 61.6121 45.6097 62.6162 45.4585 63.6393C45.3073 64.6529 45.2222 65.676 45.2128 66.6991C45.175 70.1852 42.4721 72.7903 39.0037 72.6293C36.8867 72.5345 34.7036 70.9241 34.0515 68.9442C34.0043 68.8116 34.1177 68.5179 34.2311 68.4706C35.1856 68.0727 36.159 67.7127 37.1325 67.3622C37.227 67.3243 37.4632 67.4854 37.5199 67.5991C37.9736 68.5274 38.8525 69.0011 39.8448 68.8116C40.7615 68.6316 41.442 67.8169 41.4514 66.7938C41.4609 64.5677 41.7822 62.3983 42.3587 60.2574C42.5571 59.528 42.5666 59.4996 43.2754 59.6796C44.2205 59.9164 45.1655 60.2101 46.1201 60.4848Z" fill="#42E125"/>
<path d="M43.3127 26.5804C38.2188 27.2909 33.4273 26.4383 28.8438 24.1458C29.3163 23.3122 29.7794 22.5544 30.2046 21.7681C30.6961 20.8587 30.6772 20.8587 31.6033 21.266C34.6748 22.6112 37.8786 23.2175 41.2241 22.9996C41.536 22.9807 41.6967 23.047 41.829 23.3596C42.2826 24.4111 42.7835 25.4531 43.3127 26.5804Z" fill="#E56001"/>
<path d="M35.9976 52.6517C41.0915 51.9886 45.883 52.8128 50.4571 55.0958C49.8428 56.1947 49.238 57.2651 48.6142 58.3829C48.2078 58.2029 47.792 58.0135 47.3573 57.8335C44.4087 56.5736 41.3277 56.081 38.1334 56.261C37.8026 56.2799 37.6325 56.2136 37.4908 55.8915C37.0371 54.8211 36.5268 53.779 35.9976 52.6517Z" fill="#E56001"/>
<path d="M46.6675 51.2212C49.7673 47.1099 53.7649 44.3248 58.6226 42.667C58.8116 43.4059 58.9628 44.069 59.1424 44.7321C59.2369 45.0921 59.3408 45.4615 59.5015 45.812C59.6716 46.191 59.6055 46.3615 59.1896 46.4941C57.687 46.9867 56.2883 47.6972 54.9652 48.5592C53.3586 49.6013 51.9126 50.8328 50.6557 52.2727C50.4478 52.5095 50.2776 52.5758 49.9752 52.4527C48.9073 52.0359 47.8299 51.6569 46.6675 51.2212Z" fill="#42E125"/>
<path d="M52.6119 43.6052C51.6102 40.2802 53.1128 31.4323 55.0597 29.1777C55.7779 29.5851 56.4962 30.0019 57.2144 30.4092C57.5452 30.5987 58.0555 30.7313 58.1595 31.0155C58.254 31.2618 57.9232 31.6881 57.772 32.0386C56.43 35.0795 55.9197 38.2719 56.0803 41.5874C56.0898 41.7485 56.0331 42.0137 55.9291 42.0706C54.8423 42.5916 53.7366 43.0842 52.6119 43.6052Z" fill="#E56001"/>
<path d="M19.2134 33.8004C19.8088 33.5541 20.4231 33.3078 21.0185 33.052C23.8159 31.849 26.188 30.068 28.2199 27.804C28.3238 27.6808 28.5885 27.5766 28.7208 27.624C29.8454 28.0124 30.9606 28.4481 32.0852 28.8649C31.2063 31.3185 23.4945 36.8507 20.2152 37.3528C19.8844 36.1782 19.5536 35.0035 19.2134 33.8004Z" fill="#42E125"/>
<path d="M26.226 36.1309C27.2845 39.0486 25.7345 48.228 23.7972 50.5678C22.7387 49.971 21.6707 49.3742 20.6406 48.7869C21.0659 47.6406 21.5384 46.5228 21.907 45.3671C22.6442 43.0462 22.871 40.6495 22.7481 38.2244C22.7292 37.8739 22.8237 37.6939 23.164 37.5518C24.1846 37.1066 25.1864 36.614 26.226 36.1309Z" fill="#E56001"/>
<path d="M28.5792 46.8438C31.4522 48.2363 36.4705 55.3032 37.0565 58.7893C36.858 58.8461 36.6501 58.8935 36.4422 58.9503C35.6672 59.1682 34.8923 59.3577 34.1268 59.604C33.503 59.8029 33.5125 59.8313 33.2951 59.225C32.7375 57.6241 31.9626 56.1273 31.0175 54.7253C30.0535 53.2949 28.9572 51.9781 27.6341 50.8603C27.3412 50.614 27.2656 50.3961 27.4168 50.0172C27.7854 49.0794 28.0972 48.1226 28.4375 47.1658C28.4753 47.0711 28.5225 46.9669 28.5792 46.8438Z" fill="#42E125"/>
<path d="M42.604 20.4531C43.2466 20.3016 43.8515 20.1595 44.4563 19.9984C44.9005 19.8753 45.3447 19.7616 45.7605 19.5721C46.1386 19.4016 46.2236 19.5627 46.3654 19.8753C46.9041 21.0784 47.4238 22.3004 48.0476 23.4656C49.0777 25.3696 50.4859 26.9801 52.1019 28.4105C52.3666 28.6379 52.4422 28.8273 52.3098 29.1683C51.9318 30.1535 51.601 31.1577 51.2514 32.1524C51.223 32.2376 51.1758 32.3134 51.1002 32.4555C47.0269 29.3199 44.2106 25.3507 42.604 20.4531Z" fill="#42E125"/>
<path d="M32.1992 66.7187C32.1803 66.3208 32.1708 65.9798 32.1425 65.6388C32.0669 64.7483 32.0102 63.8484 31.8967 62.9579C31.8589 62.6358 31.9346 62.4748 32.2181 62.3232C34.3161 61.2338 36.5276 60.5707 38.8902 60.457C39.2683 60.4381 39.6463 60.4096 40.0243 60.3812C40.3078 60.3623 40.4307 60.457 40.3834 60.7696C40.2322 61.7927 40.0999 62.8253 39.9298 63.8484C39.9109 63.9905 39.6935 64.2083 39.5612 64.2083C36.9245 64.2557 34.5713 65.1178 32.4354 66.624C32.3976 66.6713 32.3504 66.6713 32.1992 66.7187Z" fill="#313BDB"/>
<path d="M14.498 53.4852C14.7154 53.2389 14.8855 53.0589 15.0462 52.8694C15.6888 52.1116 16.3409 51.3632 16.9552 50.5864C17.1442 50.3401 17.3049 50.2927 17.5884 50.378C20.1212 51.1643 22.3232 52.4905 24.2228 54.3283C24.3835 54.4798 24.5725 54.603 24.8087 54.783C24.4307 55.0577 24.1755 55.2472 23.9204 55.4366C23.2777 55.9197 22.6445 56.4123 22.0113 56.9049C21.8318 57.047 21.7089 57.1418 21.4915 56.9428C19.5731 55.1524 17.3333 54.0251 14.7438 53.5799C14.6871 53.5704 14.6398 53.542 14.498 53.4852Z" fill="#E9F205"/>
<path d="M64.6903 26.6482C64.1894 27.1977 63.7358 27.6713 63.3105 28.1734C62.9136 28.6376 62.5639 29.1491 62.1575 29.6038C62.0536 29.727 61.7984 29.8217 61.6566 29.7838C58.897 28.9597 56.5438 27.4819 54.5497 25.4167C54.5214 25.3883 54.5025 25.341 54.4741 25.2936C55.2491 24.7063 56.0335 24.1284 56.8084 23.5411C56.9218 23.4558 57.0353 23.3706 57.1298 23.2664C57.3566 23.039 57.5361 23.0674 57.7724 23.2853C59.6436 25.0568 61.8551 26.1367 64.3879 26.5725C64.454 26.563 64.5202 26.5914 64.6903 26.6482Z" fill="#E9F205"/>
<path d="M39.0503 19.2588C39.2015 18.0083 39.3338 16.8905 39.5039 15.7727C39.5228 15.6401 39.7969 15.4695 39.9576 15.4601C41.5075 15.3653 43.0196 15.0717 44.4372 14.437C45.2216 14.0865 45.9587 13.6128 46.7148 13.196C46.8471 13.1202 46.97 13.035 47.159 12.9023C47.1873 13.1202 47.2062 13.2623 47.2251 13.4139C47.3291 14.5412 47.4331 15.6685 47.5087 16.7958C47.5181 16.9473 47.3858 17.1842 47.2535 17.26C45.4012 18.2736 43.4165 18.9177 41.309 19.1072C40.5719 19.183 39.8158 19.2114 39.0503 19.2588Z" fill="#313BDB"/>
<path d="M53.3774 64.5883C53.1506 64.3894 52.9899 64.2473 52.8293 64.1052C52.0449 63.4421 51.2699 62.779 50.4761 62.1348C50.2681 61.9643 50.1736 61.8222 50.2587 61.538C51.0904 58.8287 52.5363 56.4983 54.5304 54.4995C54.5871 54.4427 54.6627 54.4143 54.7478 54.3574C55.2581 55.049 55.7684 55.7215 56.2693 56.4036C56.4962 56.7162 56.8931 57.0383 56.9025 57.3509C56.9025 57.6351 56.4772 57.9288 56.2315 58.2224C54.7761 60.0034 53.8405 62.0211 53.453 64.2947C53.4436 64.3799 53.4152 64.4368 53.3774 64.5883Z" fill="#E9F205"/>
<path d="M66.8352 47.3085C66.5139 47.3464 66.2776 47.3748 66.0414 47.3938C65.0113 47.479 63.9811 47.5738 62.951 47.6401C62.7998 47.6496 62.5635 47.5169 62.4879 47.3748C61.4862 45.5087 60.8624 43.5193 60.645 41.4068C60.5789 40.8005 60.5883 40.1753 60.5411 39.5691C60.5127 39.2091 60.5978 39.0575 61.0136 39.1333C61.9587 39.2943 62.9038 39.4175 63.8583 39.5312C64.189 39.5691 64.2552 39.749 64.2647 40.0332C64.3781 42.3447 65.0207 44.495 66.2682 46.456C66.4383 46.7212 66.6179 46.977 66.8352 47.3085Z" fill="#313BDB"/>
<path d="M24.9976 25.1607C24.251 24.166 23.5233 23.1998 22.7578 22.1861C24.6857 20.1968 25.8954 17.8191 26.3396 14.9961C26.5097 15.1098 26.6137 15.1761 26.6987 15.2519C27.5777 15.9908 28.4566 16.7297 29.3166 17.4875C29.43 17.5822 29.5245 17.8285 29.4867 17.9517C28.655 20.7083 27.2185 23.0956 25.1394 25.0944C25.111 25.1228 25.0638 25.1323 24.9976 25.1607Z" fill="#E9F205"/>
<path d="M12.4473 32.5397C13.5246 32.4544 14.5548 32.3787 15.5849 32.2934C15.6321 32.2934 15.6794 32.2934 15.7267 32.2839C16.6623 32.1892 16.6717 32.1892 17.0686 33.0228C18.146 35.2774 18.7036 37.6552 18.6942 40.156C18.6942 40.2792 18.6847 40.4118 18.6753 40.535C18.6658 40.5823 18.6375 40.6202 18.5902 40.7055C17.9381 40.6013 17.2766 40.4971 16.6056 40.3929C16.237 40.336 15.859 40.2792 15.4809 40.2697C15.1029 40.2602 14.9706 40.1276 14.9611 39.7392C14.8855 37.7215 14.3563 35.8174 13.3829 34.0459C13.1088 33.5438 12.778 33.0702 12.4473 32.5397Z" fill="#313BDB"/>
<path d="M32.1177 43.6855V40.5001L29.2821 34.9662H31.1059L32.1177 37.0649L32.9047 38.8512H32.9921L33.7916 37.0649L34.816 34.9662H36.5773L33.7417 40.5001V43.6855H32.1177ZM37.3693 43.6855V34.9662H39.0058V42.3364H42.8657V43.6855H37.3693ZM48.3172 42.4738H48.2173C48.1423 42.6487 48.0507 42.8194 47.9425 42.986C47.8342 43.1526 47.701 43.2983 47.5427 43.4232C47.3845 43.5481 47.1971 43.6481 46.9806 43.723C46.7724 43.798 46.5309 43.8354 46.2561 43.8354C45.3733 43.8354 44.7029 43.4482 44.2449 42.6737C43.7952 41.8909 43.5703 40.7958 43.5703 39.3883C43.5703 37.906 43.8368 36.7734 44.3698 35.9906C44.9028 35.2077 45.7231 34.8163 46.8307 34.8163C47.2637 34.8163 47.6427 34.8746 47.9675 34.9912C48.3006 35.1078 48.5837 35.2702 48.8169 35.4784C49.0584 35.6866 49.2541 35.9364 49.404 36.2279C49.5622 36.5111 49.6872 36.8192 49.7788 37.1523L48.2797 37.577C48.2215 37.3938 48.1548 37.2148 48.0799 37.0399C48.0133 36.865 47.9216 36.7151 47.8051 36.5902C47.6968 36.4569 47.5635 36.3528 47.4053 36.2779C47.2471 36.1946 47.0514 36.153 46.8182 36.153C46.2769 36.153 45.8896 36.3695 45.6565 36.8025C45.4233 37.2356 45.3067 37.8269 45.3067 38.5764V39.9755C45.3067 40.3502 45.3317 40.6958 45.3816 41.0123C45.4399 41.3204 45.5315 41.5869 45.6565 41.8118C45.7814 42.0366 45.9438 42.2115 46.1436 42.3364C46.3435 42.453 46.5933 42.5113 46.8931 42.5113C47.3595 42.5113 47.7134 42.3739 47.955 42.0991C48.1965 41.8159 48.3172 41.4578 48.3172 41.0248V40.3127H46.7308V39.126H49.7788V43.6855H48.3172V42.4738Z" fill="#E9F205"/>
</g>
<defs>
<clipPath id="clip0_95_2413">
<rect width="80" height="80" fill="white"/>
</clipPath>
</defs>
</svg>
