<svg width="24" height="24" viewBox="0 0 24 24" fill="none" xmlns="http://www.w3.org/2000/svg">
<g opacity="0.16">
<path d="M5 15V17C5 18.054 5.95 19 7 19H10V21H7C5.93913 21 4.92172 20.5786 4.17157 19.8284C3.42143 19.0783 3 18.0609 3 17V15H5ZM17 3C18.0609 3 19.0783 3.42143 19.8284 4.17157C20.5786 4.92172 21 5.93913 21 7V9H19V7C19 6.46957 18.7893 5.96086 18.4142 5.58579C18.0391 5.21071 17.5304 5 17 5H14V3H17Z" fill="#F5F5F0"/>
<rect x="2" y="2" width="9" height="11" rx="2" fill="#F5F5F0"/>
<rect x="13" y="11" width="9" height="11" rx="2" fill="#F5F5F0"/>
</g>
</svg>
