<svg width="11" height="10" viewBox="0 0 11 10" fill="none" xmlns="http://www.w3.org/2000/svg">
<path d="M5.67188 0C8.43338 0 10.6719 2.2385 10.6719 5C10.6719 7.7615 8.43338 10 5.67188 10C2.91038 10 0.671875 7.7615 0.671875 5C0.671875 2.2385 2.91038 0 5.67188 0ZM6.50688 7H4.83688L4.14688 7.9485L4.42388 8.8015C4.82672 8.93343 5.24798 9.00044 5.67188 9C6.10738 9 6.52688 8.93 6.91988 8.8015L7.19638 7.9485L6.50638 7H6.50688ZM2.31888 4.436L1.67288 4.9045L1.67188 5C1.67188 5.865 1.94638 6.6655 2.41288 7.32H3.36788L4.02938 6.41L3.51538 4.825L2.31888 4.436ZM9.02488 4.436L7.82838 4.825L7.31438 6.41L7.97538 7.32H8.93038C9.41379 6.64309 9.67309 5.8318 9.67188 5L9.67038 4.9045L9.02488 4.436ZM6.81688 1.1665L6.17188 1.6365V2.895L7.51888 3.8735L8.63838 3.51L8.91538 2.6585C8.39919 1.94394 7.66178 1.41952 6.81738 1.1665H6.81688ZM4.52588 1.1665C3.6814 1.41966 2.94398 1.94425 2.42788 2.659L2.70488 3.51L3.82438 3.8735L5.17188 2.895V1.6365L4.52638 1.1665H4.52588Z" fill="#242424"/>
</svg>
