<svg width="20" height="20" viewBox="0 0 20 20" fill="none" xmlns="http://www.w3.org/2000/svg">
<path d="M9.99996 18.3332C5.39746 18.3332 1.66663 14.6023 1.66663 9.99984C1.66663 5.39734 5.39746 1.6665 9.99996 1.6665C14.6025 1.6665 18.3333 5.39734 18.3333 9.99984C18.3333 14.6023 14.6025 18.3332 9.99996 18.3332ZM9.16663 13.3332V14.9998H10.8333V13.3332H11.6666C12.0535 13.3332 12.4328 13.2254 12.7619 13.022C13.091 12.8186 13.357 12.5276 13.53 12.1815C13.703 11.8355 13.7763 11.4481 13.7415 11.0627C13.7068 10.6774 13.5654 10.3094 13.3333 9.99984C13.5654 9.69032 13.7068 9.32227 13.7415 8.93693C13.7763 8.5516 13.703 8.1642 13.53 7.81814C13.357 7.47209 13.091 7.18105 12.7619 6.97765C12.4328 6.77424 12.0535 6.6665 11.6666 6.6665H10.8333V4.99984H9.16663V6.6665H6.66663V13.3332H9.16663ZM8.33329 10.8332H11.6666C11.7771 10.8332 11.8831 10.8771 11.9613 10.9552C12.0394 11.0333 12.0833 11.1393 12.0833 11.2498C12.0833 11.3603 12.0394 11.4663 11.9613 11.5445C11.8831 11.6226 11.7771 11.6665 11.6666 11.6665H8.33329V10.8332ZM8.33329 8.33317H11.6666C11.7771 8.33317 11.8831 8.37707 11.9613 8.45521C12.0394 8.53335 12.0833 8.63933 12.0833 8.74984C12.0833 8.86034 12.0394 8.96633 11.9613 9.04447C11.8831 9.12261 11.7771 9.1665 11.6666 9.1665H8.33329V8.33317Z" fill="white"/>
</svg>
