<svg width="200" height="200" viewBox="0 0 200 200" fill="none" xmlns="http://www.w3.org/2000/svg">
<path fill-rule="evenodd" clip-rule="evenodd" d="M-1.11987e-08 200.586L0 200.842L0.256522 200.842L33.2414 200.842L33.4979 200.842L66.498 200.842L66.7546 200.842L99.7471 200.842L100.004 200.842L133.004 200.842L133.26 200.842L166.253 200.842L166.509 200.842L199.761 200.842L200.017 200.842L200.017 200.586L200.017 167.452L200.017 167.195L200.017 167.195L200.017 166.939L200.017 134.062L200.017 133.805L200.017 133.805L200.017 133.549L200.017 100.673L200.017 100.417L200.017 100.415L200.017 100.159L200.017 67.2846L200.017 67.0281L200.017 67.0265L200.017 66.77L200.017 33.896L200.017 33.6395L200.017 33.6381L200.017 33.3816L200.017 0.249442L200.017 -0.00708882L199.761 -0.00708881L166.768 -0.00708737L166.512 -0.00708736L166.509 -0.00708736L166.253 -0.00708735L133.512 -0.00708591L133.512 -0.00733005L133.255 -0.00733004L100.263 -0.0073286L100.006 -0.00732859L100.004 -0.00732859L99.7471 -0.00732858L67.0059 -0.00732715L66.7546 -0.00732714L66.7494 -0.00732714L66.498 -0.00732713L33.7645 -0.00732569L33.508 -0.00732568L33.4979 -0.00732568L33.2414 -0.00732567L0.25652 -0.00732423L-1.62685e-06 -0.00732422L-1.61563e-06 0.249207L-1.67357e-07 33.3816L-1.59787e-06 33.3816L-1.58667e-06 33.6381L-1.38414e-07 66.77L-1.56893e-06 66.77L-1.55773e-06 67.0266L-1.09464e-07 100.159L-1.53998e-06 100.159L-1.52875e-06 100.415L-8.04529e-08 133.549L-1.51096e-06 133.549L-1.49977e-06 133.805L-5.14389e-08 166.939L-1.48195e-06 166.939L-1.47074e-06 167.195L-1.11987e-08 200.586ZM166.253 0.505959L133.517 0.50596L133.517 33.3816L166.253 33.3816L166.253 0.505959ZM166.253 33.896L133.517 33.896L133.517 66.77L166.253 66.77L166.253 33.896ZM199.504 33.3816L166.768 33.3816L166.768 0.505959L199.504 0.505957L199.504 33.3816ZM166.768 33.896L166.768 66.77L199.504 66.77L199.504 33.896L166.768 33.896ZM99.7471 0.505718L67.0111 0.505719L67.0111 33.3816L99.7471 33.3816L99.7471 0.505718ZM99.7471 33.8957L67.0111 33.8957L67.0111 66.77L99.7471 66.77L99.7471 33.8957ZM132.999 33.3816L100.263 33.3816L100.263 0.505718L132.999 0.505716L132.999 33.3816ZM100.263 33.8957L100.263 66.77L132.999 66.77L132.999 33.8957L100.263 33.8957ZM33.2414 0.505721L0.513042 0.505722L0.513043 33.3816L33.2414 33.3816L33.2414 0.505721ZM33.2414 33.8957L0.513042 33.8957L0.513043 66.77L33.2414 66.77L33.2414 33.8957ZM66.4928 33.3816L33.7645 33.3816L33.7645 0.505721L66.4928 0.505719L66.4928 33.3816ZM33.7645 33.8957L33.7645 66.77L66.4928 66.77L66.4928 33.8957L33.7645 33.8957ZM166.253 67.2846L133.517 67.2846L133.517 100.159L166.253 100.159L166.253 67.2846ZM166.768 67.2846L166.768 100.159L199.504 100.159L199.504 67.2846L166.768 67.2846ZM99.7471 67.2846L67.0111 67.2846L67.0111 100.159L99.7471 100.159L99.7471 67.2846ZM100.263 67.2846L100.263 100.159L132.999 100.159L132.999 67.2846L100.263 67.2846ZM33.2414 67.2847L0.513042 67.2847L0.513043 100.159L33.2414 100.159L33.2414 67.2847ZM33.7645 67.2847L33.7645 100.159L66.4928 100.159L66.4928 67.2846L33.7645 67.2847ZM166.253 100.673L133.517 100.673L133.517 133.549L166.253 133.549L166.253 100.673ZM166.768 100.673L166.768 133.549L199.504 133.549L199.504 100.673L166.768 100.673ZM99.7471 100.673L67.0111 100.673L67.0111 133.549L99.7471 133.549L99.7471 100.673ZM100.263 100.673L100.263 133.549L132.999 133.549L132.999 100.673L100.263 100.673ZM33.2414 100.673L0.513042 100.673L0.513043 133.549L33.2414 133.549L33.2414 100.673ZM33.7645 100.673L33.7645 133.549L66.4928 133.549L66.4928 100.673L33.7645 100.673ZM166.253 134.062L133.517 134.062L133.517 166.939L166.253 166.939L166.253 134.062ZM166.768 134.062L166.768 166.939L199.504 166.939L199.504 134.062L166.768 134.062ZM99.7471 134.062L67.0111 134.062L67.0111 166.939L99.7471 166.939L99.7471 134.062ZM100.263 134.062L100.263 166.939L132.999 166.939L132.999 134.062L100.263 134.062ZM33.2414 134.062L0.513042 134.062L0.513043 166.939L33.2414 166.939L33.2414 134.062ZM33.7645 134.062L33.7645 166.939L66.4928 166.939L66.4928 134.062L33.7645 134.062ZM166.253 167.452L133.517 167.452L133.517 200.329L166.253 200.329L166.253 167.452ZM166.768 200.329L166.768 167.452L199.504 167.452L199.504 200.329L166.768 200.329ZM99.7471 167.452L67.0111 167.452L67.0111 200.329L99.7471 200.329L99.7471 167.452ZM100.263 200.329L100.263 167.452L132.999 167.452L132.999 200.329L100.263 200.329ZM33.2414 167.452L0.513042 167.452L0.513044 200.329L33.2414 200.329L33.2414 167.452ZM33.7645 200.329L33.7645 167.452L66.4928 167.452L66.4928 200.329L33.7645 200.329Z" fill="url(#paint0_radial_448_15448)"/>
<defs>
<radialGradient id="paint0_radial_448_15448" cx="0" cy="0" r="1" gradientUnits="userSpaceOnUse" gradientTransform="translate(100.009 100.417) scale(100.009 100.425)">
<stop stop-color="#242424"/>
<stop offset="1" stop-color="#242424" stop-opacity="0.05"/>
</radialGradient>
</defs>
</svg>
