<svg width="200" height="200" viewBox="0 0 200 200" fill="none" xmlns="http://www.w3.org/2000/svg">
<path fill-rule="evenodd" clip-rule="evenodd" d="M-0.00781251 199.593L-0.0078125 199.849L0.248709 199.849L33.2349 199.849L33.4914 199.849L66.4925 199.849L66.749 199.849L99.7427 199.849L99.9992 199.849L133 199.849L133.257 199.849L166.25 199.849L166.507 199.849L166.51 199.849L166.766 199.849L199.76 199.849L200.016 199.849L200.016 199.593L200.016 166.651L200.016 166.394L200.016 166.394L200.016 166.138L200.016 133.453L200.016 133.196L200.016 133.196L200.016 132.939L200.016 100.256L200.016 99.9991L200.016 99.9979L200.016 99.7414L200.016 67.0591L200.016 66.8026L200.016 66.8009L200.016 66.5444L200.016 33.8618L200.016 33.6053L200.016 33.6044L200.016 33.3478L200.016 0.407096L200.016 0.15058L199.76 0.15058L166.766 0.150566L166.51 0.150566L166.507 0.150582L166.25 0.150582L133.508 0.150568L133.257 0.150568L133.252 0.150568L133 0.150568L100.258 0.150569L100.002 0.150569L99.9992 0.150569L99.7427 0.150569L67.0007 0.150571L66.749 0.150571L66.7442 0.150571L66.4925 0.150571L33.758 0.150572L33.5014 0.150572L33.4914 0.150572L33.2349 0.150572L0.248707 0.150574L-0.00781431 0.150574L-0.0078143 0.407089L-0.00781423 33.3478L-0.00781422 33.6044L-0.00781415 66.5444L-0.00781414 66.8009L-0.0078141 99.7414L-0.00781409 99.9979L-0.00781542 132.939L-0.00781541 133.196L-0.00781397 166.138L-0.00781396 166.394L-0.00781396 166.394L-0.00781395 166.651L-0.00781251 199.593ZM166.25 0.663613L133.513 0.663614L133.513 33.3478L166.25 33.3478L166.25 0.663613ZM166.25 33.8618L133.513 33.8618L133.513 66.5444L166.25 66.5444L166.25 33.8618ZM199.503 33.3478L166.766 33.3478L166.766 0.663628L199.503 0.663627L199.503 33.3478ZM166.766 33.8618L166.766 66.5444L199.503 66.5444L199.503 33.8618L166.766 33.8618ZM99.7427 0.663616L67.0055 0.663617L67.0055 33.3478L99.7427 33.3478L99.7427 0.663616ZM99.7427 33.8618L67.0055 33.8618L67.0055 66.5444L99.7427 66.5444L99.7427 33.8618ZM132.995 33.3478L100.258 33.3478L100.258 0.663616L132.995 0.663614L132.995 33.3478ZM100.258 33.8618L100.258 66.5444L132.995 66.5444L132.995 33.8618L100.258 33.8618ZM33.2349 0.663619L0.505229 0.66362L0.505231 33.3478L33.2349 33.3478L33.2349 0.663619ZM33.2349 33.8618L0.505229 33.8618L0.505231 66.5444L33.2349 66.5444L33.2349 33.8618ZM66.4876 33.3478L33.758 33.3478L33.758 0.663619L66.4876 0.663617L66.4876 33.3478ZM33.758 33.8618L33.758 66.5444L66.4876 66.5444L66.4876 33.8618L33.758 33.8618ZM166.25 67.0591L133.513 67.0591L133.513 99.7414L166.25 99.7414L166.25 67.0591ZM166.766 67.0591L166.766 99.7414L199.503 99.7414L199.503 67.0591L166.766 67.0591ZM99.7427 67.0591L67.0055 67.0591L67.0055 99.7414L99.7426 99.7414L99.7427 67.0591ZM100.258 67.0591L100.258 99.7414L132.995 99.7414L132.995 67.0591L100.258 67.0591ZM33.2349 67.0591L0.505229 67.0591L0.505231 99.7414L33.2349 99.7414L33.2349 67.0591ZM33.758 67.0591L33.758 99.7414L66.4876 99.7414L66.4876 67.0591L33.758 67.0591ZM166.25 100.256L133.513 100.256L133.513 132.939L166.25 132.939L166.25 100.256ZM166.766 100.256L166.766 132.939L199.503 132.939L199.503 100.256L166.766 100.256ZM99.7426 100.256L67.0055 100.256L67.0055 132.939L99.7426 132.939L99.7426 100.256ZM100.258 100.256L100.258 132.939L132.995 132.939L132.995 100.256L100.258 100.256ZM33.2349 100.256L0.505229 100.256L0.505231 132.939L33.2349 132.939L33.2349 100.256ZM33.758 100.256L33.758 132.939L66.4876 132.939L66.4876 100.256L33.758 100.256ZM166.25 133.453L133.513 133.453L133.513 166.138L166.25 166.138L166.25 133.453ZM166.766 133.453L166.766 166.138L199.503 166.138L199.503 133.453L166.766 133.453ZM99.7426 133.453L67.0055 133.453L67.0055 166.138L99.7427 166.138L99.7426 133.453ZM100.258 133.453L100.258 166.138L132.995 166.138L132.995 133.453L100.258 133.453ZM33.2349 133.453L0.505229 133.453L0.505231 166.138L33.2349 166.138L33.2349 133.453ZM33.758 133.453L33.758 166.138L66.4876 166.138L66.4876 133.453L33.758 133.453ZM166.25 166.651L133.513 166.651L133.513 199.336L166.25 199.336L166.25 166.651ZM166.766 199.336L166.766 166.651L199.503 166.651L199.503 199.336L166.766 199.336ZM99.7427 166.651L67.0055 166.651L67.0055 199.336L99.7427 199.336L99.7427 166.651ZM100.258 199.336L100.258 166.651L132.995 166.651L132.995 199.336L100.258 199.336ZM33.2349 166.651L0.50523 166.651L0.505231 199.336L33.2349 199.336L33.2349 166.651ZM33.758 199.336L33.758 166.651L66.4876 166.651L66.4876 199.336L33.758 199.336Z" fill="url(#paint0_radial_448_15633)"/>
<defs>
<radialGradient id="paint0_radial_448_15633" cx="0" cy="0" r="1" gradientUnits="userSpaceOnUse" gradientTransform="translate(100.004 99.9998) scale(100.012 99.8493)">
<stop stop-color="white"/>
<stop offset="1" stop-color="white" stop-opacity="0.05"/>
</radialGradient>
</defs>
</svg>
