<svg width="20" height="28" viewBox="0 0 20 28" fill="none" xmlns="http://www.w3.org/2000/svg">
<path d="M11.3332 14.0001H15.3332L8.6665 23.3334V16.6667H4.6665L11.3332 7.33342V14.0001ZM8.6665 6.00008H3.33317V24.6667H16.6665V6.00008H11.3332V3.33341H8.6665V6.00008ZM5.99984 3.33341V2.00008C5.99984 1.64646 6.14031 1.30732 6.39036 1.05727C6.64041 0.807224 6.97955 0.666748 7.33317 0.666748H12.6665C13.0201 0.666748 13.3593 0.807224 13.6093 1.05727C13.8594 1.30732 13.9998 1.64646 13.9998 2.00008V3.33341H17.9998C18.3535 3.33341 18.6926 3.47389 18.9426 3.72394C19.1927 3.97399 19.3332 4.31313 19.3332 4.66675V26.0001C19.3332 26.3537 19.1927 26.6928 18.9426 26.9429C18.6926 27.1929 18.3535 27.3334 17.9998 27.3334H1.99984C1.64622 27.3334 1.30708 27.1929 1.05703 26.9429C0.80698 26.6928 0.666504 26.3537 0.666504 26.0001V4.66675C0.666504 4.31313 0.80698 3.97399 1.05703 3.72394C1.30708 3.47389 1.64622 3.33341 1.99984 3.33341H5.99984Z" fill="white"/>
</svg>
