<svg width="117" height="40" viewBox="0 0 117 40" fill="none" xmlns="http://www.w3.org/2000/svg">
<rect x="0.35" y="0.35" width="116.3" height="39.3" rx="9.65" fill="#F7A300"/>
<path d="M13.472 26V14.832H15.888V24.032H20.688V26H13.472ZM23.6515 26V14.832H30.7875V16.8H26.0515V19.36H30.6275V21.328H26.0515V24.032H30.7875V26H23.6515ZM39.3191 24.416H39.1751C39.0791 24.6507 38.9617 24.8747 38.8231 25.088C38.6844 25.3013 38.5137 25.4933 38.3111 25.664C38.1084 25.824 37.8684 25.952 37.5911 26.048C37.3244 26.144 37.0204 26.192 36.6791 26.192C36.1351 26.192 35.6497 26.064 35.2231 25.808C34.8071 25.552 34.4551 25.1787 34.1671 24.688C33.8791 24.1973 33.6604 23.6 33.5111 22.896C33.3724 22.192 33.3031 21.3973 33.3031 20.512C33.3031 18.6133 33.6497 17.1627 34.3431 16.16C35.0364 15.1467 36.1084 14.64 37.5591 14.64C38.1351 14.64 38.6417 14.72 39.0791 14.88C39.5164 15.0293 39.8897 15.248 40.1991 15.536C40.5191 15.8133 40.7804 16.1493 40.9831 16.544C41.1857 16.9387 41.3457 17.376 41.4631 17.856L39.2231 18.4C39.1591 18.1653 39.0844 17.9413 38.9991 17.728C38.9244 17.504 38.8231 17.3067 38.6951 17.136C38.5671 16.9653 38.4071 16.832 38.2151 16.736C38.0231 16.6293 37.7884 16.576 37.5111 16.576C36.9031 16.576 36.4711 16.8267 36.2151 17.328C35.9697 17.8293 35.8471 18.5333 35.8471 19.44V21.264C35.8471 22.1707 35.9804 22.896 36.2471 23.44C36.5244 23.984 37.0097 24.256 37.7031 24.256C38.2471 24.256 38.6524 24.096 38.9191 23.776C39.1857 23.456 39.3191 23.0453 39.3191 22.544V21.728H37.4151V20.032H41.4631V26H39.3191V24.416ZM44.3946 26V14.832H51.5306V16.8H46.7946V19.36H51.3706V21.328H46.7946V24.032H51.5306V26H44.3946ZM56.6861 18.576H56.5101V26H54.4621V14.832H57.3421L59.8861 22.256H60.0621V14.832H62.1101V26H59.2301L56.6861 18.576ZM64.8816 14.832H68.4816C69.9856 14.832 71.1003 15.312 71.8256 16.272C72.551 17.232 72.9136 18.6133 72.9136 20.416C72.9136 22.2187 72.551 23.6 71.8256 24.56C71.1003 25.52 69.9856 26 68.4816 26H64.8816V14.832ZM68.3216 24.112C69.0363 24.112 69.559 23.8827 69.8896 23.424C70.2203 22.9653 70.3856 22.2987 70.3856 21.424V19.392C70.3856 18.528 70.2203 17.8667 69.8896 17.408C69.559 16.9493 69.0363 16.72 68.3216 16.72H67.2496V24.112H68.3216ZM81.1892 26L80.4852 23.312H77.4292L76.7412 26H74.3092L77.3332 14.832H80.7252L83.7492 26H81.1892ZM79.0292 17.152H78.9012L77.8132 21.376H80.1172L79.0292 17.152ZM88.1847 26H85.8167V14.832H90.1367C90.6807 14.832 91.166 14.9173 91.5927 15.088C92.0194 15.248 92.3767 15.4827 92.6647 15.792C92.9634 16.1013 93.1874 16.4747 93.3367 16.912C93.486 17.3493 93.5607 17.84 93.5607 18.384C93.5607 19.1733 93.39 19.8507 93.0487 20.416C92.7074 20.9813 92.222 21.3547 91.5927 21.536L93.7847 26H91.1607L89.2887 21.856H88.1847V26ZM89.5607 20C90.126 20 90.5154 19.8933 90.7287 19.68C90.9527 19.4667 91.0647 19.1147 91.0647 18.624V18.144C91.0647 17.6533 90.9527 17.3013 90.7287 17.088C90.5154 16.8747 90.126 16.768 89.5607 16.768H88.1847V20H89.5607ZM98.5722 26V22.048L95.0362 14.832H97.7082L98.8922 17.424L99.7562 19.616H99.8842L100.748 17.424L101.932 14.832H104.508L100.972 22.048V26H98.5722Z" fill="#191919"/>
<rect x="0.35" y="0.35" width="116.3" height="39.3" rx="9.65" stroke="url(#paint0_linear_39_2074)" stroke-width="0.7"/>
<defs>
<linearGradient id="paint0_linear_39_2074" x1="31.2975" y1="-7.00001" x2="40.8479" y2="20.9349" gradientUnits="userSpaceOnUse">
<stop stop-color="white"/>
<stop offset="1" stop-color="white" stop-opacity="0"/>
</linearGradient>
</defs>
</svg>
