<svg width="51" height="51" viewBox="0 0 51 51" fill="none" xmlns="http://www.w3.org/2000/svg">
<path d="M0.666992 25.6665C0.666992 39.474 11.8595 50.6665 25.667 50.6665C39.4745 50.6665 50.667 39.474 50.667 25.6665C50.667 11.859 39.4745 0.666504 25.667 0.666504C11.8595 0.666504 0.666992 11.859 0.666992 25.6665Z" fill="#B9FD02"/>
<path d="M13.3302 29.5561C12.9795 30.025 12.6823 30.4694 12.3413 30.8748C11.8639 31.4365 11.333 31.9494 10.9871 32.6185C9.43314 35.6175 11.3183 39.3832 14.6406 39.9205C15.4492 40.0524 16.2384 39.9987 17.0519 39.7593C17.0957 40.0035 17.1298 40.2331 17.1834 40.4578C17.2614 40.7899 17.3442 41.122 17.4416 41.4493C17.4854 41.6056 17.4757 41.6789 17.2955 41.7228C15.1131 42.265 13.1012 41.8791 11.3037 40.5408C9.74004 39.3784 8.81936 37.7959 8.57579 35.8666C8.29813 33.6442 8.92166 31.6856 10.4707 30.0396C10.6169 29.8882 10.7728 29.7417 10.8945 29.5707C11.0212 29.3851 11.1819 29.3314 11.3914 29.3509C11.9224 29.3949 12.4582 29.434 12.9892 29.4779C13.0769 29.4828 13.1597 29.5121 13.3302 29.5561Z" fill="#333333"/>
<path d="M21.1684 13.5586C20.8274 13.3242 20.5303 13.1483 20.2624 12.9334C19.8581 12.6062 19.483 12.2447 19.0835 11.9175C17.549 10.6476 15.8149 10.3496 13.9735 11.0481C12.2003 11.7221 11.1433 13.0555 10.7877 14.936C10.6513 15.6442 10.7146 16.3475 10.8802 17.0411C10.8997 17.1241 10.9192 17.212 10.9387 17.2999C10.3151 17.4465 9.7111 17.5881 9.05834 17.7444C8.98527 17.3879 8.88785 17.0264 8.844 16.6601C8.58582 14.2961 9.30678 12.274 11.0166 10.628C12.0834 9.60234 13.3841 8.98692 14.8503 8.8062C17.1399 8.52291 19.1274 9.2116 20.7885 10.8283C20.8128 10.8527 20.8323 10.882 20.8615 10.8967C21.3243 11.1555 21.4023 11.5707 21.3389 12.0591C21.3048 12.3229 21.3048 12.5964 21.2756 12.8601C21.2464 13.0555 21.2123 13.2607 21.1684 13.5586Z" fill="#333333"/>
<path d="M29.6342 37.5559C29.9557 37.7806 30.2919 37.9906 30.5988 38.2349C30.9592 38.523 31.2856 38.8552 31.6363 39.1531C32.8152 40.1641 34.184 40.5549 35.7136 40.3351C37.9057 40.0225 39.635 38.269 39.9712 36.0662C40.0881 35.2994 40.0199 34.5424 39.7958 33.7755C40.4096 33.6339 41.0185 33.4922 41.6761 33.3408C41.7248 33.5313 41.793 33.7413 41.832 33.9611C42.4068 37.1506 40.9113 40.1837 38.0129 41.6343C36.8779 42.2058 35.6552 42.4256 34.3789 42.3181C32.6106 42.1667 31.1492 41.4096 29.8729 40.1983C29.5027 39.8467 29.3468 39.5194 29.4199 39.031C29.4881 38.5523 29.5076 38.0688 29.5465 37.5853C29.5806 37.5755 29.6099 37.5657 29.6342 37.5559Z" fill="#333333"/>
<path d="M30.1161 41.6093C30.6714 41.9561 31.2024 42.2882 31.7528 42.6252C31.329 43.3969 30.7883 44.0661 30.1161 44.6278C29.0103 45.5607 27.7291 46.1077 26.3018 46.2542C25.045 46.3812 23.8272 46.1858 22.6776 45.6339C20.7485 44.7108 19.482 43.2113 18.8633 41.1648C18.6051 40.3052 18.6198 39.4114 18.5662 38.5322C18.5613 38.4882 18.5808 38.4247 18.61 38.4003C19.1264 37.9363 19.6427 37.4723 20.1591 37.0083C20.1932 37.023 20.2273 37.0376 20.2614 37.0523C20.3345 37.4967 20.4221 37.9412 20.4709 38.3905C20.5342 38.962 20.5147 39.5481 20.6121 40.1147C20.9093 41.8046 21.8397 43.055 23.379 43.8023C25.1084 44.6424 26.8084 44.4959 28.4257 43.4702C29.1077 43.0355 29.6241 42.4347 30.0284 41.7314C30.0576 41.6923 30.0868 41.6532 30.1161 41.6093Z" fill="#333333"/>
<path d="M37.0078 30.7295C37.2465 30.666 37.4073 30.6074 37.568 30.5879C38.2256 30.5097 38.8881 30.4218 39.5506 30.3876C40.9877 30.3144 42.1617 29.7136 43.1018 28.6537C45.2257 26.2506 44.5584 22.4556 41.7573 20.8975C41.7135 20.8731 41.6745 20.8486 41.6258 20.8193C41.9668 20.2772 42.3078 19.7399 42.6585 19.1831C43.2236 19.4859 43.74 19.8669 44.2027 20.3309C45.4206 21.552 46.0879 23.0221 46.2584 24.7463C46.5751 27.9992 44.4366 31.091 41.4115 32.0385C40.7149 32.2583 40.0037 32.356 39.2827 32.3755C39.1853 32.3755 39.083 32.356 38.9904 32.3804C38.5812 32.5074 38.3279 32.2974 38.0941 31.9994C37.7531 31.5794 37.3975 31.1838 37.0078 30.7295Z" fill="#333333"/>
<path d="M20.7705 9.7108C20.2347 9.39332 19.7378 9.09049 19.236 8.79744C19.085 8.70952 19.1776 8.6216 19.2263 8.53369C19.6257 7.845 20.1226 7.23447 20.7364 6.73139C22.5485 5.24169 24.614 4.7093 26.8889 5.25634C29.4707 5.87664 31.1562 7.5373 31.9745 10.0527C32.1791 10.6779 32.184 11.3617 32.2766 12.0211C32.2912 12.1432 32.2571 12.2702 32.2912 12.3874C32.3983 12.7635 32.2522 13.0126 31.9697 13.2421C31.5459 13.5889 31.1367 13.9552 30.7226 14.3118C30.6885 14.2971 30.6593 14.2874 30.6252 14.2727C30.5521 13.8673 30.4596 13.4668 30.4108 13.0614C30.3329 12.3776 30.3426 11.6743 30.216 11.0002C29.8214 8.88535 27.9119 7.21493 25.7734 7.02933C24.424 6.91211 23.2208 7.26378 22.1491 8.07456C21.6473 8.45554 21.2382 8.92931 20.9166 9.47635C20.8679 9.56427 20.8143 9.64242 20.7705 9.7108Z" fill="#333333"/>
<path d="M37.5696 21.3803C37.857 20.9896 38.1298 20.5891 38.4269 20.213C38.8361 19.7002 39.3232 19.2361 39.6691 18.6842C41.4959 15.7683 39.864 11.8804 36.5222 11.1038C35.6795 10.9085 34.8514 10.928 34.0184 11.1429C33.9697 11.1576 33.9258 11.1673 33.8771 11.1771C33.8625 11.182 33.8479 11.1673 33.8138 11.1624C33.731 10.7815 33.653 10.3956 33.5653 10.0098C33.5312 9.85346 33.4971 9.68739 33.4289 9.54086C33.3413 9.34549 33.4241 9.28688 33.5946 9.24292C35.0121 8.88637 36.4151 8.93033 37.779 9.45783C40.2342 10.4151 41.754 12.2126 42.2314 14.8012C42.6796 17.2336 41.944 19.3485 40.2196 21.1166C40.2147 21.1215 40.205 21.1264 40.205 21.1361C39.937 21.6099 39.5084 21.6734 39.0261 21.6148C38.5633 21.5611 38.0957 21.5269 37.6329 21.4829C37.6085 21.4438 37.5891 21.4145 37.5696 21.3803Z" fill="#333333"/>
<path d="M9.7097 30.2774C9.36384 30.8342 9.03259 31.3715 8.66724 31.9576C8.31651 31.7085 7.94141 31.4741 7.60042 31.1957C6.43618 30.2384 5.64702 29.0222 5.28655 27.5569C4.68738 25.1147 5.20861 22.9217 6.88434 21.0462C8.12652 19.6541 9.7097 18.8971 11.5803 18.7701C11.97 18.7457 12.3548 18.7212 12.7445 18.7017C12.8079 18.6968 12.8955 18.7261 12.9345 18.775C13.3681 19.278 13.7967 19.786 14.2254 20.294C14.24 20.3086 14.2449 20.3379 14.2693 20.4014C13.9234 20.4698 13.5873 20.5626 13.2463 20.6017C12.764 20.6554 12.2769 20.6847 11.7898 20.6994C9.37845 20.7726 7.22046 22.785 7.02074 25.1929C6.83563 27.3957 7.70759 29.0759 9.61228 30.2139C9.6415 30.2335 9.6756 30.2579 9.7097 30.2774Z" fill="#333333"/>
<path d="M30.4639 16.0941C31.0289 15.7133 31.5599 15.3861 32.0617 15.015C32.4173 14.7513 32.7534 14.4486 33.07 14.1361C34.6678 12.5785 37.235 13.1107 38.0047 15.1713C38.2823 15.9086 38.258 16.6508 37.9657 17.3832C37.9024 17.5394 37.8147 17.5883 37.6685 17.5199C37.196 17.3099 36.7235 17.0951 36.2559 16.8803C36.139 16.8265 36.1243 16.7533 36.1731 16.6263C36.3728 16.1429 36.212 15.6351 35.798 15.3568C35.3742 15.0736 34.8529 15.1175 34.4827 15.4838C33.6595 16.2992 32.7436 16.9926 31.7353 17.5687C31.4284 17.7445 31.4138 17.7494 31.2335 17.4515C30.9656 17.0072 30.7172 16.5433 30.4639 16.0941Z" fill="#333333"/>
<path d="M15.1647 34.5135C15.1355 34.5868 15.1111 34.6453 15.0916 34.7039C14.9211 35.1629 15.0575 35.6268 15.4472 35.9198C15.8321 36.2079 16.3289 36.2079 16.7089 35.8954C17.0353 35.6268 17.3178 35.3094 17.6588 35.0604C18.3116 34.5819 18.9935 34.1424 19.6609 33.6834C19.8022 33.5858 19.9045 33.5955 19.9922 33.7518C20.2406 34.2059 20.4988 34.66 20.7375 35.119C20.7667 35.1727 20.7229 35.3192 20.6693 35.3436C19.6804 35.8758 18.8474 36.5985 18.0095 37.3358C16.2948 38.8397 13.6448 37.9559 13.1577 35.7245C13.0262 35.1239 13.07 34.5086 13.3136 33.9276C13.372 33.7908 13.4402 33.7274 13.6107 33.7762C14.1612 33.9373 14.6776 34.1815 15.1647 34.5135Z" fill="#333333"/>
<path d="M16.208 13.1934C16.4126 13.252 16.7829 13.3545 17.1531 13.457C17.2944 13.4961 17.3236 13.5986 17.27 13.7256C17.0605 14.209 16.8413 14.6875 16.627 15.166C16.5783 15.2783 16.5101 15.3076 16.3785 15.2588C15.8573 15.0635 15.3458 15.2344 15.0779 15.669C14.81 16.1084 14.8879 16.5869 15.2825 16.9971C16.1058 17.8467 16.8121 18.7842 17.3772 19.8243C17.4551 19.9659 17.4502 20.0538 17.2992 20.1368C16.8511 20.3809 16.4078 20.6299 15.9645 20.8838C15.833 20.9571 15.7648 20.918 15.6966 20.796C15.2046 19.8633 14.5469 19.0528 13.8308 18.2813C12.6422 16.9922 12.7251 15.1074 13.9916 13.96C14.5177 13.4863 15.2776 13.1982 16.208 13.1934Z" fill="#333333"/>
<path d="M15.5851 27.0641C15.4097 27.6452 15.2441 28.2165 15.059 28.7878C15.0444 28.8317 14.9031 28.8659 14.83 28.8513C14.2016 28.7292 13.5781 28.5729 12.9448 28.4802C12.4334 28.4069 11.9072 28.4411 11.3958 28.3679C10.251 28.2018 9.43749 27.5573 9.0283 26.4733C8.61911 25.3844 8.79448 24.3639 9.5544 23.4606C9.85643 23.0993 10.2218 22.8258 10.6602 22.65C10.8063 22.5915 10.9086 22.5915 10.9671 22.7526C11.1473 23.2311 11.3324 23.7047 11.5127 24.1833C11.5663 24.32 11.5322 24.3932 11.386 24.4616C10.8989 24.6862 10.6699 25.1452 10.7771 25.6335C10.8843 26.1315 11.2935 26.4636 11.8391 26.4587C13.0423 26.4489 14.2163 26.6442 15.3659 26.9811C15.4195 26.9958 15.4731 27.0202 15.5851 27.0641Z" fill="#333333"/>
<path d="M35.2097 30.4258C35.7456 31.168 36.2229 31.8516 36.7247 32.5156C36.9585 32.8281 37.2557 33.0869 37.4944 33.3946C38.7658 35.0352 37.9961 37.7598 35.4922 38.1553C34.9661 38.2383 34.44 38.17 33.948 37.9405C33.8263 37.8819 33.7532 37.8233 33.8165 37.6817C34.0309 37.1983 34.2403 36.7198 34.4547 36.2364C34.5082 36.1094 34.5911 36.0899 34.7275 36.1387C35.2438 36.3243 35.7163 36.1778 35.994 35.7579C36.2765 35.3282 36.2278 34.8399 35.8332 34.42C35.0149 33.5557 34.289 32.6231 33.724 31.5733C33.6363 31.4072 33.6363 31.3242 33.8068 31.2266C34.289 30.9629 34.7713 30.6797 35.2097 30.4258Z" fill="#333333"/>
<path d="M42.4014 25.8555C42.3478 26.9102 41.7437 27.8233 40.5892 28.375C40.4333 28.4483 40.3164 28.4532 40.2434 28.2676C40.0729 27.8135 39.8975 27.3594 39.7221 26.9053C39.6539 26.7344 39.6929 26.6367 39.878 26.5537C40.3213 26.3535 40.5454 25.8701 40.448 25.4014C40.3554 24.9668 39.9559 24.6103 39.5273 24.5859C39.2545 24.5713 38.9768 24.5566 38.704 24.5469C37.7444 24.5078 36.8042 24.3369 35.8835 24.0635C35.7276 24.0195 35.6692 23.9609 35.7179 23.7949C35.8592 23.3115 35.9858 22.8281 36.1222 22.3398C36.1612 22.208 36.2196 22.125 36.3853 22.1787C37.4082 22.5009 38.4605 22.6035 39.5273 22.6328C41.1397 22.6718 42.4014 24.0097 42.4014 25.8555Z" fill="#333333"/>
<path d="M22.0137 15.209C22.1501 14.5059 22.2962 13.876 22.3839 13.2363C22.4618 12.665 22.4375 12.084 22.5203 11.5127C22.681 10.3505 23.3435 9.53999 24.4298 9.13471C25.9741 8.56342 27.5475 9.27632 28.21 10.7949C28.2733 10.9414 28.2733 11.039 28.1077 11.0976C27.6303 11.2783 27.1578 11.4638 26.6853 11.6494C26.5586 11.6982 26.4855 11.6689 26.4222 11.5322C26.1884 11.0293 25.7305 10.8046 25.2044 10.917C24.7319 11.0146 24.4152 11.415 24.4055 11.9765C24.3909 13.1289 24.2399 14.2617 23.9281 15.3701C23.8355 15.6973 23.8355 15.7119 23.5189 15.6289C23.0074 15.4971 22.5008 15.3457 22.0137 15.209Z" fill="#333333"/>
<path d="M28.822 36.2323C28.7003 36.8134 28.559 37.331 28.4811 37.8583C28.4031 38.3808 28.3593 38.9081 28.3544 39.4355C28.3349 41.2324 26.9417 42.5752 25.1539 42.4922C24.0628 42.4433 22.9375 41.6132 22.6014 40.5927C22.577 40.5244 22.6355 40.373 22.6939 40.3486C23.1859 40.1435 23.6877 39.958 24.1894 39.7773C24.2381 39.7578 24.3599 39.8408 24.3891 39.8994C24.623 40.3779 25.076 40.622 25.5875 40.5244C26.06 40.4316 26.4107 40.0117 26.4156 39.4843C26.4205 38.3368 26.5861 37.2187 26.8833 36.1151C26.9856 35.7392 26.9904 35.7245 27.3558 35.8173C27.8429 35.9394 28.33 36.0907 28.822 36.2323Z" fill="#333333"/>
<path d="M27.3711 18.7499C24.7454 19.1161 22.2757 18.6766 19.9131 17.495C20.1567 17.0653 20.3953 16.6747 20.6146 16.2694C20.8679 15.8006 20.8581 15.8006 21.3355 16.0106C22.9187 16.704 24.5701 17.0165 26.2945 16.9041C26.4553 16.8944 26.5381 16.9286 26.6063 17.0897C26.8401 17.6317 27.0983 18.1688 27.3711 18.7499Z" fill="#333333"/>
<path d="M23.6016 32.1936C26.2272 31.8518 28.697 32.2766 31.0547 33.4533C30.738 34.0197 30.4263 34.5715 30.1048 35.1477C29.8953 35.0549 29.681 34.9573 29.4569 34.8645C27.937 34.2151 26.349 33.9612 24.7025 34.0539C24.532 34.0637 24.4443 34.0295 24.3712 33.8635C24.1374 33.3117 23.8744 32.7746 23.6016 32.1936Z" fill="#333333"/>
<path d="M29.1016 31.4541C30.6994 29.335 32.7599 27.8994 35.2638 27.0449C35.3612 27.4258 35.4391 27.7676 35.5317 28.1094C35.5804 28.2949 35.634 28.4854 35.7168 28.666C35.8045 28.8613 35.7704 28.9492 35.5561 29.0176C34.7815 29.2715 34.0606 29.6377 33.3786 30.0821C32.5505 30.6192 31.8051 31.2539 31.1573 31.9961C31.0501 32.1182 30.9624 32.1524 30.8065 32.0889C30.2561 31.8741 29.7007 31.6788 29.1016 31.4541Z" fill="#333333"/>
<path d="M32.1666 27.5269C31.6503 25.813 32.4248 21.2525 33.4283 20.0903C33.7985 20.3003 34.1687 20.5151 34.539 20.7251C34.7094 20.8228 34.9725 20.8911 35.0261 21.0376C35.0748 21.1646 34.9043 21.3843 34.8264 21.565C34.1346 23.1323 33.8716 24.7779 33.9544 26.4869C33.9593 26.5699 33.93 26.7066 33.8765 26.7359C33.3163 27.0045 32.7463 27.2584 32.1666 27.5269Z" fill="#333333"/>
<path d="M14.9512 22.4733C15.2581 22.3464 15.5747 22.2194 15.8816 22.0876C17.3235 21.4675 18.5462 20.5495 19.5935 19.3825C19.6471 19.319 19.7835 19.2653 19.8517 19.2897C20.4314 19.4899 21.0062 19.7145 21.5859 19.9294C21.1329 21.194 17.1579 24.0456 15.4675 24.3044C15.297 23.6989 15.1265 23.0935 14.9512 22.4733Z" fill="#333333"/>
<path d="M18.5664 23.6758C19.112 25.1797 18.3131 29.9112 17.3145 31.1172C16.7689 30.8096 16.2185 30.502 15.6875 30.1993C15.9067 29.6084 16.1503 29.0323 16.3403 28.4366C16.7202 27.2403 16.8371 26.0049 16.7738 24.7549C16.7641 24.5742 16.8128 24.4815 16.9881 24.4082C17.5142 24.1787 18.0306 23.9248 18.5664 23.6758Z" fill="#333333"/>
<path d="M19.7789 29.1992C21.2598 29.917 23.8465 33.5596 24.1485 35.3565C24.0462 35.3858 23.9391 35.4102 23.8319 35.4395C23.4324 35.5518 23.033 35.6495 22.6384 35.7764C22.3169 35.879 22.3218 35.8936 22.2097 35.5811C21.9223 34.7559 21.5229 33.9844 21.0357 33.2617C20.5389 32.5244 19.9738 31.8457 19.2918 31.2695C19.1408 31.1426 19.1018 31.0303 19.1798 30.835C19.3698 30.3516 19.5305 29.8584 19.7059 29.3652C19.7254 29.3164 19.7497 29.2627 19.7789 29.1992Z" fill="#333333"/>
<path d="M27.0068 15.5923C27.3381 15.5142 27.6498 15.4409 27.9616 15.3579C28.1906 15.2945 28.4195 15.2359 28.6339 15.1382C28.8287 15.0503 28.8726 15.1333 28.9456 15.2945C29.2233 15.9146 29.4912 16.5445 29.8127 17.1451C30.3437 18.1265 31.0695 18.9566 31.9025 19.6939C32.0389 19.8111 32.0779 19.9088 32.0097 20.0845C31.8148 20.5924 31.6443 21.1099 31.4641 21.6226C31.4495 21.6666 31.4251 21.7056 31.3861 21.7789C29.2866 20.1627 27.835 18.1167 27.0068 15.5923Z" fill="#333333"/>
<path d="M21.6449 39.4446C21.6352 39.2395 21.6303 39.0637 21.6157 38.8879C21.5767 38.429 21.5475 37.9651 21.489 37.5061C21.4696 37.3401 21.5085 37.2571 21.6547 37.1789C22.7361 36.6174 23.876 36.2756 25.0938 36.217C25.2887 36.2072 25.4835 36.1926 25.6784 36.1779C25.8245 36.1682 25.8878 36.217 25.8635 36.3781C25.7855 36.9055 25.7173 37.4377 25.6297 37.9651C25.6199 38.0383 25.5079 38.1506 25.4397 38.1506C24.0806 38.175 22.8676 38.6194 21.7667 39.3958C21.7472 39.4202 21.7229 39.4202 21.6449 39.4446Z" fill="#333333"/>
<path d="M12.5215 32.6227C12.6335 32.4958 12.7212 32.403 12.804 32.3053C13.1353 31.9147 13.4714 31.529 13.788 31.1286C13.8855 31.0016 13.9683 30.9772 14.1144 31.0211C15.4199 31.4264 16.5549 32.11 17.5341 33.0573C17.6169 33.1354 17.7143 33.1989 17.8361 33.2917C17.6412 33.4333 17.5097 33.5309 17.3782 33.6286C17.0469 33.8776 16.7206 34.1315 16.3942 34.3854C16.3016 34.4587 16.2383 34.5075 16.1263 34.405C15.1374 33.4821 13.9829 32.901 12.6481 32.6716C12.6189 32.6667 12.5946 32.652 12.5215 32.6227Z" fill="#333333"/>
<path d="M38.3899 18.7855C38.1317 19.0687 37.8979 19.3129 37.6787 19.5717C37.4741 19.8109 37.2939 20.0746 37.0844 20.309C37.0308 20.3725 36.8993 20.4213 36.8262 20.4018C35.4038 19.9769 34.1908 19.2152 33.163 18.1508C33.1484 18.1361 33.1386 18.1117 33.124 18.0873C33.5235 17.7846 33.9278 17.4867 34.3272 17.184C34.3857 17.14 34.4441 17.0961 34.4929 17.0424C34.6098 16.9252 34.7023 16.9398 34.8241 17.0521C35.7886 17.9652 36.9285 18.5219 38.234 18.7465C38.2681 18.7416 38.3022 18.7562 38.3899 18.7855Z" fill="#333333"/>
<path d="M25.1758 14.9756C25.2537 14.3311 25.3219 13.7549 25.4096 13.1787C25.4193 13.1104 25.5606 13.0225 25.6434 13.0176C26.4423 12.9688 27.2217 12.8174 27.9524 12.4902C28.3568 12.3096 28.7367 12.0654 29.1264 11.8506C29.1946 11.8115 29.2579 11.7676 29.3554 11.6992C29.37 11.8115 29.3797 11.8848 29.3895 11.9629C29.4431 12.544 29.4966 13.125 29.5356 13.7061C29.5405 13.7842 29.4723 13.9063 29.4041 13.9453C28.4493 14.4678 27.4263 14.7998 26.34 14.8975C25.9601 14.9366 25.5704 14.9512 25.1758 14.9756Z" fill="#333333"/>
<path d="M32.5591 38.3448C32.4422 38.2422 32.3594 38.169 32.2766 38.0957C31.8723 37.7539 31.4728 37.4121 31.0636 37.0801C30.9565 36.9922 30.9078 36.919 30.9516 36.7725C31.3803 35.376 32.1256 34.1748 33.1534 33.1445C33.1827 33.1152 33.2216 33.1006 33.2655 33.0713C33.5285 33.4277 33.7916 33.7744 34.0498 34.126C34.1667 34.2871 34.3713 34.4531 34.3761 34.6143C34.3761 34.7608 34.1569 34.9121 34.0303 35.0635C33.2801 35.9815 32.7978 37.0215 32.5981 38.1934C32.5932 38.2373 32.5786 38.2666 32.5591 38.3448Z" fill="#333333"/>
<path d="M39.4949 29.4376C39.3293 29.4571 39.2075 29.4718 39.0857 29.4815C38.5547 29.5255 38.0238 29.5743 37.4928 29.6085C37.4148 29.6134 37.2931 29.545 37.2541 29.4718C36.7377 28.5098 36.4162 27.4844 36.3042 26.3956C36.2701 26.0831 36.275 25.7608 36.2506 25.4483C36.236 25.2627 36.2798 25.1846 36.4942 25.2237C36.9813 25.3067 37.4684 25.3702 37.9604 25.4288C38.1309 25.4483 38.165 25.5411 38.1699 25.6875C38.2284 26.879 38.5596 27.9874 39.2026 28.9981C39.2903 29.1348 39.3829 29.2667 39.4949 29.4376Z" fill="#333333"/>
<path d="M17.9309 18.0176C17.546 17.5049 17.1709 17.0069 16.7764 16.4844C17.7701 15.459 18.3936 14.2334 18.6226 12.7783C18.7103 12.8369 18.7639 12.8711 18.8077 12.9102C19.2607 13.291 19.7138 13.6719 20.1571 14.0625C20.2155 14.1113 20.2642 14.2383 20.2447 14.3018C19.8161 15.7227 19.0756 16.9532 18.0039 17.9834C17.9893 17.9981 17.965 18.003 17.9309 18.0176Z" fill="#333333"/>
<path d="M11.4629 21.8247C12.0182 21.7808 12.5492 21.7417 13.0802 21.6978C13.1045 21.6978 13.1289 21.6978 13.1532 21.6929C13.6355 21.6441 13.6404 21.6441 13.845 22.0738C14.4003 23.2359 14.6877 24.4615 14.6828 25.7506C14.6828 25.814 14.678 25.8824 14.6731 25.9459C14.6682 25.9703 14.6536 25.9898 14.6292 26.0338C14.2931 25.98 13.9521 25.9263 13.6063 25.8726C13.4163 25.8433 13.2214 25.814 13.0266 25.8091C12.8317 25.8043 12.7635 25.7359 12.7587 25.5357C12.7197 24.4957 12.4469 23.5142 11.9452 22.6011C11.8039 22.3423 11.6334 22.0982 11.4629 21.8247Z" fill="#333333"/>
</svg>
