<svg
  width="1201"
  height="1159"
  viewBox="0 0 1201 1159"
  fill="none"
  xmlns="http://www.w3.org/2000/svg"
  class="opacity-60"
  preserveAspectRatio="none"
>
  <path
    opacity="0.6"
    fill-rule="evenodd"
    clip-rule="evenodd"
    d="M0.5 -42H0V-41.5V158V158.5V159V358V358.5V359V558V558.5V559V758V758.5V759V958V958.5V959V1158.5V1159H0.5H200H200.5H201H400H400.5H401H600H600.5H601H800H800.5H801H1000H1000.5H1001H1200.5H1201V1158.5V959V958.5V958V759V758.5V758V559V558.5V558V359V358.5V358V159V158.5V158V-41.5V-42H1200.5H1001H1000.5H1000H801H800.5H800H601H600.5H600H401H400.5H400H201H200.5H200H0.5ZM1200 958V759H1001V958H1200ZM1000 958V759H801V958H1000ZM1200 959H1001V1158H1200V959ZM1000 1158V959H801V1158H1000ZM1200 758H1001V559H1200V758ZM1000 559V758H801V559H1000ZM1200 558V359H1001V558H1200ZM1000 558V359H801V558H1000ZM1200 358H1001V159H1200V358ZM1000 159V358H801V159H1000ZM1200 158V-41H1001V158H1200ZM1000 158V-41H801V158H1000ZM800 958V759H601V958H800ZM800 1158V959H601V1158H800ZM800 559V758H601V559H800ZM800 558V359H601V558H800ZM800 159V358H601V159H800ZM800 158V-41H601V158H800ZM600 958V759H401V958H600ZM600 1158V959H401V1158H600ZM600 559V758H401V559H600ZM600 558V359H401V558H600ZM600 159V358H401V159H600ZM600 158V-41H401V158H600ZM400 958V759H201V958H400ZM400 1158V959H201V1158H400ZM400 559V758H201V559H400ZM400 558V359H201V558H400ZM400 159V358H201V159H400ZM400 158V-41H201V158H400ZM200 958V759H1V958H200ZM200 1158V959H1V1158H200ZM200 559V758H1V559H200ZM200 558V359H1V558H200ZM200 159V358H1V159H200ZM200 158V-41H1V158H200Z"
    fill="url(#paint0_radial_39_1987)"
  ></path>
  <defs>
    <radialGradient
      id="paint0_radial_39_1987"
      cx="0"
      cy="0"
      r="1"
      gradientUnits="userSpaceOnUse"
      gradientTransform="translate(600.5 558.5) rotate(90) scale(600.5)"
    >
      <stop stop-color="white"></stop>
      <stop offset="1" stop-color="white" stop-opacity="0"></stop>
    </radialGradient>
  </defs>
</svg>