<svg width="28" height="28" viewBox="0 0 28 28" fill="none" xmlns="http://www.w3.org/2000/svg">
<path d="M13.9998 0.666748C21.3638 0.666748 27.3332 6.63608 27.3332 14.0001C27.3332 21.3641 21.3638 27.3334 13.9998 27.3334C6.63584 27.3334 0.666504 21.3641 0.666504 14.0001C0.666504 6.63608 6.63584 0.666748 13.9998 0.666748ZM16.2265 19.3334H11.7732L9.93317 21.8627L10.6718 24.1374C11.7461 24.4892 12.8695 24.6679 13.9998 24.6667C15.1612 24.6667 16.2798 24.4801 17.3278 24.1374L18.0652 21.8627L16.2252 19.3334H16.2265ZM5.0585 12.4961L3.33584 13.7454L3.33317 14.0001C3.33317 16.3067 4.06517 18.4414 5.30917 20.1867H7.85584L9.61984 17.7601L8.24917 13.5334L5.0585 12.4961ZM22.9412 12.4961L19.7505 13.5334L18.3798 17.7601L20.1425 20.1867H22.6892C23.9783 18.3817 24.6697 16.2182 24.6665 14.0001L24.6625 13.7454L22.9412 12.4961ZM17.0532 3.77742L15.3332 5.03075V8.38675L18.9252 10.9961L21.9105 10.0267L22.6492 7.75608C21.2727 5.85057 19.3063 4.45215 17.0545 3.77742H17.0532ZM10.9438 3.77742C8.69189 4.4525 6.72545 5.85141 5.34917 7.75741L6.08784 10.0267L9.07317 10.9961L12.6665 8.38675V5.03075L10.9452 3.77742H10.9438Z" fill="white"/>
</svg>
