<svg width="32" height="32" viewBox="0 0 32 32" fill="none" xmlns="http://www.w3.org/2000/svg">
<path d="M16.0003 29.3332C8.63633 29.3332 2.66699 23.3638 2.66699 15.9998C2.66699 8.63584 8.63633 2.6665 16.0003 2.6665C23.3643 2.6665 29.3337 8.63584 29.3337 15.9998C29.3337 23.3638 23.3643 29.3332 16.0003 29.3332ZM14.667 21.3332V23.9998H17.3337V21.3332H18.667C19.286 21.3332 19.8928 21.1608 20.4194 20.8353C20.946 20.5099 21.3716 20.0442 21.6484 19.4906C21.9253 18.9369 22.0425 18.317 21.9869 17.7005C21.9313 17.0839 21.7051 16.4951 21.3337 15.9998C21.7051 15.5046 21.9313 14.9157 21.9869 14.2992C22.0425 13.6827 21.9253 13.0628 21.6484 12.5091C21.3716 11.9554 20.946 11.4898 20.4194 11.1643C19.8928 10.8389 19.286 10.6665 18.667 10.6665H17.3337V7.99984H14.667V10.6665H10.667V21.3332H14.667ZM13.3337 17.3332H18.667C18.8438 17.3332 19.0134 17.4034 19.1384 17.5284C19.2634 17.6535 19.3337 17.823 19.3337 17.9998C19.3337 18.1766 19.2634 18.3462 19.1384 18.4712C19.0134 18.5963 18.8438 18.6665 18.667 18.6665H13.3337V17.3332ZM13.3337 13.3332H18.667C18.8438 13.3332 19.0134 13.4034 19.1384 13.5284C19.2634 13.6535 19.3337 13.823 19.3337 13.9998C19.3337 14.1766 19.2634 14.3462 19.1384 14.4712C19.0134 14.5963 18.8438 14.6665 18.667 14.6665H13.3337V13.3332Z" fill="#B9FD02"/>
</svg>
