<svg width="32" height="32" viewBox="0 0 32 32" fill="none" xmlns="http://www.w3.org/2000/svg">
<path d="M17.3332 15.9998H21.3332L14.6665 25.3332V18.6665H10.6665L17.3332 9.33317V15.9998ZM14.6665 7.99984H9.33317V26.6665H22.6665V7.99984H17.3332V5.33317H14.6665V7.99984ZM11.9998 5.33317V3.99984C11.9998 3.64622 12.1403 3.30708 12.3904 3.05703C12.6404 2.80698 12.9795 2.6665 13.3332 2.6665H18.6665C19.0201 2.6665 19.3593 2.80698 19.6093 3.05703C19.8594 3.30708 19.9998 3.64622 19.9998 3.99984V5.33317H23.9998C24.3535 5.33317 24.6926 5.47365 24.9426 5.7237C25.1927 5.97374 25.3332 6.31288 25.3332 6.6665V27.9998C25.3332 28.3535 25.1927 28.6926 24.9426 28.9426C24.6926 29.1927 24.3535 29.3332 23.9998 29.3332H7.99984C7.64622 29.3332 7.30708 29.1927 7.05703 28.9426C6.80698 28.6926 6.6665 28.3535 6.6665 27.9998V6.6665C6.6665 6.31288 6.80698 5.97374 7.05703 5.7237C7.30708 5.47365 7.64622 5.33317 7.99984 5.33317H11.9998Z" fill="white"/>
</svg>
