<svg width="32" height="32" viewBox="0 0 32 32" fill="none" xmlns="http://www.w3.org/2000/svg">
<path d="M15.9998 2.6665C23.3638 2.6665 29.3332 8.63584 29.3332 15.9998C29.3332 23.3638 23.3638 29.3332 15.9998 29.3332C8.63584 29.3332 2.6665 23.3638 2.6665 15.9998C2.6665 8.63584 8.63584 2.6665 15.9998 2.6665ZM18.2265 21.3332H13.7732L11.9332 23.8625L12.6718 26.1372C13.7461 26.489 14.8695 26.6677 15.9998 26.6665C17.1612 26.6665 18.2798 26.4798 19.3278 26.1372L20.0652 23.8625L18.2252 21.3332H18.2265ZM7.0585 14.4958L5.33584 15.7452L5.33317 15.9998C5.33317 18.3065 6.06517 20.4412 7.30917 22.1865H9.85584L11.6198 19.7598L10.2492 15.5332L7.0585 14.4958ZM24.9412 14.4958L21.7505 15.5332L20.3798 19.7598L22.1425 22.1865H24.6892C25.9783 20.3814 26.6697 18.218 26.6665 15.9998L26.6625 15.7452L24.9412 14.4958ZM19.0532 5.77717L17.3332 7.0305V10.3865L20.9252 12.9958L23.9105 12.0265L24.6492 9.75584C23.2727 7.85033 21.3063 6.4519 19.0545 5.77717H19.0532ZM12.9438 5.77717C10.6919 6.45225 8.72545 7.85117 7.34917 9.75717L8.08784 12.0265L11.0732 12.9958L14.6665 10.3865V7.0305L12.9452 5.77717H12.9438Z" fill="white"/>
</svg>
